<?xml version="1.0" encoding="UTF-8" standalone="no"?>
<svg
   width="700pt"
   height="700pt"
   version="1.1"
   viewBox="0 0 700 700"
   id="svg842"
   sodipodi:docname="bunny.svg"
   inkscape:version="1.1.2 (b8e25be833, 2022-02-05)"
   xmlns:inkscape="http://www.inkscape.org/namespaces/inkscape"
   xmlns:sodipodi="http://sodipodi.sourceforge.net/DTD/sodipodi-0.dtd"
   xmlns="http://www.w3.org/2000/svg"
   xmlns:svg="http://www.w3.org/2000/svg">
  <defs
     id="defs846" />
  <sodipodi:namedview
     id="namedview844"
     pagecolor="#ffffff"
     bordercolor="#666666"
     borderopacity="1.0"
     inkscape:pageshadow="2"
     inkscape:pageopacity="0.0"
     inkscape:pagecheckerboard="0"
     inkscape:document-units="pt"
     showgrid="false"
     inkscape:zoom="0.82392857"
     inkscape:cx="466.05982"
     inkscape:cy="463.63242"
     inkscape:window-width="1920"
     inkscape:window-height="991"
     inkscape:window-x="-9"
     inkscape:window-y="-9"
     inkscape:window-maximized="1"
     inkscape:current-layer="svg842" />
  <g
     id="g840">
    <path
       d="m484.43 381.87c-4.7773-2.8711-10.57-2.6953-15.418-1.6445 4.375-23.137 0.14062-43.504-12.688-60.602-25.934-34.648-80.762-45.43-97.824-45.43-17.816 0-36.031-19.617-36.941-31.449-0.96094-12.164-9.3281-25.742-14.281-32.848 29.801-23.484 49.422-66.449 48.633-78.82-0.28125-4.5508-2.7656-6.457-4.1992-7.2109-6.668-3.4141-18.113 2.0117-29.156 9.8711 2.7305-7.5938 4.6211-14.387 3.9375-16.711-0.92578-3.0117-3.9023-6.2109-9.1172-5.7031-13.09 0.89063-51.379 30.414-62.754 91.332-6.2461 2.293-13.477 5.7383-19.109 11.375-6.0195 6.0547-9.6406 12.723-12.547 18.078-2.3984 4.375-4.4453 8.1719-6.7734 9.7109-5.9141 3.9727-10.656 15.172-8.3477 25.566 2.0469 9.0664 9.7109 20.648 34.527 24.309 19.512 2.8711 22.906 6.4922 23.484 7.5234 0.64844 1.1914-0.75391 4.375-1.9766 7.1758-0.92578 2.082-1.8203 4.2344-2.4688 6.3867-3.6211 12.059-6.4922 37.188 5.6367 54.898 1.9062 2.8008 4.1992 5.9492 6.668 9.3281 5.9141 8.1367 21.664 29.766 19.406 34.492-1.9062 1.9414-4.4805 4.0938-7.1406 6.3867-9.0312 7.6836-16.781 14.352-16.102 21.594 0.28125 3.0117 2.0469 5.5664 4.918 7.2109 2.3984 1.3984 5.3711 2.0117 8.7148 2.0117 8.8203 0 20.266-4.375 31.168-11.008-0.070313 0.47266-0.070313 0.92578-0.070313 1.3281 0 5.5664 3.8672 9.4688 9.4336 9.4688h112.96c14.227 0 16.379-11.375 17.535-17.465 0.31641-1.6445 0.82422-4.4102 1.4688-4.8828 1.4688 0 3.0781 0.070313 4.7422 0.17578 7.9961 0.36719 17.938 0.89062 24.988-5.8086 4.7266-4.5156 7-11.184 7-20.406 0.023437-10.988-4.5273-15.977-8.3086-18.234zm-171.15-257.06c-2.293 7.0352-6.4922 18.254-11.043 26.32-0.31641 0.35156-0.71875 0.68359-1.0312 1.0312-14.594 15.242-26.617 32.742-32.848 42.387 10.34-39.934 33.688-63.348 44.922-69.738zm164.41 287.28c-3.4141 3.2188-10.289 2.8711-16.344 2.5898-1.8711-0.10547-3.6562-0.21094-5.3359-0.21094-10.254 0-12.039 9.3633-12.949 14.387-1.3281 7-2.0469 7.9609-6.0547 7.9609h-110.02c0.64844-1.3633 1.8203-3.1836 3.6914-5.1289 2.082-2.1523 7.7891-7.1055 15.961-7.1055 8.6094 0 15.715 1.4688 22.016 2.7656 8.3125 1.6797 16.137 3.2891 24.711 0.99609 4.6914-1.2969 5.8086-4.3047 6.0547-6.0195 0.68359-5.0234-3.4492-7.5586-9.7109-11.34-16.676-10.148-31.988-21.875-20.09-43.75 1.5391-2.8359 0.47266-6.3867-2.3633-7.9258-2.8359-1.5391-6.3516-0.47266-7.8906 2.3633-15.68 28.84 4.3047 46.305 18.254 55.512-2.082-0.35156-4.2695-0.78906-6.5977-1.2617-6.8438-1.3984-14.559-3.0117-24.379-3.0117-3.7617 0-7.4883 0.68359-11.043 1.9766 0.54297-5.4766 0.35156-13.598-3.4844-22.348-1.2969-2.9766-4.7422-4.3047-7.6836-3.0117-2.9414 1.2969-4.3047 4.7422-3.0117 7.6836 3.7969 8.6094 2.6953 16.504 2.082 19.512-15.855 14.281-34.074 21.086-40.914 20.371 2.3984-2.9766 7.7891-7.5938 10.973-10.324 2.9062-2.5039 5.7031-4.8828 7.8242-7 10.359-10.359-4.1641-30.309-18.254-49.629-2.3984-3.2891-4.6211-6.3516-6.457-9.0664-9.6758-14.086-6.9141-35.543-4.0938-44.941 0.50781-1.7148 1.2617-3.4141 1.9766-5.0586 2.2227-5.0234 4.9531-11.289 1.5039-17.535-3.6914-6.6328-13.266-10.621-31.988-13.406-14.453-2.1172-23.031-7.4219-24.816-15.312-1.4688-6.5977 2.1172-12.406 3.4141-13.266 4.7266-3.1484 7.5586-8.3828 10.535-13.879 2.6875-4.9258 5.7344-10.543 10.562-15.391 9.1523-9.1523 25.707-11.656 25.883-11.691 1.75-0.28125 3.3086-1.2969 4.1992-2.8359 0.14062-0.24609 15.855-26.688 35.824-47.547 13.809-14.453 28.262-23.414 34.352-25.496-2.4688 12.301-20.949 50.383-48.266 69.176-1.3281 0.92578-2.2227 2.3633-2.4688 3.9727s0.24609 3.2539 1.2617 4.5156c3.9727 4.918 14.488 20.09 15.383 31.273 1.3984 18.461 25.219 42.246 48.562 42.246 14.875 0 65.484 10.012 88.496 40.703 12.441 16.641 15.172 37.223 8.1719 61.18-0.68359 2.2578 0.10547 4.7266 1.9062 6.1953 1.8359 1.4688 4.375 1.75 6.4922 0.57813 3.5156-1.9062 11.48-4.6562 14.875-2.625 2.1875 1.2617 2.625 5.1641 2.625 8.207 0.003907 5.7578-1.1172 9.8008-3.3711 11.953z"
       id="path836" />
    <path
       d="m265.58 239.3c0 4.2891-3.4766 7.7695-7.7695 7.7695-4.2891 0-7.7695-3.4805-7.7695-7.7695 0-4.293 3.4805-7.7734 7.7695-7.7734 4.293 0 7.7695 3.4805 7.7695 7.7734"
       id="path838" />
  </g>
  <path
     style="fill:#0000ff;stroke:none;stroke-width:1.2137"
     d="m 385.95579,575.00046 c 4.33897,-3.7954 10.75639,-9.70507 14.26094,-13.13262 6.3127,-6.17397 6.37191,-6.30085 6.37191,-13.65383 0,-12.51998 -4.89817,-22.1281 -27.42557,-53.79732 -16.39477,-23.0479 -17.90674,-27.0741 -17.94147,-47.77603 -0.0253,-15.05898 0.17569,-16.35887 4.40908,-28.52189 6.75713,-19.414 6.67251,-23.69653 -0.61117,-30.92894 -6.45047,-6.40507 -14.83065,-9.62723 -35.26803,-13.56046 -17.24551,-3.31894 -25.22382,-6.23801 -30.37999,-11.1153 -9.72801,-9.20183 -9.2808,-18.50813 1.4376,-29.91572 3.1594,-3.36255 8.45384,-10.97722 11.76543,-16.92147 3.31158,-5.94427 8.38507,-13.44534 11.27441,-16.66907 6.08887,-6.79353 18.16997,-13.20272 31.15757,-16.5295 l 8.49588,-2.17623 8.78879,-13.19898 c 24.48586,-36.77281 47.09716,-61.86429 69.4947,-77.11739 7.86378,-5.35536 14.57226,-8.93461 15.32849,-8.17838 1.42397,1.42396 -11.49855,28.76235 -19.69686,41.66991 -10.71795,16.87456 -26.57206,34.86047 -39.62816,44.95674 -9.19391,7.10964 -9.22435,9.39371 -0.30389,22.80034 8.74463,13.14237 13.56687,23.99089 15.19535,34.18476 2.0701,12.95837 7.2983,22.44686 18.65345,33.8536 15.34585,15.4156 26.58518,20.68815 48.07624,22.55332 16.91914,1.46839 29.20299,4.02202 46.36552,9.63872 45.04373,14.74126 74.86002,40.85283 83.09987,72.77455 2.86164,11.08618 2.59389,30.32383 -0.62138,44.64464 -3.89807,17.36204 -0.52762,21.34924 13.7261,16.23784 13.89072,-4.98122 18.85165,-2.73287 18.85165,8.54377 0,7.69152 -2.97403,14.80241 -7.04459,16.84357 -2.14327,1.07473 -8.08626,1.67067 -17.22936,1.72768 -8.46575,0.0528 -14.99496,0.66294 -16.59422,1.55074 -4.69375,2.60567 -7.50875,7.52326 -9.54449,16.67351 -1.09673,4.92965 -2.68884,9.53961 -3.538,10.24434 -1.05575,0.8762 -25.04239,1.18244 -75.8613,0.96853 l -74.31736,-0.31282 4.43033,-4.56154 c 7.28804,-7.50389 13.05981,-9.78921 24.31971,-9.62928 5.34027,0.0758 15.71738,1.34713 23.06025,2.82507 22.38538,4.50567 39.86887,3.41998 43.13265,-2.67844 1.51629,-2.83324 1.49048,-7.96493 -0.0546,-10.85196 -0.67205,-1.25574 -7.36802,-6.34164 -14.87992,-11.30201 -26.289,-17.35951 -33.01575,-29.64689 -26.21238,-47.8807 4.03585,-10.81652 4.26452,-15.36116 0.89179,-17.7235 -9.96133,-6.9772 -19.59661,7.14104 -19.77838,28.98052 -0.0793,9.51682 0.34308,11.84999 3.27969,18.12066 4.11236,8.78125 10.16471,16.33385 18.14309,22.64041 6.83149,5.39998 6.70431,5.44375 -8.16302,2.80914 -7.24623,-1.28409 -15.26233,-1.76513 -23.81312,-1.42899 l -12.88985,0.50671 -0.61721,-9.89326 c -1.05308,-16.87957 -6.78132,-25.5131 -14.88373,-22.43258 -5.12468,1.9484 -6.22164,6.23631 -3.65583,14.29009 2.92885,9.19322 2.97373,20.0757 0.0959,23.25565 -6.00982,6.64076 -26.91115,19.00712 -39.37074,23.29385 -11.74064,4.03939 -12.58026,2.99581 -3.78174,-4.70045 z M 351.42058,326.53977 c 5.52474,-5.52473 2.63779,-16.2578 -4.88054,-18.14478 -7.37942,-1.85212 -15.32817,5.90519 -13.50289,13.17768 1.98519,7.90963 12.57862,10.77192 18.38343,4.9671 z"
     id="path1002"
     transform="scale(0.75)" />
  <path
     style="fill:#a0a0a0;stroke:none;stroke-width:1.2137"
     d="m 361.05715,250.62852 c 4.54091,-15.98705 16.52079,-39.87033 27.44871,-54.72218 5.93883,-8.07131 26.27571,-28.51676 27.3233,-27.46918 0.68995,0.68995 -5.65712,16.86291 -10.01653,25.52311 -1.74418,3.46489 -6.54763,10.12295 -10.67433,14.79569 -9.70274,10.98657 -19.43576,23.33105 -26.79435,33.98353 -7.36437,10.66083 -8.38926,11.77042 -7.2868,7.88903 z"
     id="path1078"
     transform="scale(0.75)" />
  <path
     style="fill:#a0a0a0;stroke:none;stroke-width:1.2137"
     d="m 362.89554,247.3971 c 0,-4.70806 14.52839,-33.94541 23.27454,-46.83833 4.96395,-7.3175 26.01089,-30.03428 27.82655,-30.03428 1.17521,0 -2.15506,8.97859 -7.4279,20.02601 -1.91165,4.0052 -8.22939,13.0169 -14.03942,20.02601 -5.81003,7.0091 -14.39242,17.93238 -19.07197,24.27395 -10.12153,13.71633 -10.5618,14.23934 -10.5618,12.54664 z"
     id="path1117"
     transform="scale(0.75)" />
  <path
     style="fill:#a0a0a0;stroke:none;stroke-width:1.2137"
     d="m 362.89554,247.43942 c 0,-4.58494 12.44598,-30.11623 21.41127,-43.9224 6.0489,-9.31503 27.38118,-32.99253 29.72468,-32.99253 1.14428,0 -2.2433,9.09043 -7.46276,20.02601 -1.91165,4.0052 -8.22939,13.0169 -14.03942,20.02601 -5.81003,7.0091 -14.39242,17.93238 -19.07197,24.27395 -10.08697,13.6695 -10.5618,14.23546 -10.5618,12.58896 z"
     id="path1156"
     transform="scale(0.75)" />
  <path
     style="fill:#a0a0a0;stroke:none;stroke-width:1.2137"
     d="m 363.44338,245.17321 c 1.48115,-6.25105 13.50608,-30.40716 20.40656,-40.99344 6.19057,-9.49717 27.83017,-33.65528 30.14669,-33.65528 1.2265,0 -2.32479,9.60305 -7.40581,20.02601 -1.95246,4.0052 -9.11703,14.10923 -15.92126,22.4534 -6.80423,8.34417 -15.37174,19.26745 -19.03891,24.27395 -8.63278,11.78566 -9.25012,12.38098 -8.18727,7.89536 z"
     id="path1195"
     transform="scale(0.75)" />
  <path
     style="fill:#00ffff;stroke:none;stroke-width:1.2137"
     d="m 363.44338,245.17321 c 1.48548,-6.26936 13.51471,-30.42041 20.45561,-41.06869 6.38067,-9.78881 29.06363,-34.85242 30.37753,-33.56575 0.34885,0.34162 -1.42963,5.62436 -3.95217,11.73942 -4.74798,11.50986 -9.32141,18.65417 -20.00614,31.25227 -3.43436,4.04936 -10.54433,13.09719 -15.79993,20.1063 -11.84374,15.79532 -12.16276,16.12764 -11.0749,11.53645 z"
     id="path1234"
     transform="scale(0.75)" />
  <path
     style="fill:#a0a0a0;stroke:none;stroke-width:1.2137"
     d="m 389.59688,572.77169 c 17.449,-16.02204 16.99176,-15.35393 16.99176,-24.82878 0,-13.23309 -3.93614,-21.02833 -28.90086,-57.23599 -14.22,-20.62402 -15.39909,-24.04461 -15.39909,-44.67311 0,-15.18607 0.28243,-17.22854 3.86012,-27.91504 6.81451,-20.35485 6.70713,-23.73754 -0.99808,-31.44276 -5.97555,-5.97555 -13.5282,-8.91781 -34.93883,-13.61105 -18.63662,-4.08515 -25.74026,-6.87255 -31.35077,-12.30173 -7.92063,-7.66462 -7.46046,-15.49524 1.55079,-26.38958 3.03683,-3.67144 8.85932,-12.08654 12.93887,-18.70022 4.07955,-6.61368 9.25436,-14.05822 11.49958,-16.54341 6.02217,-6.66582 18.69699,-12.95579 34.10583,-16.92527 4.76372,-1.22718 5.83702,-2.33633 13.86616,-14.32921 25.89686,-38.6814 47.98333,-62.96371 71.49823,-78.60661 10.8101,-7.19124 12.56855,-7.81676 11.41416,-4.06024 -1.9826,6.45157 -14.09119,30.2031 -20.04815,39.32534 -8.85182,13.55529 -20.88222,27.56556 -33.83748,39.40618 -13.4409,12.28448 -13.68195,13.46959 -5.45051,26.79614 9.16984,14.84579 12.5967,22.55656 15.79968,35.55077 3.74563,15.19571 6.83309,20.6535 18.49072,32.68663 16.06027,16.57759 23.89285,20.1276 52.7833,23.92334 63.46659,8.33849 111.20519,38.56001 123.69694,78.30794 3.3324,10.60349 3.55208,32.11772 0.49408,48.3882 -1.66178,8.84177 -1.75107,11.33384 -0.50008,13.95752 1.91228,4.01058 7.29771,4.7436 15.16244,2.06382 7.88744,-2.68752 14.45805,-2.50581 16.03647,0.44348 2.3332,4.35964 1.51549,15.11441 -1.48807,19.57138 -3.36214,4.98909 -5.80886,5.71929 -19.70894,5.88185 -19.4984,0.22803 -22.82802,2.44681 -27.16662,18.10317 -1.32278,4.77344 -2.74726,9.23266 -3.16549,9.90938 -0.50064,0.81003 -25.92626,1.22078 -74.42093,1.20226 l -73.66048,-0.0282 5.5578,-5.30442 c 8.95286,-8.54471 17.75277,-9.49335 43.59694,-4.69978 11.03624,2.04701 32.48826,2.76088 37.84317,1.25934 5.08964,-1.42715 7.06364,-4.18562 7.06364,-9.8708 0,-5.95211 -1.67645,-7.84978 -15.17122,-17.17325 -26.87201,-18.56574 -32.68075,-29.3635 -26.0945,-48.50677 3.17492,-9.22803 3.20516,-15.88327 0.0797,-17.55591 -4.82556,-2.58257 -9.41181,-1.50003 -13.22047,3.12054 -5.01499,6.0841 -6.88527,13.63172 -6.88527,27.78605 0,11.55902 0.20228,12.51263 4.24794,20.026 2.36685,4.39558 7.72209,11.32601 12.09339,15.65054 l 7.84544,7.76149 -4.20435,-0.83481 c -2.3124,-0.45915 -12.75949,-1.14853 -23.21576,-1.53195 -21.35545,-0.78307 -20.3819,-0.26622 -20.4172,-10.83937 -0.0227,-6.81105 -2.95354,-15.97529 -6.22157,-19.45394 -3.34725,-3.56299 -8.69338,-3.76861 -12.00046,-0.46154 -2.94399,2.944 -3.00095,5.16449 -0.43838,17.08952 2.88436,13.4226 1.90843,16.91415 -6.60096,23.61577 -7.90197,6.22325 -31.52908,18.4457 -37.86746,19.58908 -4.16441,0.75122 -4.06895,0.60193 4.85479,-7.59203 z M 351.66883,326.72062 c 3.94758,-3.58454 3.81751,-12.00347 -0.24825,-16.06924 -8.79272,-8.79272 -23.498,3.09267 -17.55822,14.19125 1.71164,3.19822 8.20267,5.91877 12.04141,5.04685 1.66884,-0.37906 4.26311,-1.80504 5.76506,-3.16886 z"
     id="path1384"
     transform="scale(0.75)" />
  <path
     style="fill:#a0a0a0;stroke:none;stroke-width:1.2137"
     d="m 365.32293,242.29326 c 0,-3.14478 17.15507,-35.21157 22.891,-42.78856 9.12148,-12.0492 24.73327,-27.85828 23.82434,-24.12542 -2.23008,9.15862 -11.32587,23.8834 -27.365,44.29996 -19.73737,25.12414 -19.35034,24.67184 -19.35034,22.61402 z"
     id="path1423"
     transform="scale(0.75)" />
  <path
     style="fill:#ffffff;stroke:none;stroke-width:1.2137"
     d="m 462.0317,579.67708 -20.41303,-0.7434 3.42127,-3.27328 c 7.55909,-7.23213 17.22187,-8.5785 37.40479,-5.21181 6.00781,1.00215 17.75033,2.13462 26.0945,2.51661 13.20369,0.60444 15.72213,0.40688 19.41916,-1.5233 3.59628,-1.87758 4.30745,-2.9448 4.63582,-6.9569 0.68028,-8.31161 -0.36358,-9.76282 -14.48294,-20.13477 -27.03161,-19.85716 -31.64999,-28.30642 -26.01626,-47.59644 1.11327,-3.81186 1.85511,-9.26942 1.64855,-12.12791 -0.30847,-4.26891 -0.96179,-5.47694 -3.65756,-6.763 -5.58413,-2.66401 -10.88669,0.47031 -14.9923,8.86186 -2.92018,5.96862 -3.48042,8.81948 -3.94393,20.06923 -0.51793,12.57083 -0.39056,13.43224 3.08422,20.85766 2.12012,4.53061 6.7473,11.08363 11.14852,15.78854 l 7.52408,8.04327 -15.54736,-0.66271 c -8.55104,-0.36449 -18.27817,-1.02092 -21.61584,-1.45875 l -6.06849,-0.79604 -1.40354,-9.69692 c -2.29879,-15.88222 -5.56525,-21.22706 -12.97272,-21.22706 -6.41855,0 -8.54427,3.28578 -7.63086,11.79527 2.44126,22.74346 2.45384,21.75651 -0.32678,25.66153 -1.44282,2.02626 -6.56581,6.13511 -11.38441,9.13078 -9.86329,6.13189 -29.77548,15.94087 -30.62843,15.08792 -0.3073,-0.30729 4.35059,-5.46806 10.35087,-11.46833 l 10.90961,-10.90961 v -9.67002 c 0,-8.52764 -0.49477,-10.70243 -4.18813,-18.40919 -2.30348,-4.80654 -10.8156,-18.64516 -18.91582,-30.75247 -20.40652,-30.50138 -19.90339,-29.18594 -19.91713,-52.07403 -0.0108,-17.92902 0.17265,-19.37493 3.90628,-30.79513 2.15467,-6.59055 3.91758,-14.39939 3.91758,-17.35299 0,-4.79709 -0.62252,-5.99268 -5.83356,-11.20371 -6.54838,-6.54838 -11.38202,-8.48859 -36.40815,-14.61414 -22.19427,-5.43241 -29.52852,-9.22821 -33.83711,-17.5122 -2.59399,-4.98739 -1.18929,-10.32517 4.89112,-18.58595 2.85718,-3.88173 9.68264,-13.75671 15.16768,-21.94441 12.62626,-18.84761 20.08086,-24.45232 40.15553,-30.19078 3.71896,-1.06308 7.7749,-2.82499 9.01318,-3.91533 1.23828,-1.09035 6.88589,-8.70694 12.55023,-16.92574 15.27097,-22.15775 28.33266,-38.21042 42.16087,-51.81526 11.97759,-11.78411 34.02802,-28.35119 35.61826,-26.76095 1.49229,1.49229 -17.96137,37.72337 -26.10173,48.61269 -4.49117,6.0078 -14.86294,17.75032 -23.04838,26.09449 -18.06579,18.41612 -18.00478,18.16545 -8.41007,34.55377 7.25445,12.39101 11.73803,22.90444 14.73604,34.55419 3.80098,14.76996 11.43388,26.09318 25.94386,38.48715 11.02772,9.41953 17.47185,11.98265 39.60075,15.75099 26.2273,4.46625 35.04094,6.40833 47.11013,10.38068 29.78313,9.80256 54.71849,25.8076 68.24786,43.80563 15.45436,20.55886 18.95056,37.68509 14.35624,70.32461 -1.89101,13.43441 -1.88461,14.39886 0.11579,17.45192 2.0415,3.11573 2.38484,3.1986 9.5724,2.31048 4.10022,-0.50665 10.41646,-0.9868 14.03609,-1.067 6.32279,-0.1401 6.6194,-0.004 7.55532,3.47103 2.08005,7.72288 -2.3455,19.47737 -7.72691,20.52305 -1.52266,0.29588 -9.26537,1.03204 -17.20602,1.63593 -13.972,1.06257 -14.54446,1.21763 -17.75331,4.80895 -1.82367,2.04103 -4.79294,8.14657 -6.5984,13.56786 l -3.2826,9.85689 -25.6914,0.002 c -14.13027,10e-4 -37.43393,0.19963 -51.7859,0.43997 -14.35197,0.24035 -35.28037,0.10244 -46.50753,-0.30639 z M 349.47355,328.94888 c 3.98826,-2.0624 6.3633,-7.71869 5.35594,-12.75546 -1.72965,-8.64827 -12.13163,-11.71779 -18.62555,-5.49621 -10.29208,9.86043 0.57964,24.81391 13.26961,18.25167 z"
     id="path1462"
     transform="scale(0.75)" />
</svg>
