<?xml version="1.0" encoding="UTF-8" standalone="no"?>
<svg
   width="700pt"
   height="700pt"
   version="1.1"
   viewBox="0 0 700 700"
   id="svg1935"
   sodipodi:docname="butterfly.svg"
   inkscape:version="1.1.2 (b8e25be833, 2022-02-05)"
   xmlns:inkscape="http://www.inkscape.org/namespaces/inkscape"
   xmlns:sodipodi="http://sodipodi.sourceforge.net/DTD/sodipodi-0.dtd"
   xmlns="http://www.w3.org/2000/svg"
   xmlns:svg="http://www.w3.org/2000/svg">
  <sodipodi:namedview
     id="namedview1937"
     pagecolor="#ffffff"
     bordercolor="#666666"
     borderopacity="1.0"
     inkscape:pageshadow="2"
     inkscape:pageopacity="0.0"
     inkscape:pagecheckerboard="0"
     inkscape:document-units="pt"
     showgrid="false"
     inkscape:zoom="0.855"
     inkscape:cx="466.66667"
     inkscape:cy="461.9883"
     inkscape:window-width="1920"
     inkscape:window-height="991"
     inkscape:window-x="-9"
     inkscape:window-y="-9"
     inkscape:window-maximized="1"
     inkscape:current-layer="svg1935" />
  <defs
     id="defs1849">
    <symbol
       id="u"
       overflow="visible">
      <path
         d="m19.547-1.1719c-1.0117 0.52344-2.0625 0.91406-3.1562 1.1719-1.0938 0.26953-2.2344 0.40625-3.4219 0.40625-3.543 0-6.3516-0.98828-8.4219-2.9688-2.0625-1.9766-3.0938-4.6602-3.0938-8.0469 0-3.4062 1.0312-6.0977 3.0938-8.0781 2.0703-1.9766 4.8789-2.9688 8.4219-2.9688 1.1875 0 2.3281 0.13672 3.4219 0.40625 1.0938 0.26172 2.1445 0.65625 3.1562 1.1875v4.3906c-1.0234-0.6875-2.0273-1.1914-3.0156-1.5156-0.98047-0.32031-2.0156-0.48438-3.1094-0.48438-1.9609 0-3.5 0.625-4.625 1.875-1.1172 1.25-1.6719 2.9805-1.6719 5.1875 0 2.1875 0.55469 3.9141 1.6719 5.1719 1.125 1.25 2.6641 1.875 4.625 1.875 1.0938 0 2.1289-0.16016 3.1094-0.48438 0.98828-0.32031 1.9922-0.82812 3.0156-1.5156z"
         id="path1786" />
    </symbol>
    <symbol
       id="d"
       overflow="visible">
      <path
         d="m14.297-11.609c-0.44922-0.20703-0.89062-0.35938-1.3281-0.45312-0.4375-0.10156-0.88281-0.15625-1.3281-0.15625-1.3125 0-2.3242 0.42188-3.0312 1.2656-0.71094 0.83594-1.0625 2.0391-1.0625 3.6094v7.3438h-5.0938v-15.953h5.0938v2.625c0.65625-1.0508 1.4062-1.8164 2.25-2.2969 0.85156-0.47656 1.875-0.71875 3.0625-0.71875 0.17578 0 0.36328 0.011719 0.5625 0.03125 0.19531 0.011719 0.48438 0.042969 0.85938 0.09375z"
         id="path1789" />
    </symbol>
    <symbol
       id="b"
       overflow="visible">
      <path
         d="m18.375-8.0156v1.4531h-11.922c0.125 1.1992 0.55469 2.0938 1.2969 2.6875 0.73828 0.59375 1.7734 0.89062 3.1094 0.89062 1.0703 0 2.1719-0.15625 3.2969-0.46875 1.125-0.32031 2.2812-0.80469 3.4688-1.4531v3.9375c-1.2109 0.46094-2.418 0.80469-3.625 1.0312-1.2109 0.22656-2.4141 0.34375-3.6094 0.34375-2.8984 0-5.1484-0.72656-6.75-2.1875-1.5938-1.4688-2.3906-3.5312-2.3906-6.1875 0-2.5938 0.78516-4.6328 2.3594-6.125 1.5703-1.5 3.7344-2.25 6.4844-2.25 2.5078 0 4.5156 0.75781 6.0156 2.2656 1.5078 1.5117 2.2656 3.5312 2.2656 6.0625zm-5.2344-1.7031c0-0.96875-0.28906-1.75-0.85938-2.3438-0.5625-0.59375-1.2969-0.89062-2.2031-0.89062-0.99219 0-1.7969 0.28125-2.4219 0.84375-0.61719 0.55469-0.99609 1.3516-1.1406 2.3906z"
         id="path1792" />
    </symbol>
    <symbol
       id="l"
       overflow="visible">
      <path
         d="m9.5938-7.1719c-1.0625 0-1.8672 0.18359-2.4062 0.54688-0.53125 0.35547-0.79688 0.88281-0.79688 1.5781 0 0.64844 0.21094 1.1523 0.64062 1.5156 0.4375 0.36719 1.0391 0.54688 1.8125 0.54688 0.95703 0 1.7656-0.34375 2.4219-1.0312s0.98438-1.5469 0.98438-2.5781v-0.57812zm7.7969-1.9375v9.1094h-5.1406v-2.3594c-0.6875 0.96875-1.4609 1.6719-2.3125 2.1094-0.85547 0.4375-1.8906 0.65625-3.1094 0.65625-1.6562 0-3-0.47656-4.0312-1.4375-1.0312-0.96875-1.5469-2.2188-1.5469-3.75 0-1.875 0.64062-3.25 1.9219-4.125 1.2891-0.875 3.3164-1.3125 6.0781-1.3125h3v-0.39062c0-0.8125-0.32031-1.4062-0.95312-1.7812-0.63672-0.375-1.6328-0.5625-2.9844-0.5625-1.0859 0-2.1016 0.10938-3.0469 0.32812-0.9375 0.21875-1.8086 0.54688-2.6094 0.98438v-3.8906c1.082-0.25781 2.1758-0.45703 3.2812-0.59375 1.1016-0.14453 2.207-0.21875 3.3125-0.21875 2.875 0 4.9453 0.57031 6.2188 1.7031 1.2812 1.1367 1.9219 2.9805 1.9219 5.5312z"
         id="path1795" />
    </symbol>
    <symbol
       id="c"
       overflow="visible">
      <path
         d="m8.0156-20.484v4.5312h5.2656v3.6406h-5.2656v6.7656c0 0.74219 0.14453 1.2461 0.4375 1.5156 0.30078 0.26172 0.89062 0.39062 1.7656 0.39062h2.6094v3.6406h-4.3594c-2.0234 0-3.4531-0.41406-4.2969-1.25-0.83594-0.84375-1.25-2.2734-1.25-4.2969v-6.7656h-2.5312v-3.6406h2.5312v-4.5312z"
         id="path1798" />
    </symbol>
    <symbol
       id="i"
       overflow="visible">
      <path
         d="m13.297-13.625v-8.5312h5.1406v22.156h-5.1406v-2.3125c-0.69922 0.94922-1.4688 1.6406-2.3125 2.0781-0.84375 0.42578-1.8242 0.64062-2.9375 0.64062-1.9688 0-3.5859-0.77344-4.8438-2.3281-1.2617-1.5625-1.8906-3.5781-1.8906-6.0469 0-2.457 0.62891-4.4688 1.8906-6.0312 1.2578-1.5625 2.875-2.3438 4.8438-2.3438 1.1016 0 2.0781 0.22656 2.9219 0.67188 0.85156 0.4375 1.6289 1.1211 2.3281 2.0469zm-3.3594 10.328c1.0938 0 1.9258-0.39453 2.5-1.1875 0.57031-0.80078 0.85938-1.9609 0.85938-3.4844 0-1.5078-0.28906-2.6641-0.85938-3.4688-0.57422-0.80078-1.4062-1.2031-2.5-1.2031-1.0859 0-1.9141 0.40234-2.4844 1.2031-0.57422 0.80469-0.85938 1.9609-0.85938 3.4688 0 1.5234 0.28516 2.6836 0.85938 3.4844 0.57031 0.79297 1.3984 1.1875 2.4844 1.1875z"
         id="path1801" />
    </symbol>
    <symbol
       id="k"
       overflow="visible">
      <path
         d="m10.938-3.2969c1.0938 0 1.9258-0.39453 2.5-1.1875 0.57031-0.80078 0.85938-1.9609 0.85938-3.4844 0-1.5078-0.28906-2.6641-0.85938-3.4688-0.57422-0.80078-1.4062-1.2031-2.5-1.2031s-1.9336 0.40234-2.5156 1.2031c-0.58594 0.80469-0.875 1.9609-0.875 3.4688 0 1.5117 0.28906 2.668 0.875 3.4688 0.58203 0.80469 1.4219 1.2031 2.5156 1.2031zm-3.3906-10.328c0.70703-0.92578 1.4883-1.6094 2.3438-2.0469 0.85156-0.44531 1.832-0.67188 2.9375-0.67188 1.9688 0 3.582 0.78125 4.8438 2.3438 1.2695 1.5625 1.9062 3.5742 1.9062 6.0312 0 2.4688-0.63672 4.4844-1.9062 6.0469-1.2617 1.5547-2.875 2.3281-4.8438 2.3281-1.1055 0-2.0859-0.21875-2.9375-0.65625-0.85547-0.4375-1.6367-1.125-2.3438-2.0625v2.3125h-5.0938v-22.156h5.0938z"
         id="path1804" />
    </symbol>
    <symbol
       id="j"
       overflow="visible">
      <path
         d="m0.35938-15.953h5.0938l4.2969 10.828 3.6406-10.828h5.0938l-6.7031 17.469c-0.67969 1.7695-1.4648 3.0078-2.3594 3.7188-0.89844 0.70703-2.0781 1.0625-3.5469 1.0625h-2.9531v-3.3438h1.5938c0.86328 0 1.4922-0.14062 1.8906-0.42188 0.39453-0.27344 0.70312-0.76562 0.92188-1.4844l0.14062-0.4375z"
         id="path1807" />
    </symbol>
    <symbol
       id="h"
       overflow="visible">
      <path
         d="m2.4531-15.953h5.0938v15.953h-5.0938zm0-6.2031h5.0938v4.1562h-5.0938z"
         id="path1810" />
    </symbol>
    <symbol
       id="g"
       overflow="visible">
      <path
         d="m15.344-15.453v4.1562c-0.69922-0.46875-1.3984-0.81641-2.0938-1.0469-0.69922-0.22656-1.4219-0.34375-2.1719-0.34375-1.4297 0-2.5391 0.41797-3.3281 1.25-0.79297 0.82422-1.1875 1.9805-1.1875 3.4688 0 1.5 0.39453 2.668 1.1875 3.5 0.78906 0.82422 1.8984 1.2344 3.3281 1.2344 0.80078 0 1.5547-0.11719 2.2656-0.35938 0.71875-0.23828 1.3828-0.58594 2-1.0469v4.1719c-0.80469 0.29297-1.6172 0.50781-2.4375 0.65625-0.8125 0.14453-1.6367 0.21875-2.4688 0.21875-2.875 0-5.125-0.73438-6.75-2.2031-1.625-1.4766-2.4375-3.5352-2.4375-6.1719 0-2.625 0.8125-4.6758 2.4375-6.1562 1.625-1.4766 3.875-2.2188 6.75-2.2188 0.83203 0 1.6562 0.078125 2.4688 0.23438 0.8125 0.14844 1.625 0.36719 2.4375 0.65625z"
         id="path1813" />
    </symbol>
    <symbol
       id="a"
       overflow="visible">
      <path
         d="m10.047-12.688c-1.1367 0-2 0.40625-2.5938 1.2188s-0.89062 1.9805-0.89062 3.5c0 1.5312 0.29688 2.7031 0.89062 3.5156s1.457 1.2188 2.5938 1.2188c1.1016 0 1.9453-0.40625 2.5312-1.2188 0.59375-0.8125 0.89062-1.9844 0.89062-3.5156 0-1.5195-0.29688-2.6875-0.89062-3.5-0.58594-0.8125-1.4297-1.2188-2.5312-1.2188zm0-3.6562c2.7383 0 4.8789 0.74609 6.4219 2.2344 1.5391 1.4805 2.3125 3.5273 2.3125 6.1406 0 2.625-0.77344 4.6797-2.3125 6.1562-1.543 1.4805-3.6836 2.2188-6.4219 2.2188-2.7617 0-4.918-0.73828-6.4688-2.2188-1.5547-1.4766-2.3281-3.5312-2.3281-6.1562 0-2.6133 0.77344-4.6602 2.3281-6.1406 1.5508-1.4883 3.707-2.2344 6.4688-2.2344z"
         id="path1816" />
    </symbol>
    <symbol
       id="f"
       overflow="visible">
      <path
         d="m18.484-9.7188v9.7188h-5.125v-7.4375c0-1.375-0.03125-2.3203-0.09375-2.8438-0.0625-0.51953-0.16797-0.90625-0.3125-1.1562-0.19922-0.33203-0.46875-0.58594-0.8125-0.76562-0.34375-0.1875-0.73438-0.28125-1.1719-0.28125-1.0625 0-1.9023 0.41406-2.5156 1.2344-0.60547 0.8125-0.90625 1.9492-0.90625 3.4062v7.8438h-5.0938v-15.953h5.0938v2.3281c0.76953-0.92578 1.5859-1.6094 2.4531-2.0469 0.86328-0.44531 1.8164-0.67188 2.8594-0.67188 1.8438 0 3.2383 0.57031 4.1875 1.7031 0.95703 1.125 1.4375 2.7656 1.4375 4.9219z"
         id="path1819" />
    </symbol>
    <symbol
       id="t"
       overflow="visible">
      <path
         d="m14.906-15.453v3.875c-1.0859-0.45703-2.1367-0.80078-3.1562-1.0312-1.0117-0.22656-1.9688-0.34375-2.875-0.34375-0.96875 0-1.6875 0.125-2.1562 0.375-0.46875 0.24219-0.70312 0.60938-0.70312 1.1094 0 0.40625 0.17578 0.71875 0.53125 0.9375 0.35156 0.21875 0.99219 0.38281 1.9219 0.48438l0.89062 0.14062c2.6133 0.32422 4.3672 0.86719 5.2656 1.625 0.90625 0.76172 1.3594 1.9531 1.3594 3.5781 0 1.6992-0.63281 2.9766-1.8906 3.8281-1.25 0.85547-3.1211 1.2812-5.6094 1.2812-1.0547 0-2.1406-0.085938-3.2656-0.25-1.125-0.15625-2.2812-0.39844-3.4688-0.73438v-3.875c1.0195 0.49219 2.0625 0.85938 3.125 1.1094 1.0703 0.24219 2.1602 0.35938 3.2656 0.35938 0.98828 0 1.7344-0.13281 2.2344-0.40625 0.50781-0.26953 0.76562-0.67578 0.76562-1.2188 0-0.45703-0.17969-0.79688-0.53125-1.0156-0.34375-0.22656-1.0312-0.40625-2.0625-0.53125l-0.89062-0.10938c-2.2734-0.28125-3.8672-0.80469-4.7812-1.5781-0.90625-0.76953-1.3594-1.9414-1.3594-3.5156 0-1.6875 0.57812-2.9375 1.7344-3.75 1.1562-0.82031 2.9297-1.2344 5.3281-1.2344 0.9375 0 1.9219 0.074219 2.9531 0.21875 1.0391 0.14844 2.1641 0.37109 3.375 0.67188z"
         id="path1822" />
    </symbol>
    <symbol
       id="e"
       overflow="visible">
      <path
         d="m17.234-13.297c0.64453-0.98828 1.4102-1.7422 2.2969-2.2656 0.89453-0.51953 1.875-0.78125 2.9375-0.78125 1.832 0 3.2266 0.57031 4.1875 1.7031 0.95703 1.125 1.4375 2.7656 1.4375 4.9219v9.7188h-5.125v-8.3125-0.39062c0.007812-0.13281 0.015625-0.32031 0.015625-0.5625 0-1.1328-0.16797-1.9531-0.5-2.4531-0.32422-0.50781-0.85938-0.76562-1.6094-0.76562-0.96875 0-1.7188 0.40234-2.25 1.2031-0.52344 0.79297-0.79297 1.9453-0.8125 3.4531v7.8281h-5.125v-8.3125c0-1.7695-0.15234-2.9062-0.45312-3.4062-0.30469-0.50781-0.84375-0.76562-1.625-0.76562-0.98047 0-1.7344 0.40234-2.2656 1.2031-0.53125 0.80469-0.79688 1.9492-0.79688 3.4375v7.8438h-5.125v-15.953h5.125v2.3281c0.625-0.89453 1.3438-1.5703 2.1562-2.0312 0.8125-0.45703 1.707-0.6875 2.6875-0.6875 1.1016 0 2.0781 0.26562 2.9219 0.79688s1.4844 1.2812 1.9219 2.25z"
         id="path1825" />
    </symbol>
    <symbol
       id="s"
       overflow="visible">
      <path
         d="m2.9844-5.5156h5.125v5.5156h-5.125z"
         id="path1828" />
    </symbol>
    <symbol
       id="r"
       overflow="visible">
      <path
         d="m12.953-22.156v3.3438h-2.8281c-0.71875 0-1.2266 0.13281-1.5156 0.39062-0.28125 0.26172-0.42188 0.71484-0.42188 1.3594v1.1094h4.3594v3.6406h-4.3594v12.312h-5.0938v-12.312h-2.5312v-3.6406h2.5312v-1.1094c0-1.7383 0.48438-3.0195 1.4531-3.8438 0.96875-0.83203 2.4688-1.25 4.5-1.25z"
         id="path1831" />
    </symbol>
    <symbol
       id="q"
       overflow="visible">
      <path
         d="m18.484-9.7188v9.7188h-5.125v-7.4062c0-1.3945-0.03125-2.3516-0.09375-2.875-0.0625-0.51953-0.16797-0.90625-0.3125-1.1562-0.19922-0.33203-0.46875-0.58594-0.8125-0.76562-0.34375-0.1875-0.73438-0.28125-1.1719-0.28125-1.0625 0-1.9023 0.41406-2.5156 1.2344-0.60547 0.8125-0.90625 1.9492-0.90625 3.4062v7.8438h-5.0938v-22.156h5.0938v8.5312c0.76953-0.92578 1.5859-1.6094 2.4531-2.0469 0.86328-0.44531 1.8164-0.67188 2.8594-0.67188 1.8438 0 3.2383 0.57031 4.1875 1.7031 0.95703 1.125 1.4375 2.7656 1.4375 4.9219z"
         id="path1834" />
    </symbol>
    <symbol
       id="p"
       overflow="visible">
      <path
         d="m2.6719-21.266h6.125l7.7344 14.578v-14.578h5.2031v21.266h-6.125l-7.7344-14.594v14.594h-5.2031z"
         id="path1837" />
    </symbol>
    <symbol
       id="o"
       overflow="visible">
      <path
         d="m2.2812-6.2031v-9.75h5.125v1.5938c0 0.86719-0.007812 1.9531-0.015625 3.2656-0.011719 1.3047-0.015625 2.1719-0.015625 2.6094 0 1.2812 0.03125 2.2031 0.09375 2.7656 0.070312 0.5625 0.1875 0.97656 0.34375 1.2344 0.21875 0.33594 0.49219 0.58984 0.82812 0.76562 0.33203 0.17969 0.71875 0.26562 1.1562 0.26562 1.0625 0 1.8945-0.40625 2.5-1.2188 0.61328-0.8125 0.92188-1.9453 0.92188-3.4062v-7.875h5.0938v15.953h-5.0938v-2.3125c-0.77344 0.9375-1.5898 1.625-2.4531 2.0625-0.85547 0.4375-1.7969 0.65625-2.8281 0.65625-1.8438 0-3.25-0.5625-4.2188-1.6875-0.96094-1.1328-1.4375-2.7734-1.4375-4.9219z"
         id="path1840" />
    </symbol>
    <symbol
       id="n"
       overflow="visible">
      <path
         d="m2.6719-21.266h9.1094c2.707 0 4.7852 0.60547 6.2344 1.8125 1.4453 1.1992 2.1719 2.9062 2.1719 5.125 0 2.2305-0.72656 3.9492-2.1719 5.1562-1.4492 1.1992-3.5273 1.7969-6.2344 1.7969h-3.625v7.375h-5.4844zm5.4844 3.9688v5.9375h3.0469c1.0625 0 1.8789-0.25391 2.4531-0.76562 0.58203-0.51953 0.875-1.2539 0.875-2.2031 0-0.94531-0.29297-1.6758-0.875-2.1875-0.57422-0.51953-1.3906-0.78125-2.4531-0.78125z"
         id="path1843" />
    </symbol>
    <symbol
       id="m"
       overflow="visible">
      <path
         d="m2.4531-15.953h5.0938v15.672c0 2.1328-0.51562 3.7656-1.5469 4.8906-1.0234 1.125-2.5078 1.6875-4.4531 1.6875h-2.5156v-3.3438h0.89062c0.96875 0 1.6289-0.21875 1.9844-0.65625 0.36328-0.4375 0.54688-1.2969 0.54688-2.5781zm0-6.2031h5.0938v4.1562h-5.0938z"
         id="path1846" />
    </symbol>
  </defs>
  <g
     id="g1933">
    <path
       d="m455.35 488.46c-28.465 0-68.691-14.723-105.33-81.082-36.609 66.359-76.883 81.082-105.33 81.082-44.262 0-80.547-35.188-95.551-67.809-11.48-25.059-13.137-48.836-4.875-70.676 6.3008-16.684 18.105-31.758 35.281-45.078-95.738-8.0742-95.715-102.81-95.715-134.84 0-29.469 0-98.488 56.84-98.488 10.805 0 23.102 2.4727 37.566 7.582 59.125 20.836 137.9 95.434 171.78 158.99 33.879-63.582 112.65-138.16 171.76-158.99 14.488-5.0859 26.738-7.582 37.566-7.582 56.863 0 56.863 69.02 56.863 98.488 0 41.02-6.3008 70.305-19.762 92.145-15.773 25.504-41.324 39.852-75.973 42.746 17.148 13.277 28.98 28.352 35.305 45.059 8.2617 21.863 6.6016 45.641-4.875 70.699-15.004 32.574-51.285 67.762-95.551 67.762z"
       id="path1851" />
  </g>
  <path
     style="fill:#a0a0a0;stroke:none;stroke-width:1.16959"
     d="m 310.13795,649.60925 c -10.58441,-1.63167 -27.33381,-7.25398 -38.18802,-12.81867 -31.72906,-16.2667 -61.28492,-48.66754 -74.93349,-82.14645 -7.82991,-19.20615 -10.2145,-30.84009 -10.24143,-49.96577 -0.0277,-19.69898 2.03161,-29.33414 9.69669,-45.36851 8.21974,-17.19465 19.65543,-31.85842 35.35531,-45.33546 4.31772,-3.7064 7.62414,-7.105 7.34761,-7.55243 -0.27653,-0.44743 -3.8092,-1.12997 -7.8504,-1.51676 -28.11104,-2.69055 -57.76722,-16.68893 -76.43786,-36.0804 -31.11826,-32.31965 -44.09319,-79.4272 -42.28963,-153.53917 0.34548,-14.19657 1.49211,-31.75615 2.54806,-39.02129 6.01343,-41.37323 21.6074,-66.04032 48.26001,-76.339338 9.38121,-3.62506 31.11888,-4.490519 44.92526,-1.788645 40.0867,7.844873 85.292,32.402023 132.75063,72.114943 46.37154,38.80325 90.52876,89.28655 116.90443,133.6525 4.45322,7.49064 8.48079,13.62402 8.95018,13.62971 0.46938,0.006 1.98854,-2.22649 3.37589,-4.96041 4.73658,-9.33381 18.80543,-30.68239 30.25265,-45.90643 46.29253,-61.56604 112.11458,-119.76568 167.27242,-147.90174 28.38224,-14.47782 49.77023,-20.945911 72.51462,-21.929673 17.27135,-0.747037 24.34213,0.457163 36.28161,6.179003 9.82642,4.70919 20.41275,14.79 26.75868,25.48091 5.14906,8.67456 11.24165,26.6213 13.53936,39.88248 7.36211,42.49026 4.75689,106.30612 -5.82479,142.67961 -9.05185,31.11485 -26.66576,57.29696 -48.38924,71.92791 -16.26084,10.9518 -39.93694,19.72398 -58.7462,21.76589 -4.11349,0.44655 -8.14459,1.16439 -8.95802,1.59519 -0.97752,0.5177 1.20342,3.08888 6.43275,7.58377 35.03741,30.11647 50.83284,68.77975 44.23043,108.26506 -9.80697,58.64994 -56.62815,110.8605 -112.34213,125.27331 -15.40057,3.98402 -37.50065,3.77355 -53.71768,-0.51157 -39.36358,-10.40129 -76.01316,-42.61207 -105.86477,-93.04302 -3.46363,-5.85141 -6.64596,-10.63895 -7.07183,-10.63895 -0.42587,0 -4.12389,5.62309 -8.21783,12.49575 -29.43271,49.40989 -66.12792,81.25791 -105.00413,91.13374 -12.9695,3.29469 -31.84703,4.47343 -43.31914,2.70491 z"
     id="path5765"
     transform="scale(0.75)" />
  <path
     style="fill:#a0a0a0;stroke:none;stroke-width:1.16959"
     d="M 301.05832,646.8424 C 243.47774,631.9558 193.79305,574.85035 188.00126,516.89949 c -3.74862,-37.50753 7.9596,-66.66908 39.09111,-97.36391 6.97054,-6.87277 12.67371,-12.84129 12.67371,-13.26338 0,-0.42208 -4.60526,-1.41249 -10.23392,-2.20091 -55.48698,-7.77212 -94.19101,-43.73941 -108.38377,-100.72002 -5.37844,-21.5932 -6.72297,-33.72895 -7.36924,-66.51486 -1.15398,-58.54301 4.12265,-88.39367 19.75718,-111.76923 8.87721,-13.27253 22.27196,-22.95848 36.18505,-26.165964 7.66288,-1.766579 31.98936,-1.455904 41.38973,0.52859 63.36963,13.377844 145.95754,74.041604 210.95801,154.956154 13.92227,17.33086 25.0544,33.12033 36.90094,52.33919 3.66778,5.95029 7.2956,10.81871 8.06185,10.81871 0.76623,0 2.70084,-2.46499 4.2991,-5.47775 4.93092,-9.29488 20.70327,-32.8028 31.61073,-47.11425 39.85131,-52.28809 93.82969,-102.45788 143.10458,-133.00744 15.51826,-9.62106 40.41189,-21.72622 54.53848,-26.52074 17.45301,-5.923485 31.37295,-8.068273 49.20008,-7.580755 14.65606,0.400799 14.77269,0.426245 24.8513,5.421925 23.35869,11.57823 36.34566,33.09138 42.39408,70.22651 2.70464,16.60559 3.92025,47.78121 2.77566,71.18515 -2.79932,57.23927 -13.36422,90.75493 -37.85428,120.0874 -15.87491,19.01384 -47.26956,34.92759 -77.67644,39.37366 -5.2461,0.76707 -9.53836,1.95042 -9.53836,2.62963 0,0.67923 6.201,7.59237 13.77999,15.36253 14.39308,14.75613 19.65531,21.79338 26.3857,35.28587 19.18801,38.46645 13.87718,82.24734 -15.30377,126.15958 -13.79295,20.75597 -37.78509,42.08521 -59.86708,53.22235 -48.76566,24.59521 -99.93895,13.94722 -144.37049,-30.04016 -16.06946,-15.90882 -24.36217,-26.85401 -44.83207,-59.17187 -1.55416,-2.45371 -3.38994,-4.27322 -4.07951,-4.04336 -0.68956,0.22985 -5.43562,6.97427 -10.5468,14.98759 -24.20862,37.95442 -47.82355,61.92316 -75.91806,77.05554 -24.58482,13.24199 -54.65825,17.5313 -78.92643,11.25713 z"
     id="path5804"
     transform="scale(0.75)" />
  <path
     style="fill:#ffffff;stroke:none;stroke-width:1.16959"
     d="m 301.10131,646.85327 c -25.83702,-6.68038 -46.94958,-19.151 -67.61219,-39.9367 -25.86168,-26.01574 -42.35303,-58.65089 -45.48786,-90.01708 -3.74301,-37.45135 7.99756,-66.78074 38.92784,-97.24662 7.05536,-6.94943 12.82996,-12.9757 12.83246,-13.39171 0.002,-0.41601 -4.60074,-1.40145 -10.2294,-2.18987 -29.70062,-4.1602 -54.71058,-16.39294 -73.9766,-36.18303 -21.05187,-21.62453 -32.99555,-48.65799 -39.43781,-89.26399 -2.64426,-16.66697 -3.0221,-85.36467 -0.55788,-101.43129 6.72404,-43.84038 24.66736,-70.53976 52.22972,-77.716956 9.23243,-2.404111 31.86438,-2.390221 43.56562,0.02674 58.72016,12.128976 136.95626,67.531406 199.72337,141.432906 19.34654,22.77846 33.04524,41.63918 49.05769,67.54386 3.0816,4.98538 6.08772,9.06433 6.68024,9.06433 0.59254,0 2.51175,-2.42827 4.26492,-5.39616 54.54853,-92.34364 153.96214,-181.46387 231.30348,-207.35413 15.93206,-5.333303 30.17404,-7.42172 47.39997,-6.950643 14.70243,0.402067 14.7411,0.410587 25.04376,5.517293 23.22531,11.51205 36.16858,33.02 42.20423,70.13114 2.70269,16.61796 3.91709,47.79227 2.77305,71.18515 -2.79932,57.23927 -13.36422,90.75493 -37.85428,120.0874 -15.87491,19.01384 -47.26956,34.92759 -77.67644,39.37366 -5.2461,0.76707 -9.53836,1.95042 -9.53836,2.62963 0,0.67923 6.201,7.59237 13.77999,15.36253 7.57899,7.77016 15.70924,17.06986 18.06722,20.66599 21.17271,32.2902 25.09934,64.15692 12.55442,101.88603 -12.59784,37.88831 -43.82255,74.24591 -78.90455,91.87535 -48.11519,24.1789 -97.85104,14.84217 -141.77883,-26.61558 -15.86244,-14.9705 -27.57579,-30.18195 -47.50806,-61.69591 -1.72918,-2.73391 -3.60402,-4.97076 -4.16633,-4.97076 -0.5623,0 -5.65044,7.17729 -11.30697,15.94952 -24.66511,38.25101 -47.36417,61.2122 -75.48939,76.36113 -24.66825,13.28692 -54.55998,17.5567 -78.88303,11.26777 z"
     id="path5843"
     transform="scale(0.75)" />
  <path
     style="fill:#a0a0a0;stroke:none;stroke-width:1.16959"
     d="m 314.56837,648.28987 c -16.94554,-1.41245 -38.08252,-9.51391 -56.67363,-21.72207 -10.53729,-6.91948 -35.7382,-32.17767 -43.56003,-43.65903 -12.413,-18.22056 -21.83469,-40.85392 -24.88608,-59.78288 -1.84235,-11.42876 -0.86713,-36.33042 1.79885,-45.93291 5.22256,-18.81089 15.36078,-34.92906 34.66644,-55.11417 7.61869,-7.96575 13.85216,-14.96617 13.85216,-15.55648 0,-1.11419 -1.4342,-1.49004 -13.86763,-3.6341 -35.418,-6.10759 -64.88992,-24.76331 -84.01367,-53.18063 -13.84467,-20.57276 -23.5033,-50.94938 -26.07675,-82.01199 -1.50862,-18.20953 -1.49421,-73.00963 0.0227,-86.40906 4.30889,-38.06182 20.04579,-66.64637 42.58401,-77.34972 10.39959,-4.938746 21.88642,-6.304824 41.28521,-4.909869 61.21554,4.401969 157.24875,72.949949 226.66438,161.791749 5.52877,7.07603 16.61886,22.73392 24.64464,34.79533 8.02579,12.0614 15.22677,21.92539 16.0022,21.91997 0.77543,-0.006 6.02137,-7.33265 11.65764,-16.28276 48.09082,-76.36578 126.24274,-149.78878 195.60019,-183.76456 29.32248,-14.36405 46.00215,-18.656281 72.49862,-18.656281 h 16.73728 l 10.40689,5.209701 c 29.18264,14.60888 41.62645,41.6697 45.01912,97.90045 2.09638,34.74555 -0.80686,74.74139 -7.37265,101.56821 -7.1437,29.18803 -23.18991,56.95804 -41.41117,71.6673 -17.69647,14.28563 -38.99561,23.26692 -68.68511,28.96274 -3.94319,0.75649 -6.72515,1.89937 -6.72515,2.76283 0,0.80994 6.12436,8.00947 13.60969,15.99894 20.26989,21.6351 28.68037,35.8308 34.47021,58.18079 2.99515,11.56194 3.20864,32.06705 0.47094,45.23442 -7.14346,34.35754 -27.0436,67.01444 -55.14131,90.48908 -25.82327,21.5744 -51.84214,31.86949 -80.54403,31.86949 -32.87077,0 -61.14924,-13.09447 -91.07274,-42.17163 -13.48492,-13.10353 -23.54428,-25.80944 -38.75182,-48.94717 -5.1462,-7.82976 -9.97442,-14.246 -10.72937,-14.25832 -0.75496,-0.0123 -7.47646,8.86016 -14.93667,19.71661 -16.98144,24.7122 -31.51789,41.78263 -45.41296,53.32927 -29.57576,24.57713 -58.83279,34.72218 -92.13041,31.94675 z"
     id="path1914"
     transform="scale(0.75)" />
  <path
     style="fill:#000000;stroke:none;stroke-width:1.16959"
     d="m 311.61435,647.38752 c -22.983,-3.23991 -46.80955,-14.88496 -66.60502,-32.55271 -22.4236,-20.01342 -35.596,-37.69143 -45.55153,-61.13242 -8.58365,-20.21078 -10.33588,-29.68031 -9.72058,-52.5328 0.47783,-17.74644 0.80542,-20.11923 4.07392,-29.50794 5.87553,-16.87733 14.80563,-29.9134 37.02128,-54.04324 5.28724,-5.74282 8.93545,-10.66359 8.58429,-11.57868 -0.36748,-0.95768 -4.26208,-2.17862 -9.77978,-3.06593 -42.35769,-6.81162 -76.41525,-30.70761 -94.25368,-66.13169 -9.11547,-18.10176 -14.881,-37.45623 -17.88908,-60.05234 -2.36754,-17.78447 -2.34552,-88.03221 0.0321,-102.52076 6.26224,-38.15973 22.8856,-63.39622 47.48296,-72.08547 10.72826,-3.789857 35.29452,-3.722673 51.365,0.14048 35.79688,8.60514 78.11571,32.54535 123.01865,69.59295 19.88178,16.40366 56.29506,52.74398 73.25903,73.11227 12.33689,14.81264 18.37682,23.00778 42.66918,57.89474 5.37508,7.71929 10.52989,14.18154 11.45513,14.36053 1.04159,0.20151 6.533,-6.92534 14.41916,-18.71345 7.00529,-10.47139 16.69693,-24.30205 21.53698,-30.7348 55.09813,-73.22913 132.24409,-136.35984 195.51321,-159.99395 14.12447,-5.27618 26.71841,-7.52949 47.61702,-8.519653 l 16.62288,-0.787578 11.22171,6.216611 c 25.04934,13.87686 35.98961,32.68867 42.33907,72.80211 3.0052,18.98569 2.96473,75.62225 -0.0699,97.8848 -5.14288,37.7285 -16.02788,65.269 -34.52649,87.35662 -15.38042,18.36444 -39.64661,31.55393 -71.50834,38.86719 -14.89092,3.41793 -15.20468,3.52739 -15.20468,5.30488 0,0.85058 5.56738,7.78879 12.37197,15.41827 20.61579,23.11493 28.16023,35.29955 33.63059,54.31493 10.91707,37.94852 -2.27967,84.08792 -34.79325,121.64676 -30.44738,35.17201 -72.01902,53.58217 -110.62451,48.99046 -26.95849,-3.20642 -50.57884,-15.43162 -75.81858,-39.24148 -14.0249,-13.23036 -22.87486,-24.03439 -38.94433,-47.54325 -6.49576,-9.50297 -12.52296,-17.27813 -13.39378,-17.27813 -0.87082,0 -6.73391,7.19544 -13.0291,15.98988 -31.98039,44.67686 -51.29385,63.44304 -79.36553,77.11653 -18.77591,9.14561 -44.52416,13.63278 -63.15597,11.00626 z"
     id="path1953"
     transform="scale(0.75)" />
  <path
     style="fill:#a0a0a0;stroke:none;stroke-width:1.16959"
     d="m 744.84192,99.04057 c -23.94817,0.777647 -47.51396,6.90658 -68.6769,18.17891 -57.57169,29.10986 -107.12224,72.33941 -149.37024,120.70264 -21.71581,24.10264 -38.92071,51.70374 -58.34631,77.53383 -2.74153,3.06073 -5.08718,-3.6436 -6.92389,-4.78115 -21.81188,-29.88768 -42.22271,-61.08417 -68.41097,-87.49505 -44.56672,-47.08526 -95.46739,-90.79679 -156.47074,-114.74722 -23.29618,-8.34015 -49.78126,-13.593506 -73.85961,-5.48799 -26.07298,10.80057 -39.54047,38.9798 -44.25484,65.32575 -4.6502,36.31509 -3.78904,73.21302 -0.75171,109.63069 3.94224,42.63979 25.2853,85.55091 63.12607,107.6436 16.99492,10.88443 36.89508,15.10507 56.15177,19.91961 3.78924,1.45306 -2.52062,5.48677 -3.06332,7.51096 -17.04617,20.3454 -37.03524,40.61031 -43.14693,67.34284 -0.73583,17.27544 -1.46968,34.78727 0.51398,51.98738 13.77996,47.62042 49.39236,89.06043 95.15012,108.50537 14.8691,6.573 31.22495,8.61656 47.31379,6.69245 37.91892,-2.5225 71.07837,-26.06137 94.51733,-54.7385 13.71712,-15.41792 24.76068,-33.07669 38.71549,-48.21517 11.73328,11.67794 19.6857,26.72756 30.33397,39.41659 23.88467,29.6378 55.36206,57.12207 94.23366,63.06941 44.06543,6.39291 88.19838,-16.50828 115.6142,-50.19936 26.94447,-31.79538 44.82208,-75.5278 34.47095,-117.37252 -6.04825,-28.02268 -27.82386,-48.25273 -44.59294,-69.94701 -4.08667,-4.40099 4.42956,-4.73709 6.80282,-5.98274 32.00832,-7.29412 65.42735,-20.80107 84.22338,-49.26632 27.56584,-39.78756 31.56274,-90.14771 30.12707,-137.1366 -0.33687,-30.81256 -1.58916,-64.09525 -19.58848,-90.43826 -9.21227,-13.31179 -23.44001,-23.03463 -38.16901,-28.696012 -5.2229,0.347958 -10.44581,0.695915 -15.66871,1.043872 z"
     id="path2029"
     transform="scale(0.75)" />
  <path
     style="fill:#000000;stroke:none;stroke-width:1.16959"
     d="m 756.48986,95.787646 c -19.4287,0.988121 -39.02609,3.270624 -57.64802,8.776494 -4.30487,-0.20037 -7.46778,4.34916 -12.06826,4.86568 -6.47052,0.83807 -10.90635,6.61374 -17.21162,8.62426 -62.06873,33.19296 -115.07123,81.65913 -159.12766,136.17177 -12.2621,14.62187 -22.03333,31.38306 -34.40863,45.76272 -2.03124,3.55535 -4.29403,7.16313 -7.34192,10.25678 -0.51235,3.50922 -2.58722,3.59053 -4.1918,0.23984 -24.60181,-33.43476 -48.10549,-67.96076 -77.75698,-97.26358 -42.67589,-43.45725 -90.89481,-83.90626 -148.27833,-106.16164 -24.55128,-8.803286 -52.82217,-15.137284 -78.0208,-5.25469 -16.65257,7.42995 -28.31124,22.41746 -36.29933,38.33772 -3.53079,8.57932 -5.83315,18.05676 -7.61833,27.2638 -5.79701,41.6525 -4.72458,84.07457 1.18356,125.64462 2.89357,17.2481 8.78274,33.83957 17.90776,48.7879 14.12985,24.42777 36.62357,44.56932 63.01303,54.81867 11.51203,4.74643 24.12603,7.15497 35.6611,11.1271 -15.91823,21.90498 -36.23785,41.45971 -45.11294,67.71533 -2.20771,12.70554 -0.26896,26.13897 -0.87424,39.12401 -0.16887,10.03334 -0.89434,20.22461 4.3443,29.25455 16.4052,43.73134 50.79836,80.00087 93.14141,99.50324 2.99991,3.1529 7.32467,1.59207 11.05172,3.70066 15.26131,4.05786 31.5264,3.44732 47.10344,1.99652 2.99668,-1.43998 6.7098,0.10909 9.47323,-2.46939 27.56497,-7.79807 52.09747,-24.6962 70.87503,-46.16931 12.73964,-13.86461 23.92417,-29.13496 35.72904,-43.72469 1.66358,-2.81433 4.5214,-6.01566 6.7023,-7.78966 2.35272,3.40728 6.52634,5.13172 8.37674,9.13743 16.50924,22.02676 32.83316,44.74296 54.64897,61.96757 14.72726,12.35547 32.12508,21.47101 50.22128,27.50154 20.61953,4.09465 42.35834,4.08808 62.36979,-3.0519 41.2623,-13.7549 73.33367,-47.30368 92.12593,-85.77845 2.5872,-3.36801 4.14874,-6.56119 4.38357,-10.79501 12.26927,-32.82047 11.10597,-72.02249 -9.59582,-101.25541 -9.02191,-13.5008 -20.41729,-25.96062 -29.87558,-38.62489 28.26619,-9.14915 59.0578,-16.9606 80.09869,-39.51709 25.3197,-27.60581 36.04135,-65.52153 39.93969,-102.00794 1.16011,-29.64093 2.07168,-59.5042 -0.90917,-89.06022 -3.05212,-27.26868 -14.07709,-55.99098 -38.15562,-71.31534 -4.79009,-2.50665 -8.30043,-7.679264 -13.84091,-8.148296 -2.94195,-2.055382 -6.5254,-2.384888 -10.01462,-2.190698 z m -71.74022,14.265804 c 0.69459,0.11964 -0.33419,-0.0158 0,0 z M 469.99726,315.66154 c -0.29808,0.14986 -1.23548,-0.86038 0,0 z m -3.07932,230.8434 c 0.008,-0.0661 0.13218,-0.232 0,0 z m -114.36859,99.52942 c -0.27157,0.5251 0.25519,-0.71537 0,0 z m -5.98045,0.93201 c -0.0504,0.0865 0.0155,-0.051 0,0 z"
     id="path2105"
     transform="scale(0.75)" />
  <path
     style="fill:#a0a0a0;stroke:none;stroke-width:1.16959"
     d="m 751.50082,99.917763 c -21.85359,1.353787 -44.36833,3.825767 -64.34347,13.331507 -8.22556,2.74418 -15.2619,8.66902 -23.29708,12.14116 -56.93815,32.18726 -105.79014,77.2583 -147.42889,127.60893 -16.29475,19.92692 -30.47543,41.5747 -46.61001,61.55656 -3.55614,3.67233 -8.36269,0.38564 -9.65155,-3.61677 -23.9455,-32.82764 -47.26683,-66.38383 -76.53873,-94.81255 -41.92183,-43.38185 -89.70897,-83.49544 -146.58408,-105.40464 -24.14582,-8.60699 -52.16132,-14.990167 -76.724,-4.47196 -24.23443,12.1191 -37.17214,39.1289 -40.59759,64.7044 -4.08478,29.95732 -2.70998,61.04376 -1.68862,91.31559 1.12371,30.96306 8.81748,62.5102 27.5971,87.69016 17.09605,24.69419 43.33463,41.63631 72.30744,49.00503 6.14665,2.62563 14.00537,2.75697 19.00584,7.34421 0.16317,6.65626 -6.84707,11.32666 -9.90953,16.82657 -12.9054,17.63736 -29.19671,34.19252 -34.42298,55.98502 -1.50662,18.9559 -1.12452,38.07094 0.67617,56.86449 10.03184,26.84918 25.27219,51.51653 46.53921,70.911 22.90917,22.2873 52.64453,41.41148 85.65423,39.661 41.50577,-0.22532 78.39619,-25.88965 103.33745,-57.48583 12.02183,-14.20794 23.69831,-28.70691 35.06488,-43.4439 7.3178,-1.91154 10.42427,7.55045 15.05848,11.61596 22.91179,29.92568 46.66149,61.59623 81.74313,78.04757 13.66821,7.7373 29.07019,11.69502 44.81936,10.6993 16.03233,1.1652 31.62793,-2.41333 45.83074,-9.41595 36.28966,-15.56021 63.7727,-46.43991 80.609,-81.46995 14.41448,-32.09823 16.00912,-72.46363 -3.68069,-102.68096 -9.14787,-15.36578 -22.28464,-28.00858 -31.4099,-43.29542 0.47309,-6.19287 9.36777,-5.79672 13.63603,-8.48589 25.89675,-8.93334 54.22614,-17.90794 71.29406,-40.73058 29.09964,-37.1515 35.62987,-86.39673 34.8869,-132.32364 -0.6107,-31.04543 0.96777,-64.10513 -14.79598,-92.14867 -8.35422,-15.16693 -22.28834,-27.0026 -37.60279,-34.69253 -4.15622,-1.051844 -8.5217,-0.869831 -12.77413,-0.829217 z"
     id="path2335"
     transform="scale(0.75)" />
  <path
     style="fill:#a0a0a0;stroke:none;stroke-width:1.16959"
     d="m 755.3157,97.743056 c -32.31473,-0.336305 -64.43738,8.526164 -92.02074,25.358644 -70.75133,40.4917 -129.51827,99.37535 -176.67553,165.39917 -6.66934,8.15109 -12.25711,17.68362 -19.79971,24.79865 -11.70623,-10.42391 -19.22929,-24.87471 -29.15221,-36.96315 -31.21332,-42.36734 -68.68812,-79.8951 -108.9053,-113.70164 -31.79171,-25.65034 -67.60668,-47.44998 -106.9466,-59.1785 -23.43954,-6.420881 -51.22785,-9.176597 -71.62372,6.77997 -26.27217,19.29464 -34.28767,53.63915 -34.6587,84.59086 -0.0947,38.23326 -3.08339,77.47708 7.67035,114.67876 11.2145,37.51989 38.68501,70.60869 75.50768,85.12781 11.36792,5.5999 24.82895,6.85429 35.67977,13.02354 -10.49839,18.34933 -25.91673,33.60842 -36.12454,52.25608 -11.16809,16.9101 -8.92875,37.9096 -8.55667,57.11542 -0.2353,13.05627 2.63847,25.91359 9.14491,37.29328 13.52928,29.20696 35.95187,53.57294 61.55512,72.69514 21.98503,15.65204 49.29936,25.67649 76.52596,21.17141 37.34539,-5.11006 70.21037,-28.05875 93.14908,-57.25593 12.3797,-13.61423 22.71226,-29.02504 35.1678,-42.50649 3.40956,-2.09417 5.3962,4.6302 7.81935,5.87993 23.4817,27.95516 44.6556,59.53274 77.19527,77.89428 16.04864,10.11715 34.55158,16.88918 53.74862,15.9608 19.41685,0.95342 38.67955,-3.76489 55.69262,-13.10535 34.31334,-17.51285 60.465,-48.87555 76.08736,-83.68056 14.79073,-34.89889 12.75307,-78.2545 -11.5041,-108.51548 -7.77025,-11.84752 -17.96061,-22.33947 -24.7395,-34.67714 18.06078,-8.88903 38.2016,-13.3067 55.7789,-23.434 33.30468,-18.17067 50.53911,-55.45081 58.09768,-91.078 7.63915,-34.21442 5.27224,-69.58606 4.39173,-104.34212 -1.30195,-25.79286 -7.72534,-53.55009 -27.47948,-71.66286 -9.65303,-8.93229 -20.56218,-21.210144 -35.0254,-19.922524 z"
     id="path2582"
     transform="scale(0.75)" />
  <path
     style="fill:#000000;stroke:none;stroke-width:1.16959"
     d="m 750.61449,95.744243 c -37.73796,-0.66755 -73.4532,14.795327 -104.48614,35.130427 -65.3651,40.84448 -119.17208,97.78531 -164.18,159.8617 -5.02676,6.57688 -10.05799,13.29327 -15.22457,19.53638 C 448.61966,288.99578 433.60855,265.20696 414.9534,244.3348 383.31702,207.94141 348.6311,173.78703 309.55957,145.39158 275.83664,122.1203 238.29809,101.30074 196.97323,96.50265 c -20.33819,-2.391478 -42.17502,3.6776 -55.95989,19.41475 -21.06025,20.01179 -27.06543,50.59733 -27.70655,78.54803 -0.44853,30.58414 -0.94228,61.34925 2.38446,91.79188 5.95813,43.63257 32.2208,84.90515 71.61915,105.48474 13.8322,7.30859 29.05019,11.29097 43.64492,16.65753 -12.9923,22.00506 -32.58857,40.42396 -41.06989,64.96117 -4.65384,20.32835 -3.48168,41.69275 -0.42088,62.17242 8.44608,28.84753 26.6917,54.13036 47.97378,75 23.31183,21.836 52.8471,41.16146 85.88266,40.99049 40.20998,-1.0947 77.87372,-22.6125 103.21226,-53.21554 13.92081,-15.09554 25.61139,-32.15176 40.01463,-46.79359 22.77393,23.54589 40.69187,52.05014 67.12479,72.01328 21.62712,16.55945 48.35457,29.62562 76.30312,26.52017 20.50461,0.45471 40.43566,-6.11162 57.69863,-16.9215 36.58392,-22.16705 64.98611,-58.48837 76.31316,-99.8434 8.33522,-32.59092 1.24426,-68.98403 -20.26275,-95.11879 -6.84616,-9.69189 -14.64979,-18.6052 -20.59526,-28.90123 26.02485,-11.93542 56.36939,-18.26674 76.14447,-40.5656 27.35819,-29.04303 38.413,-69.73016 41.01156,-108.67486 0.6286,-31.86472 1.90231,-64.09881 -3.26714,-95.67227 -3.65051,-18.92279 -12.36129,-37.22377 -27.32714,-49.78599 -9.64114,-9.08728 -20.42484,-20.550064 -35.00382,-18.84294 -1.35766,0.0076 -2.71534,0.01523 -4.07301,0.02284 z"
     id="path2621"
     transform="scale(0.75)" />
  <path
     style="fill:#a0a0a0;stroke:none;stroke-width:1.16959"
     d="m 746.4958,121.51636 c -43.39082,0.50334 -80.68048,26.13036 -114.77119,50.28247 -50.04385,37.35221 -91.9821,83.71544 -129.06717,133.8794 -9.71591,11.17281 -16.97212,27.70842 -33.41402,29.7293 -14.24786,1.55132 -24.12431,-9.95554 -31.63792,-20.33076 -25.28663,-33.64859 -50.55232,-66.82317 -80.88035,-95.79451 -37.8826,-36.17622 -80.08175,-71.61235 -130.49617,-89.61303 -18.63457,-5.58979 -40.06013,-13.02559 -58.45897,-2.74352 -23.16061,14.56279 -28.19875,44.16923 -28.88797,69.41932 -0.76275,31.32234 -0.84547,61.81067 3.34201,92.99616 7.51726,39.15042 35.6166,74.83014 74.25196,86.92263 12.81684,5.5943 30.43839,6.69369 37.01875,20.82977 1.79938,8.71009 4.74056,18.43933 -1.56676,26.13146 -11.75518,19.1775 -27.73515,35.78439 -37.13222,56.34824 -3.23118,18.05003 -3.50653,37.25947 1.24716,55.04798 15.27455,37.10224 44.45623,68.96875 80.99881,85.89454 29.05547,12.5727 62.09695,0.56469 86.43093,-16.73748 24.8165,-19.88855 42.47845,-46.80127 64.47826,-69.41932 11.97842,-12.07472 32.90615,-8.57297 42.29029,4.9365 24.11655,27.07696 44.87824,58.2878 77.89064,75.84688 11.46344,7.19981 24.88111,9.87107 38.28717,8.87762 15.48047,0.8253 30.90538,-2.66112 44.14977,-10.85754 34.3252,-19.61035 61.40861,-53.57903 69.98126,-92.45935 2.48367,-21.41027 -0.16194,-44.46173 -13.82492,-61.94262 -9.14562,-14.52307 -22.70329,-26.80492 -27.83717,-43.51014 -3.63766,-14.51162 7.27544,-28.36269 20.91058,-32.28914 23.78178,-10.78865 52.53077,-17.00841 67.77349,-40.27224 22.02508,-30.97544 28.5253,-70.14479 27.2121,-107.44821 -0.70231,-23.203 0.71884,-46.79272 -3.79374,-69.65745 -4.3682,-18.31171 -16.78191,-34.75482 -33.17791,-43.81568 -3.75873,-0.34391 -7.54614,-0.27761 -11.3167,-0.25128 z"
     id="path3219"
     transform="scale(0.75)" />
  <path
     style="fill:#a0a0a0;stroke:none;stroke-width:1.16959"
     d="m 310.52632,624.02863 c -17.29496,-3.75895 -42.16375,-19.43279 -59.80791,-37.69465 -13.24915,-13.71297 -28.40536,-36.81118 -33.30924,-50.76359 -3.74522,-10.65583 -5.25599,-28.75617 -3.62122,-43.38535 1.24742,-11.16288 1.90092,-13.37369 6.13657,-20.76023 2.60725,-4.54681 8.72426,-13.79323 13.59334,-20.54762 4.86909,-6.75438 12.00997,-17.01754 15.86863,-22.80701 l 7.01574,-10.52632 -0.59573,-8.92708 c -1.14028,-17.08715 -5.23422,-21.17016 -29.71054,-29.63118 -25.78602,-8.91375 -36.21449,-14.95317 -51.03951,-29.5584 -14.13413,-13.92457 -25.7301,-34.10643 -30.41561,-52.93597 -3.31181,-13.30909 -4.37607,-26.58879 -5.06157,-63.1579 -0.92907,-49.56255 0.91768,-65.59831 9.66176,-83.8955 4.92423,-10.30406 13.61157,-19.35876 22.61846,-23.57492 20.78316,-9.72866 67.36365,4.48223 111.74026,34.09 33.73212,22.50583 76.36962,60.84113 105.68127,95.01785 6.62045,7.7193 22.00327,26.97185 34.18404,42.78343 13.47383,17.49007 24.09648,30.14845 27.12527,32.32356 6.60539,4.74364 13.37152,6.67538 19.93415,5.69126 9.52988,-1.4291 14.5464,-6.07837 34.14476,-31.64508 51.06132,-66.61119 92.02708,-107.62297 140.9448,-141.10315 42.68115,-29.21176 71.6769,-40.79856 102.09759,-40.79856 8.5074,0 9.9259,0.34163 15.03714,3.6215 11.85675,7.60846 23.34972,24.05382 27.23512,38.97089 3.02523,11.61461 4.46499,39.7388 3.82576,74.73215 -0.49697,27.20574 -1.02764,35.01207 -3.03618,44.66377 -6.53976,31.42581 -20.59465,59.15211 -36.20169,71.41563 -8.90446,6.99685 -18.00751,11.62108 -42.25504,21.46502 -11.23749,4.56217 -22.28776,9.79701 -24.55617,11.63298 -5.83073,4.71921 -9.89962,13.155 -9.89765,20.52018 0.002,8.57106 4.92315,18.08737 19.71382,38.12408 6.88534,9.32749 14.00769,20.11696 15.82744,23.97661 7.75647,16.45139 9.44183,40.83782 4.01714,58.12676 -9.81668,31.28662 -30.73452,58.96784 -58.40382,77.28756 -18.40201,12.18389 -27.8375,15.53194 -47.32159,16.79135 -20.86345,1.34859 -33.15227,-2.18519 -53.3243,-15.33397 -13.47022,-8.78034 -27.4496,-22.5055 -51.53991,-50.60264 -11.16314,-13.01984 -22.49174,-25.12511 -25.17465,-26.90058 -4.39112,-2.90591 -5.89802,-3.22813 -15.09662,-3.22813 -9.49793,0 -10.57624,0.25119 -15.29009,3.56189 -2.78933,1.95906 -13.59511,13.49896 -24.01285,25.64425 -37.99385,44.29429 -51.75618,55.3754 -79.88907,64.32482 -10.8267,3.4441 -28.28699,4.8717 -36.8421,3.01229 z"
     id="path1131"
     transform="scale(0.75)" />
  <path
     style="fill:#c87137;stroke:none;stroke-width:1.16959"
     d="m 307.60234,623.34401 c -22.368,-6.27893 -50.96757,-27.53927 -68.77795,-51.12816 -9.79045,-12.96691 -18.04145,-27.03971 -21.31246,-36.35024 -3.84095,-10.93277 -5.374,-28.91486 -3.72398,-43.68057 1.24742,-11.16288 1.90092,-13.37369 6.13657,-20.76023 2.60725,-4.54681 8.72426,-13.79323 13.59334,-20.54762 4.86909,-6.75438 12.00997,-17.01754 15.86863,-22.80701 l 7.01574,-10.52632 -0.59573,-8.92708 c -1.12656,-16.88153 -5.19799,-20.9003 -30.07551,-29.6865 -25.81757,-9.1182 -36.00095,-15.04703 -50.67454,-29.50308 -18.74977,-18.47176 -29.98367,-42.0657 -33.55793,-70.47983 -1.92448,-15.29897 -2.80558,-79.15602 -1.29609,-93.9327 2.36903,-23.19082 8.41605,-39.2026 18.85135,-49.91613 10.97182,-11.26434 23.98692,-14.6764 42.62469,-11.17453 47.9188,9.00351 102.01957,43.42108 160.90647,102.36472 18.97039,18.98867 35.21872,38.03008 60.76767,71.21362 10.49801,13.63504 21.83422,27.30153 25.19159,30.36998 11.90502,10.88051 24.0193,11.03221 35.79127,0.44818 3.15409,-2.83578 13.05171,-14.7101 21.99472,-26.38736 49.01889,-64.00605 90.85546,-105.73518 139.28385,-138.92617 41.16955,-28.21605 67.45543,-39.09226 97.66081,-40.40874 l 14.03509,-0.61171 5.51343,3.70893 c 12.09736,8.138 23.45615,24.58197 27.18978,39.36226 2.65862,10.52462 4.1389,34.07406 4.1389,65.84456 0,28.7355 -0.90644,41.04478 -4.2069,57.12976 -5.8912,28.71083 -21.1886,57.15308 -37.01204,68.81596 -9.39617,6.92557 -17.90841,11.14968 -42.36506,21.0232 -21.36694,8.62617 -26.99169,12.53775 -30.70666,21.35412 -5.10421,12.11331 -1.42236,22.05606 17.89385,48.32198 6.78717,9.2291 13.82919,19.93808 15.64894,23.79773 7.75647,16.45139 9.44183,40.83782 4.01714,58.12676 -9.64038,30.72474 -30.32923,58.35617 -57.48181,76.77112 -17.99509,12.20431 -28.69912,16.04447 -48.2436,17.30779 -20.98587,1.3565 -34.73921,-2.69086 -54.53441,-16.04852 -12.88725,-8.69624 -26.88376,-22.55185 -50.33697,-49.83031 -11.16678,-12.98807 -21.7442,-24.6181 -23.5054,-25.8445 -7.89425,-5.49712 -20.65353,-6.59571 -29.10232,-2.50572 -4.89554,2.36989 -9.86489,7.62368 -38.64193,40.85379 -26.6324,30.75359 -42.6603,42.7025 -68.20646,50.84844 -12.60372,4.01896 -30.0815,5.03869 -39.76608,2.32013 z"
     id="path1170"
     transform="scale(0.75)" />
</svg>
