<?xml version="1.0" encoding="UTF-8" standalone="no"?>
<svg
   width="700pt"
   height="700pt"
   version="1.1"
   viewBox="0 0 700 700"
   id="svg1108"
   sodipodi:docname="flower2.svg"
   inkscape:version="1.1.2 (b8e25be833, 2022-02-05)"
   xmlns:inkscape="http://www.inkscape.org/namespaces/inkscape"
   xmlns:sodipodi="http://sodipodi.sourceforge.net/DTD/sodipodi-0.dtd"
   xmlns="http://www.w3.org/2000/svg"
   xmlns:svg="http://www.w3.org/2000/svg">
  <sodipodi:namedview
     id="namedview1110"
     pagecolor="#ffffff"
     bordercolor="#666666"
     borderopacity="1.0"
     inkscape:pageshadow="2"
     inkscape:pageopacity="0.0"
     inkscape:pagecheckerboard="0"
     inkscape:document-units="pt"
     showgrid="false"
     inkscape:zoom="0.82392857"
     inkscape:cx="466.05982"
     inkscape:cy="507.93238"
     inkscape:window-width="1920"
     inkscape:window-height="991"
     inkscape:window-x="-9"
     inkscape:window-y="-9"
     inkscape:window-maximized="1"
     inkscape:current-layer="svg1108" />
  <defs
     id="defs1028">
    <symbol
       id="t"
       overflow="visible">
      <path
         d="m18.766-1.125c-0.96875 0.5-1.9805 0.875-3.0312 1.125-1.043 0.25781-2.1367 0.39062-3.2812 0.39062-3.3984 0-6.0898-0.94531-8.0781-2.8438-1.9922-1.9062-2.9844-4.4844-2.9844-7.7344 0-3.2578 0.99219-5.8359 2.9844-7.7344 1.9883-1.9062 4.6797-2.8594 8.0781-2.8594 1.1445 0 2.2383 0.13281 3.2812 0.39062 1.0508 0.25 2.0625 0.625 3.0312 1.125v4.2188c-0.98047-0.65625-1.9453-1.1406-2.8906-1.4531-0.94922-0.3125-1.9492-0.46875-3-0.46875-1.875 0-3.3516 0.60547-4.4219 1.8125-1.0742 1.1992-1.6094 2.8555-1.6094 4.9688 0 2.1055 0.53516 3.7617 1.6094 4.9688 1.0703 1.1992 2.5469 1.7969 4.4219 1.7969 1.0508 0 2.0508-0.14844 3-0.45312 0.94531-0.3125 1.9102-0.80078 2.8906-1.4688z"
         id="path968" />
    </symbol>
    <symbol
       id="e"
       overflow="visible">
      <path
         d="m13.734-11.141c-0.4375-0.19531-0.87109-0.34375-1.2969-0.4375-0.41797-0.10156-0.83984-0.15625-1.2656-0.15625-1.2617 0-2.2305 0.40625-2.9062 1.2188-0.67969 0.80469-1.0156 1.9531-1.0156 3.4531v7.0625h-4.8906v-15.312h4.8906v2.5156c0.625-1 1.3438-1.7266 2.1562-2.1875 0.82031-0.46875 1.8008-0.70312 2.9375-0.70312 0.16406 0 0.34375 0.011719 0.53125 0.03125 0.19531 0.011719 0.47656 0.039062 0.84375 0.078125z"
         id="path971" />
    </symbol>
    <symbol
       id="a"
       overflow="visible">
      <path
         d="m17.641-7.7031v1.4062h-11.453c0.125 1.1484 0.53906 2.0078 1.25 2.5781 0.70703 0.57422 1.7031 0.85938 2.9844 0.85938 1.0312 0 2.082-0.14844 3.1562-0.45312 1.082-0.3125 2.1914-0.77344 3.3281-1.3906v3.7656c-1.1562 0.4375-2.3125 0.76562-3.4688 0.98438-1.1562 0.22656-2.3125 0.34375-3.4688 0.34375-2.7734 0-4.9297-0.70312-6.4688-2.1094-1.5312-1.4062-2.2969-3.3789-2.2969-5.9219 0-2.5 0.75391-4.4609 2.2656-5.8906 1.5078-1.4375 3.582-2.1562 6.2188-2.1562 2.4062 0 4.332 0.73047 5.7812 2.1875 1.4453 1.4492 2.1719 3.3828 2.1719 5.7969zm-5.0312-1.625c0-0.92578-0.27344-1.6719-0.8125-2.2344-0.54297-0.57031-1.25-0.85938-2.125-0.85938-0.94922 0-1.7188 0.26562-2.3125 0.79688s-0.96484 1.2969-1.1094 2.2969z"
         id="path974" />
    </symbol>
    <symbol
       id="d"
       overflow="visible">
      <path
         d="m9.2188-6.8906c-1.0234 0-1.793 0.17188-2.3125 0.51562-0.51172 0.34375-0.76562 0.85547-0.76562 1.5312 0 0.625 0.20703 1.1172 0.625 1.4688 0.41406 0.34375 0.98828 0.51562 1.7188 0.51562 0.92578 0 1.7031-0.32812 2.3281-0.98438 0.63281-0.66406 0.95312-1.4922 0.95312-2.4844v-0.5625zm7.4688-1.8438v8.7344h-4.9219v-2.2656c-0.65625 0.92969-1.3984 1.6055-2.2188 2.0312-0.82422 0.41406-1.8242 0.625-3 0.625-1.5859 0-2.8711-0.45703-3.8594-1.375-0.99219-0.92578-1.4844-2.1289-1.4844-3.6094 0-1.7891 0.61328-3.1016 1.8438-3.9375 1.2383-0.84375 3.1797-1.2656 5.8281-1.2656h2.8906v-0.39062c0-0.76953-0.30859-1.332-0.92188-1.6875-0.61719-0.36328-1.5703-0.54688-2.8594-0.54688-1.0547 0-2.0312 0.10547-2.9375 0.3125-0.89844 0.21094-1.7305 0.52344-2.5 0.9375v-3.7344c1.0391-0.25 2.0859-0.44141 3.1406-0.57812 1.0625-0.13281 2.125-0.20312 3.1875-0.20312 2.7578 0 4.75 0.54688 5.9688 1.6406 1.2266 1.0859 1.8438 2.8555 1.8438 5.3125z"
         id="path977" />
    </symbol>
    <symbol
       id="c"
       overflow="visible">
      <path
         d="m7.7031-19.656v4.3438h5.0469v3.5h-5.0469v6.5c0 0.71094 0.14062 1.1875 0.42188 1.4375s0.83594 0.375 1.6719 0.375h2.5156v3.5h-4.1875c-1.9375 0-3.3125-0.39844-4.125-1.2031-0.80469-0.8125-1.2031-2.1797-1.2031-4.1094v-6.5h-2.4219v-3.5h2.4219v-4.3438z"
         id="path980" />
    </symbol>
    <symbol
       id="b"
       overflow="visible">
      <path
         d="m12.766-13.078v-8.2031h4.9219v21.281h-4.9219v-2.2188c-0.66797 0.90625-1.4062 1.5703-2.2188 1.9844s-1.7578 0.625-2.8281 0.625c-1.8867 0-3.4336-0.75-4.6406-2.25-1.2109-1.5-1.8125-3.4258-1.8125-5.7812 0-2.3633 0.60156-4.2969 1.8125-5.7969 1.207-1.5 2.7539-2.25 4.6406-2.25 1.0625 0 2 0.21484 2.8125 0.64062 0.82031 0.42969 1.5664 1.0859 2.2344 1.9688zm-3.2188 9.9219c1.0391 0 1.8359-0.37891 2.3906-1.1406 0.55078-0.76953 0.82812-1.8828 0.82812-3.3438 0-1.457-0.27734-2.5664-0.82812-3.3281-0.55469-0.76953-1.3516-1.1562-2.3906-1.1562-1.043 0-1.8398 0.38672-2.3906 1.1562-0.55469 0.76172-0.82812 1.8711-0.82812 3.3281 0 1.4609 0.27344 2.5742 0.82812 3.3438 0.55078 0.76172 1.3477 1.1406 2.3906 1.1406z"
         id="path983" />
    </symbol>
    <symbol
       id="i"
       overflow="visible">
      <path
         d="m10.5-3.1562c1.0508 0 1.8516-0.37891 2.4062-1.1406 0.55078-0.76953 0.82812-1.8828 0.82812-3.3438 0-1.457-0.27734-2.5664-0.82812-3.3281-0.55469-0.76953-1.3555-1.1562-2.4062-1.1562-1.0547 0-1.8594 0.38672-2.4219 1.1562-0.55469 0.77344-0.82812 1.8828-0.82812 3.3281 0 1.4492 0.27344 2.5586 0.82812 3.3281 0.5625 0.77344 1.3672 1.1562 2.4219 1.1562zm-3.25-9.9219c0.67578-0.88281 1.4219-1.5391 2.2344-1.9688 0.82031-0.42578 1.7656-0.64062 2.8281-0.64062 1.8945 0 3.4453 0.75 4.6562 2.25 1.207 1.5 1.8125 3.4336 1.8125 5.7969 0 2.3555-0.60547 4.2812-1.8125 5.7812-1.2109 1.5-2.7617 2.25-4.6562 2.25-1.0625 0-2.0078-0.21094-2.8281-0.625-0.8125-0.42578-1.5586-1.0859-2.2344-1.9844v2.2188h-4.8906v-21.281h4.8906z"
         id="path986" />
    </symbol>
    <symbol
       id="h"
       overflow="visible">
      <path
         d="m0.34375-15.312h4.8906l4.125 10.391 3.5-10.391h4.8906l-6.4375 16.766c-0.64844 1.6953-1.4023 2.8828-2.2656 3.5625-0.86719 0.6875-2 1.0312-3.4062 1.0312h-2.8438v-3.2188h1.5312c0.83203 0 1.4375-0.13672 1.8125-0.40625 0.38281-0.26172 0.67969-0.73047 0.89062-1.4062l0.14062-0.42188z"
         id="path989" />
    </symbol>
    <symbol
       id="g"
       overflow="visible">
      <path
         d="m2.5781-20.406h6.6875l4.6562 10.922 4.6719-10.922h6.6875v20.406h-4.9844v-14.938l-4.7031 11.016h-3.3281l-4.7031-11.016v14.938h-4.9844z"
         id="path992" />
    </symbol>
    <symbol
       id="s"
       overflow="visible">
      <path
         d="m6.2188-7.8281-5.5156-7.4844h5.1719l3.1406 4.5312 3.1719-4.5312h5.1719l-5.5156 7.4531 5.7969 7.8594h-5.1875l-3.4375-4.8438-3.4062 4.8438h-5.1875z"
         id="path995" />
    </symbol>
    <symbol
       id="r"
       overflow="visible">
      <path
         d="m12.422-21.281v3.2188h-2.7031c-0.6875 0-1.1719 0.125-1.4531 0.375-0.27344 0.25-0.40625 0.6875-0.40625 1.3125v1.0625h4.1875v3.5h-4.1875v11.812h-4.8906v-11.812h-2.4375v-3.5h2.4375v-1.0625c0-1.6641 0.46094-2.8984 1.3906-3.7031 0.92578-0.80078 2.3672-1.2031 4.3281-1.2031z"
         id="path998" />
    </symbol>
    <symbol
       id="f"
       overflow="visible">
      <path
         d="m9.6406-12.188c-1.0859 0-1.9141 0.39062-2.4844 1.1719-0.57422 0.78125-0.85938 1.9062-0.85938 3.375s0.28516 2.5938 0.85938 3.375c0.57031 0.77344 1.3984 1.1562 2.4844 1.1562 1.0625 0 1.875-0.38281 2.4375-1.1562 0.57031-0.78125 0.85938-1.9062 0.85938-3.375s-0.28906-2.5938-0.85938-3.375c-0.5625-0.78125-1.375-1.1719-2.4375-1.1719zm0-3.5c2.6328 0 4.6914 0.71484 6.1719 2.1406 1.4766 1.418 2.2188 3.3867 2.2188 5.9062 0 2.5117-0.74219 4.4805-2.2188 5.9062-1.4805 1.418-3.5391 2.125-6.1719 2.125-2.6484 0-4.7148-0.70703-6.2031-2.125-1.4922-1.4258-2.2344-3.3945-2.2344-5.9062 0-2.5195 0.74219-4.4883 2.2344-5.9062 1.4883-1.4258 3.5547-2.1406 6.2031-2.1406z"
         id="path1001" />
    </symbol>
    <symbol
       id="q"
       overflow="visible">
      <path
         d="m16.547-12.766c0.61328-0.94531 1.3477-1.6719 2.2031-2.1719 0.85156-0.5 1.7891-0.75 2.8125-0.75 1.7578 0 3.0977 0.54688 4.0156 1.6406 0.92578 1.0859 1.3906 2.6562 1.3906 4.7188v9.3281h-4.9219v-7.9844-0.35938c0.007813-0.13281 0.015625-0.32031 0.015625-0.5625 0-1.082-0.16406-1.8633-0.48438-2.3438-0.3125-0.48828-0.82422-0.73438-1.5312-0.73438-0.92969 0-1.6484 0.38672-2.1562 1.1562-0.51172 0.76172-0.77344 1.8672-0.78125 3.3125v7.5156h-4.9219v-7.9844c0-1.6953-0.14844-2.7852-0.4375-3.2656-0.29297-0.48828-0.8125-0.73438-1.5625-0.73438-0.9375 0-1.6641 0.38672-2.1719 1.1562-0.51172 0.76172-0.76562 1.8594-0.76562 3.2969v7.5312h-4.9219v-15.312h4.9219v2.2344c0.60156-0.86328 1.2891-1.5156 2.0625-1.9531 0.78125-0.4375 1.6406-0.65625 2.5781-0.65625 1.0625 0 2 0.25781 2.8125 0.76562 0.8125 0.51172 1.4258 1.2305 1.8438 2.1562z"
         id="path1004" />
    </symbol>
    <symbol
       id="p"
       overflow="visible">
      <path
         d="m17.75-9.3281v9.3281h-4.9219v-7.1094c0-1.3438-0.03125-2.2656-0.09375-2.7656s-0.16797-0.86719-0.3125-1.1094c-0.1875-0.3125-0.44922-0.55469-0.78125-0.73438-0.32422-0.17578-0.69531-0.26562-1.1094-0.26562-1.0234 0-1.8242 0.39844-2.4062 1.1875-0.58594 0.78125-0.875 1.8711-0.875 3.2656v7.5312h-4.8906v-21.281h4.8906v8.2031c0.73828-0.88281 1.5195-1.5391 2.3438-1.9688 0.83203-0.42578 1.75-0.64062 2.75-0.64062 1.7695 0 3.1133 0.54688 4.0312 1.6406 0.91406 1.0859 1.375 2.6562 1.375 4.7188z"
         id="path1007" />
    </symbol>
    <symbol
       id="o"
       overflow="visible">
      <path
         d="m2.5781-20.406h5.875l7.4219 14v-14h4.9844v20.406h-5.875l-7.4219-14v14h-4.9844z"
         id="path1010" />
    </symbol>
    <symbol
       id="n"
       overflow="visible">
      <path
         d="m2.1875-5.9688v-9.3438h4.9219v1.5312c0 0.83594-0.007813 1.875-0.015625 3.125-0.011719 1.25-0.015625 2.0859-0.015625 2.5 0 1.2422 0.03125 2.1328 0.09375 2.6719 0.070313 0.54297 0.17969 0.93359 0.32812 1.1719 0.20703 0.32422 0.47266 0.57422 0.79688 0.75 0.32031 0.16797 0.69141 0.25 1.1094 0.25 1.0195 0 1.8203-0.39062 2.4062-1.1719 0.58203-0.78125 0.875-1.8672 0.875-3.2656v-7.5625h4.8906v15.312h-4.8906v-2.2188c-0.74219 0.89844-1.5234 1.5586-2.3438 1.9844-0.82422 0.41406-1.7344 0.625-2.7344 0.625-1.7617 0-3.1055-0.53906-4.0312-1.625-0.92969-1.082-1.3906-2.6602-1.3906-4.7344z"
         id="path1013" />
    </symbol>
    <symbol
       id="m"
       overflow="visible">
      <path
         d="m17.75-9.3281v9.3281h-4.9219v-7.1406c0-1.3203-0.03125-2.2344-0.09375-2.7344s-0.16797-0.86719-0.3125-1.1094c-0.1875-0.3125-0.44922-0.55469-0.78125-0.73438-0.32422-0.17578-0.69531-0.26562-1.1094-0.26562-1.0234 0-1.8242 0.39844-2.4062 1.1875-0.58594 0.78125-0.875 1.8711-0.875 3.2656v7.5312h-4.8906v-15.312h4.8906v2.2344c0.73828-0.88281 1.5195-1.5391 2.3438-1.9688 0.83203-0.42578 1.75-0.64062 2.75-0.64062 1.7695 0 3.1133 0.54688 4.0312 1.6406 0.91406 1.0859 1.375 2.6562 1.375 4.7188z"
         id="path1016" />
    </symbol>
    <symbol
       id="l"
       overflow="visible">
      <path
         d="m2.5781-20.406h8.7344c2.5938 0 4.582 0.57812 5.9688 1.7344 1.3945 1.1484 2.0938 2.7891 2.0938 4.9219 0 2.1367-0.69922 3.7812-2.0938 4.9375-1.3867 1.1562-3.375 1.7344-5.9688 1.7344h-3.4844v7.0781h-5.25zm5.25 3.8125v5.7031h2.9219c1.0195 0 1.8047-0.25 2.3594-0.75 0.5625-0.5 0.84375-1.2031 0.84375-2.1094 0-0.91406-0.28125-1.6172-0.84375-2.1094-0.55469-0.48828-1.3398-0.73438-2.3594-0.73438z"
         id="path1019" />
    </symbol>
    <symbol
       id="k"
       overflow="visible">
      <path
         d="m2.3594-15.312h4.8906v15.031c0 2.0508-0.49609 3.6172-1.4844 4.7031-0.98047 1.082-2.4062 1.625-4.2812 1.625h-2.4219v-3.2188h0.85938c0.92578 0 1.5625-0.21094 1.9062-0.625 0.35156-0.41797 0.53125-1.2461 0.53125-2.4844zm0-5.9688h4.8906v4h-4.8906z"
         id="path1022" />
    </symbol>
    <symbol
       id="j"
       overflow="visible">
      <path
         d="m14.719-14.828v3.9844c-0.65625-0.45703-1.3242-0.79688-2-1.0156-0.66797-0.21875-1.3594-0.32812-2.0781-0.32812-1.3672 0-2.4336 0.40234-3.2031 1.2031-0.76172 0.79297-1.1406 1.9062-1.1406 3.3438 0 1.4297 0.37891 2.543 1.1406 3.3438 0.76953 0.79297 1.8359 1.1875 3.2031 1.1875 0.75781 0 1.4844-0.10938 2.1719-0.32812 0.6875-0.22656 1.3203-0.56641 1.9062-1.0156v4c-0.76172 0.28125-1.5391 0.48828-2.3281 0.625-0.78125 0.14453-1.5742 0.21875-2.375 0.21875-2.7617 0-4.9219-0.70703-6.4844-2.125-1.5547-1.4141-2.3281-3.3828-2.3281-5.9062 0-2.5312 0.77344-4.5039 2.3281-5.9219 1.5625-1.4141 3.7227-2.125 6.4844-2.125 0.80078 0 1.5938 0.074219 2.375 0.21875 0.78125 0.13672 1.5547 0.35156 2.3281 0.64062z"
         id="path1025" />
    </symbol>
  </defs>
  <g
     id="g1106">
    <path
       d="m202.72 341c-26.363 37.266-31.277 77.227-11.113 97.387 20.152 20.156 60.113 15.254 97.387-11.117 7.7109 44.996 32.496 76.727 61.004 76.727s53.293-31.73 61.004-76.723c37.266 26.367 77.223 31.277 97.387 11.117 20.164-20.16 15.254-60.121-11.113-97.387 44.992-7.7109 76.723-32.492 76.723-61.008s-31.73-53.297-76.723-61.004c26.371-37.266 31.277-77.223 11.113-97.387-20.152-20.152-60.113-15.258-97.387 11.117-7.7109-44.996-32.496-76.727-61.004-76.727s-53.293 31.73-61.004 76.723c-37.266-26.363-77.223-31.273-97.387-11.117-20.164 20.164-15.258 60.121 11.113 97.387-44.992 7.7109-76.723 32.492-76.723 61.008s31.73 53.297 76.723 61.004zm10.801-112.23c2.0234-0.23047 3.7617-1.5391 4.543-3.4219 0.78125-1.8828 0.47656-4.043-0.79297-5.6367-27.75-34.797-35.207-72.727-17.746-90.188 17.457-17.465 55.395-9.9883 90.191 17.742 1.5859 1.2773 3.7578 1.5742 5.6328 0.79688 1.8828-0.78125 3.1953-2.5195 3.4219-4.543 4.9922-44.223 26.539-76.324 51.227-76.324s46.234 32.098 51.227 76.32c0.23047 2.0234 1.543 3.7656 3.4219 4.543 1.8984 0.78516 4.0469 0.47656 5.6328-0.79688 34.797-27.738 72.73-35.203 90.191-17.742 17.461 17.461 10.004 55.391-17.746 90.188-1.2695 1.5938-1.5742 3.75-0.79297 5.6367 0.78125 1.8828 2.5195 3.1914 4.543 3.4219 44.227 4.9961 76.324 26.539 76.324 51.23s-32.098 46.234-76.32 51.227c-2.0234 0.22656-3.7617 1.5391-4.543 3.4219-0.78125 1.8828-0.47656 4.043 0.79297 5.6328 27.742 34.805 35.203 72.734 17.746 90.191-17.457 17.469-55.387 9.9922-90.191-17.742-1.5859-1.2773-3.7578-1.5781-5.6328-0.79688-1.8828 0.78125-3.1953 2.5195-3.4219 4.543-4.9961 44.223-26.543 76.324-51.23 76.324s-46.234-32.098-51.227-76.32c-0.23047-2.0234-1.543-3.7656-3.4219-4.543-0.69531-0.28516-1.4219-0.42578-2.1445-0.42578-1.2461 0-2.4844 0.41797-3.4883 1.2227-34.805 27.734-72.734 35.203-90.191 17.742-17.457-17.461-9.9961-55.391 17.746-90.191 1.2695-1.5898 1.5742-3.75 0.79297-5.6328-0.78125-1.8828-2.5195-3.1953-4.543-3.4219-44.227-4.9961-76.324-26.539-76.324-51.23s32.098-46.234 76.324-51.227z"
       id="path1030" />
    <path
       d="m234.29 285.6h52.539c1.168 13.293 6.4336 25.418 14.551 35.102l-37.156 37.156c-2.1875 2.1875-2.1875 5.7305 0 7.918 1.0938 1.0938 2.5273 1.6406 3.9609 1.6406s2.8672-0.54688 3.9609-1.6406l37.156-37.156c9.6797 8.1172 21.809 13.383 35.102 14.555v52.539c0 3.0938 2.5039 5.6016 5.6016 5.6016 3.0938 0 5.6016-2.5078 5.6016-5.6016v-52.539c13.293-1.1719 25.422-6.4336 35.102-14.555l37.156 37.156c1.0938 1.0938 2.5273 1.6406 3.9609 1.6406s2.8672-0.54688 3.9609-1.6406c2.1875-2.1875 2.1875-5.7305 0-7.918l-37.156-37.156c8.1016-9.6836 13.367-21.809 14.539-35.102h52.539c3.0938 0 5.6016-2.5078 5.6016-5.6016s-2.5039-5.6016-5.6016-5.6016h-52.539c-1.168-13.293-6.4336-25.418-14.551-35.102l37.156-37.156c2.1875-2.1875 2.1875-5.7305 0-7.918s-5.7305-2.1875-7.918 0l-37.156 37.156c-9.6836-8.1172-21.809-13.383-35.102-14.551v-52.539c0-3.0938-2.5039-5.6016-5.6016-5.6016-3.0938 0-5.6016 2.5078-5.6016 5.6016v52.539c-13.293 1.1719-25.422 6.4336-35.102 14.555l-37.156-37.156c-2.1875-2.1875-5.7305-2.1875-7.918 0s-2.1875 5.7305 0 7.918l37.156 37.156c-8.1133 9.6797-13.379 21.805-14.551 35.098h-52.539c-3.0938 0-5.6016 2.5078-5.6016 5.6016 0.003906 3.0938 2.5078 5.6016 5.6055 5.6016zm115.71-57.859c28.816 0 52.254 23.441 52.254 52.258s-23.438 52.258-52.254 52.258-52.254-23.441-52.254-52.258 23.438-52.258 52.254-52.258z"
       id="path1032" />
  </g>
  <path
     style="fill:#e9afaf;stroke:none;stroke-width:1.2137"
     d="m 449.39269,651.75241 c -20.33834,-10.17487 -36.33843,-34.66687 -45.19223,-69.17764 -1.88383,-7.34287 -3.80851,-16.75776 -4.27708,-20.92199 -0.95417,-8.47988 -4.11821,-13.66838 -8.3352,-13.66838 -1.47802,0 -8.57936,4.05661 -15.78075,9.01471 -15.12694,10.41475 -27.9313,17.2794 -40.80804,21.8779 -43.46751,15.52301 -75.21922,3.24994 -80.15875,-30.98396 -3.25985,-22.5927 7.83886,-55.29542 28.59654,-84.26063 11.98347,-16.72171 10.84224,-21.14563 -6.10731,-23.67474 -60.67426,-9.05345 -101.80436,-42.94579 -92.25736,-76.02261 2.56162,-8.87506 5.54601,-13.83197 13.32132,-22.12596 16.91015,-18.03823 44.4719,-29.74554 84.66208,-35.96164 10.87214,-1.68156 10.9805,-7.85113 0.39772,-22.64468 -20.66475,-28.88706 -32.00742,-62.57332 -28.50658,-84.66094 7.47465,-47.15934 63.19336,-50.42007 123.3086,-7.2162 16.02808,11.51913 18.82614,10.22225 22.34507,-10.35684 7.27691,-42.55598 26.21619,-75.81839 49.33972,-86.653632 10.01669,-4.693631 23.43576,-4.693631 33.45246,0 23.12352,10.835242 42.06281,44.097652 49.33971,86.653632 3.5194,20.58175 6.30182,21.86974 22.32919,10.33621 60.03124,-43.19935 115.84962,-39.92386 123.32448,7.23683 3.50084,22.08762 -7.84182,55.77388 -28.50658,84.66094 -10.95995,15.32079 -10.56256,21.00532 1.58691,22.69972 43.07351,6.00719 78.31665,23.85597 92.16485,46.6766 22.02379,36.29333 -18.92683,77.1274 -87.62799,87.37857 -16.94957,2.52911 -18.09078,6.95303 -6.10732,23.67474 38.64333,53.92282 38.56855,107.56033 -0.16664,119.52441 -23.06306,7.12345 -55.45037,-1.45139 -87.67677,-23.21325 -6.28061,-4.24119 -12.83457,-8.66415 -14.56437,-9.82883 -7.82926,-5.27145 -12.30615,-1.00602 -14.50816,13.8229 -6.24096,42.02809 -25.13057,75.85356 -49.03957,87.81476 -7.36319,3.68364 -9.66885,4.25106 -17.27397,4.25106 -7.60513,0 -9.91079,-0.56742 -17.27398,-4.25106 z m 22.73562,-118.33238 c 2.31889,-2.31889 2.42739,-4.04566 2.42739,-38.63163 v -36.20423 l 9.40616,-2.0536 c 11.8619,-2.58976 20.87844,-6.29001 29.86959,-12.25799 l 7.05471,-4.68265 25.07924,25.00002 c 14.74266,14.69608 26.35148,25.30663 28.16602,25.74394 4.4896,1.08202 9.65705,-3.28637 9.65705,-8.16376 0,-3.24127 -3.38113,-7.15085 -25.37772,-29.34407 l -25.37771,-25.60456 3.04617,-4.24794 c 6.95024,-9.69221 14.93943,-30.27372 14.93943,-38.48647 v -2.77924 h 36.41092 c 34.79267,0 36.51881,-0.1079 38.83832,-2.4274 2.43371,-2.43371 3.19008,-7.84482 1.47384,-10.54392 -2.17314,-3.41765 -8.502,-4.02045 -42.21172,-4.02045 h -34.51136 v -2.75521 c 0,-8.62562 -8.83521,-30.56661 -15.95169,-39.61374 l -2.34476,-2.98088 25.53314,-25.63408 c 21.34165,-21.42602 25.53314,-26.20551 25.53314,-29.11508 0,-4.67306 -3.18278,-7.92008 -7.76337,-7.92008 -3.25702,0 -7.07931,3.33054 -29.27874,25.51196 l -25.53266,25.51195 -4.21326,-3.15682 c -9.81328,-7.35269 -21.20587,-11.91444 -39.10707,-15.65903 l -3.33767,-0.69817 -0.0186,-36.08438 c -0.01,-19.8464 -0.41984,-36.68531 -0.91027,-37.41981 -1.58512,-2.37393 -6.38094,-4.28102 -8.81938,-3.50708 -6.0196,1.91054 -6.02985,1.97972 -6.02985,40.71016 v 36.30111 l -3.33766,0.69817 c -17.78473,3.72022 -29.3069,8.31277 -38.89605,15.50333 l -4.00224,3.00115 -25.47557,-25.35628 c -22.2894,-22.18502 -25.95124,-25.35626 -29.27887,-25.35626 -4.94696,0 -8.24238,3.08224 -8.24238,7.7092 0,3.18392 3.50872,7.21448 25.50095,29.29364 l 25.50095,25.60176 -3.14477,4.19835 c -6.96632,9.30019 -15.0873,30.00237 -15.0873,38.46091 v 2.75521 H 347.8033 c -33.70972,0 -40.03858,0.6028 -42.21172,4.02045 -1.71624,2.6991 -0.95986,8.11021 1.47384,10.54392 2.31951,2.31951 4.04566,2.4274 38.83832,2.4274 h 36.41092 v 2.77924 c 0,8.52551 7.53766,27.91361 14.76456,37.97689 l 3.92523,5.4658 -25.7298,25.7507 c -20.63789,20.65465 -25.72982,26.39175 -25.72982,28.98994 0,4.37157 5.43155,8.68185 9.65705,7.66347 1.81451,-0.43731 13.42136,-11.04586 28.16043,-25.73836 l 25.07364,-24.99443 8.86769,5.67347 c 8.62442,5.51783 21.83631,10.52959 32.31575,12.25855 l 5.15821,0.85103 v 36.30424 c 0,34.68598 0.10814,36.41244 2.4274,38.73164 1.33507,1.33506 3.7928,2.42739 5.46164,2.42739 1.66883,0 4.12657,-1.09233 5.46164,-2.42739 z"
     id="path1770"
     transform="scale(0.75)" />
  <path
     style="fill:#de8787;stroke:none;stroke-width:1.2137"
     d="m 460.59818,654.85476 c -8.5718,-1.37235 -16.6437,-6.32737 -26.74433,-16.41728 -14.2754,-14.26024 -23.28506,-32.60467 -30.36412,-61.824 -1.63153,-6.73429 -2.97914,-13.60958 -2.99466,-15.27841 -0.0155,-1.66884 -1.08185,-5.35544 -2.36962,-8.19246 -3.44663,-7.59307 -6.31436,-7.09846 -23.80361,4.10553 -17.79642,11.40077 -31.89915,18.54681 -45.40983,23.00979 -9.20854,3.04186 -12.08876,3.41441 -26.82003,3.46919 l -16.50361,0.0613 -8.33151,-4.24794 c -13.83372,-7.05332 -20.67779,-18.39366 -22.01635,-36.48015 -1.59505,-21.55228 8.66896,-49.72554 29.0273,-79.67585 8.26268,-12.15569 9.49815,-17.64632 4.65171,-20.67296 -1.26135,-0.78773 -9.28909,-2.84871 -17.83942,-4.57996 -41.67531,-8.43829 -70.66,-25.31309 -82.49484,-48.02822 -2.91047,-5.5862 -3.43096,-8.0352 -3.46102,-16.28458 -0.0449,-12.32837 3.56849,-20.62719 13.52745,-31.06812 16.05203,-16.82888 36.83073,-26.63218 71.92065,-33.93187 9.63403,-2.00415 18.23611,-4.24119 19.11573,-4.97122 2.15704,-1.79018 2.01943,-7.62042 -0.28505,-12.07677 -1.0364,-2.00418 -5.1802,-8.66325 -9.20845,-14.79794 -19.9336,-30.35719 -29.10412,-62.43168 -23.66826,-82.7813 2.46183,-9.21607 6.01451,-15.27495 12.5304,-21.3698 9.00645,-8.42449 14.89874,-10.19477 33.7608,-10.14315 14.51744,0.0397 16.67049,0.35152 26.9476,3.90223 14.65462,5.06313 27.12199,11.42743 43.32427,22.11602 15.26584,10.07083 18.21421,11.42744 21.27529,9.7892 3.01442,-1.61327 4.41224,-5.60323 8.01547,-22.87944 6.84032,-32.79705 18.32762,-56.24251 35.04033,-71.51699 10.40494,-9.509534 16.17863,-11.848654 29.2462,-11.848654 13.06756,0 18.84125,2.33912 29.2462,11.848654 16.71271,15.27448 28.2,38.71994 35.04033,71.51699 3.60322,17.27621 5.00104,21.26617 8.01546,22.87944 3.08961,1.65351 6.43203,0.12036 20.90075,-9.58709 15.22606,-10.21558 28.87976,-17.19343 43.69881,-22.3327 10.39078,-3.60354 12.31192,-3.87561 27.55445,-3.90223 18.93618,-0.0331 23.62961,1.43286 33.38877,10.42853 6.25293,5.76376 9.84633,11.92995 12.29559,21.09899 5.5474,20.76721 -4.1457,53.58927 -25.09028,84.95882 -7.63643,11.43738 -9.6708,15.60617 -9.6708,19.81713 0,4.9441 1.89378,6.08359 13.50271,8.12464 44.27971,7.78514 77.02171,25.85516 89.19941,49.22836 2.91047,5.5862 3.43096,8.03519 3.46102,16.28457 0.0449,12.33481 -3.56245,20.61178 -13.56891,31.13307 -16.33476,17.17518 -40.30733,28.41233 -74.43018,34.88918 -15.61954,2.96473 -16.9076,3.43831 -18.09708,6.65381 -1.47629,3.99078 0.23016,7.92331 9.60081,22.12516 25.83216,39.1504 32.93536,72.90343 20.35327,96.71483 -8.20775,15.53303 -25.21391,22.47436 -49.00737,20.00312 -18.28905,-1.89955 -40.88104,-11.51725 -64.75881,-27.56868 -20.03537,-13.46845 -22.05318,-12.56807 -26.67105,11.90114 -10.40024,55.10896 -40.18461,91.33664 -71.03159,86.39802 z m 11.73798,-121.016 c 2.05568,-1.86036 2.21954,-4.67931 2.21954,-38.18468 v -36.17603 l 5.15821,-1.30151 c 14.97491,-3.77844 25.4721,-7.71724 32.26103,-12.10514 4.16321,-2.69081 7.87281,-4.89238 8.24354,-4.89238 0.37075,0 11.56807,10.56828 24.88295,23.48507 13.31486,12.91679 25.56969,24.21337 27.23294,25.10351 6.3471,3.39687 12.90384,-2.59513 11.02614,-10.07647 -0.43864,-1.74771 -11.29517,-13.86359 -24.945,-27.83862 l -24.16834,-24.74415 4.15609,-6.59154 c 5.52173,-8.75745 11.47143,-24.43483 12.29255,-32.39068 l 0.66243,-6.41829 h 36.44898 c 41.02157,0 40.88806,0.0279 40.88806,-8.53538 0,-7.83081 0.11214,-7.80816 -40.68005,-8.21767 l -36.67035,-0.36814 -0.66591,-6.45196 c -0.82424,-7.98628 -6.87253,-23.45177 -12.52471,-32.02578 l -4.24815,-6.44417 24.33887,-24.91874 c 13.38637,-13.7053 24.66911,-26.23454 25.07275,-27.84278 1.81135,-7.21701 -2.57073,-11.53373 -9.85298,-9.706 -1.69029,0.42424 -14.06734,11.58246 -27.85977,25.1163 l -24.81825,24.35292 -4.03084,-3.07449 c -6.48467,-4.9461 -19.2934,-10.40548 -31.14991,-13.27682 l -11.02033,-2.66885 -0.015,-36.68637 -0.015,-36.68636 -2.95579,-1.93672 c -4.15017,-2.71929 -9.38367,-1.84507 -11.25914,1.88076 -1.12002,2.22503 -1.53612,12.42109 -1.56022,38.23147 l -0.0329,35.19722 -11.02032,2.66885 c -11.87806,2.87656 -24.66714,8.33218 -31.18326,13.30227 l -4.06421,3.09992 -25.26684,-25.01016 c -23.29931,-23.06264 -25.60115,-25.01016 -29.56026,-25.01016 -5.24071,0 -8.1079,2.62424 -8.1079,7.42087 0,4.25161 2.90473,7.6394 30.65403,35.75194 l 19.25369,19.50572 -4.3451,6.58877 c -5.56864,8.44414 -11.62192,24.11672 -12.46328,32.26876 l -0.65575,6.35359 -36.67035,0.36814 c -40.61717,0.40776 -40.68004,0.42013 -40.68004,8.00678 0,8.83966 -0.43619,8.74627 40.84697,8.74627 h 36.82966 v 4.78245 c 0,8.01878 8.13946,27.86809 16.04106,39.11857 1.22248,1.74061 -2.05215,5.58018 -23.0764,27.05757 -13.757,14.0535 -24.83903,26.37575 -25.2718,28.10004 -1.75178,6.97966 4.90076,12.26075 11.19881,8.89013 1.63824,-0.87675 13.93345,-12.23989 27.32271,-25.25141 l 24.34411,-23.65731 3.22965,2.10601 c 7.42391,4.84105 23.22537,11.76902 31.14468,13.65502 4.67273,1.11281 9.17858,2.19793 10.013,2.41135 1.17094,0.29949 1.51712,8.61412 1.51712,36.43805 0,31.84171 0.23449,36.30913 2.00866,38.26956 2.5028,2.76557 8.60388,2.87698 11.54987,0.21088 z"
     id="path1883"
     transform="scale(0.75)" />
  <path
     style="fill:#f4d7d7;stroke:none;stroke-width:1.2137"
     d="m 455.98938,653.11368 c -14.42119,-5.37713 -29.90119,-21.17039 -39.39919,-40.19647 -5.13693,-10.2901 -10.69503,-27.69699 -14.30742,-44.80793 -1.7026,-8.06479 -3.90063,-15.89211 -4.8845,-17.39407 -3.1455,-4.80182 -7.34226,-3.47884 -27.92114,8.80184 -32.26932,19.25704 -45.12958,23.61761 -69.73902,23.64663 l -15.21639,0.0179 -8.45071,-5.18035 c -15.20676,-9.32186 -20.67784,-21.33536 -19.70764,-43.27436 0.44849,-10.14163 1.36188,-15.18051 4.3501,-23.99818 4.6387,-13.688 12.21404,-28.84099 22.00819,-44.02315 4.0772,-6.32017 8.05338,-13.62832 8.83596,-16.24033 1.30222,-4.34644 1.19538,-4.93332 -1.26012,-6.92166 -1.47564,-1.19491 -8.00093,-3.35498 -14.50065,-4.80019 -41.24396,-9.17056 -67.5771,-22.43887 -81.61655,-41.12363 -6.94528,-9.24329 -8.91319,-15.43574 -8.23496,-25.91309 0.74882,-11.56801 3.78997,-18.08357 13.07175,-28.00583 15.11721,-16.16035 32.01545,-24.58906 66.1758,-33.00798 28.47779,-7.01845 26.0945,-5.92752 26.0945,-11.94449 0,-4.22888 -1.46753,-7.47115 -8.43774,-18.64182 -10.84358,-17.37824 -17.3822,-30.44557 -22.21834,-44.403 -3.56882,-10.29987 -3.87265,-12.39801 -3.90222,-26.9476 -0.0278,-13.69228 0.31757,-16.53492 2.6129,-21.50335 3.5074,-7.59209 12.62587,-17.17442 19.62344,-20.6217 5.12608,-2.52532 7.32491,-2.78174 23.85208,-2.78155 16.1434,1.9e-4 19.09902,0.32687 26.0945,2.88419 14.01394,5.12304 24.5439,10.43233 41.11157,20.72877 8.92693,5.54788 17.80328,10.68062 19.72522,11.40607 5.89234,2.22411 7.75728,-1.03652 13.15037,-22.99193 8.90698,-36.26052 16.71981,-52.63402 32.70159,-68.53324 11.13889,-11.081347 15.97376,-13.529021 28.1348,-14.243331 15.22444,-0.894247 21.17738,1.519431 33.22548,13.471591 16.84256,16.70845 24.62567,32.84323 33.41748,69.27627 5.00181,20.72734 7.10864,24.72324 12.3427,23.40958 1.56568,-0.39296 9.94437,-5.20134 18.61931,-10.68528 16.08338,-10.16726 28.99228,-16.71387 43.0808,-21.84799 7.02795,-2.56111 9.94238,-2.87491 26.70134,-2.87491 18.21682,0 18.9874,0.10294 24.34376,3.25193 7.1314,4.19252 15.22016,13.00295 18.54723,20.20196 2.25121,4.87113 2.61899,7.82355 2.5967,20.84607 -0.0223,13.05405 -0.48134,16.6109 -3.28913,25.48765 -4.2337,13.38474 -11.78868,28.76715 -22.59636,46.00766 -9.07248,14.47247 -10.92235,21.014 -6.88911,24.36129 0.9844,0.81698 7.94799,2.78183 15.47464,4.36635 35.74633,7.52535 59.13462,18.56992 75.37125,35.59233 3.84289,4.02888 8.39688,10.40462 10.11995,14.16832 2.73268,5.96895 3.06269,8.02806 2.58344,16.11939 -0.76858,12.9762 -3.85099,19.1454 -15.21638,30.4545 -17.78815,17.70006 -39.13284,27.02275 -80.74944,35.26885 -8.04775,1.59462 -11.23325,4.88134 -9.89578,10.21022 0.44107,1.75737 4.55456,9.18529 9.14107,16.50651 17.84386,28.48317 25.37516,47.78898 26.30103,67.42042 1.2803,27.14671 -9.86609,43.77947 -32.56171,48.58889 -21.99832,4.66167 -47.76103,-2.9044 -81.24822,-23.86123 -17.98399,-11.25467 -20.52356,-12.34614 -24.3211,-10.45286 -3.19672,1.59375 -4.41537,5.15583 -10.24284,29.93943 -10.37486,44.1232 -34.35942,74.33579 -60.34271,76.0118 -4.78825,0.30886 -9.37515,-0.14946 -12.25958,-1.22495 z m 16.65908,-119.1735 c 1.64824,-1.64823 1.90724,-6.80245 1.90724,-37.95369 v -36.04645 l 11.2267,-2.9109 c 6.17469,-1.601 16.55269,-5.61604 23.06223,-8.92232 l 11.83553,-6.01143 20.9343,19.8852 c 29.27131,27.8044 30.66102,28.96003 34.8265,28.96003 4.1951,0 7.34751,-3.74287 7.34751,-8.72371 0,-4.01769 -1.7582,-6.13221 -28.23892,-33.96179 l -20.40633,-21.44578 3.60599,-5.86241 c 4.50646,-7.32634 10.61141,-22.50195 11.63519,-28.92266 0.42575,-2.67013 1.02612,-6.08365 1.33414,-7.58561 l 0.56004,-2.73081 h 35.09509 c 19.86563,0 36.44609,-0.51365 38.20835,-1.18366 2.69117,-1.02319 3.11326,-1.90806 3.11326,-6.52672 0,-3.48744 -0.69657,-5.92158 -2.00565,-7.00881 -1.55838,-1.29425 -9.88145,-1.80268 -37.3212,-2.27985 -19.42355,-0.33777 -35.99825,-1.0527 -36.83267,-1.58875 -0.83442,-0.53604 -1.51712,-2.59812 -1.51712,-4.58238 0,-6.58378 -8.59336,-27.7802 -14.78605,-36.47136 -1.2074,-1.69453 2.22663,-5.8359 23.06865,-27.82019 22.59493,-23.83328 24.48723,-26.16958 24.48723,-30.23277 0,-5.49377 -1.75905,-7.31635 -7.06127,-7.31635 -4.93011,0 -5.27447,0.28135 -34.46051,28.1556 l -21.49577,20.52961 -7.91281,-4.77244 c -7.21535,-4.35177 -19.78239,-9.04482 -33.1442,-12.37739 l -5.15821,-1.28651 V 250.0176 c 0,-35.26776 -0.10559,-36.98479 -2.34761,-38.18469 -4.06752,-2.17688 -9.48039,-1.50101 -11.54109,1.44105 -1.60545,2.29209 -1.88937,8.0303 -1.88937,38.18468 v 35.48724 l -5.15821,1.28651 c -13.38661,3.33876 -25.93579,8.02981 -33.198,12.40985 -4.38164,2.64269 -8.15896,4.62285 -8.39404,4.40036 -0.23508,-0.2225 -7.42623,-7.23279 -15.98032,-15.57843 -31.99434,-31.21464 -33.79275,-32.76716 -37.95675,-32.76716 -5.97031,0 -8.54662,1.93573 -8.53745,6.41461 0.0109,5.42978 2.18951,8.30733 20.65464,27.2839 8.92137,9.16847 18.90553,19.47901 22.18701,22.91232 l 5.96636,6.2424 -4.20153,7.16881 c -5.75873,9.82578 -10.61845,22.3615 -11.47606,29.60268 -0.39331,3.32082 -1.31983,6.42826 -2.05896,6.90541 -0.73913,0.47715 -17.23587,1.1439 -36.65942,1.48167 -27.43974,0.47717 -35.76282,0.9856 -37.32119,2.27985 -1.30909,1.08723 -2.00565,3.52137 -2.00565,7.00881 0,4.61866 0.42209,5.50353 3.11325,6.52672 1.76686,0.67175 18.56336,1.18366 38.83832,1.18366 h 35.72506 v 5.27163 c 0,6.80123 3.46969,16.77182 10.31314,29.63619 3.00571,5.65015 5.46493,10.45469 5.46493,10.67676 0,0.22206 -10.92328,11.9869 -24.27395,26.14408 -20.50635,21.74514 -24.27395,26.30877 -24.27395,29.40269 0,4.72588 3.10704,8.10142 7.45705,8.10142 4.07163,0 9.57222,-4.60597 37.19846,-31.14849 l 19.15612,-18.40467 2.98799,2.30161 c 4.03181,3.10563 26.98041,12.65482 34.66519,14.4246 l 6.18955,1.42542 0.78921,14.67762 c 0.43406,8.07269 0.7892,24.3838 0.7892,36.24692 0,24.06156 0.41094,25.38379 7.88904,25.38379 2.241,0 4.93282,-0.85825 5.98179,-1.90724 z"
     id="path2033"
     transform="scale(0.75)" />
  <path
     style="fill:#a0a0a0;stroke:none;stroke-width:1.2137"
     d="m 451.01133,440.45816 c -24.14713,-5.84274 -44.668,-26.03509 -51.12795,-50.30946 -2.26533,-8.51236 -2.25931,-25.38361 0.0121,-33.91932 6.63968,-24.95123 27.92152,-45.01871 53.42051,-50.37229 10.68223,-2.24276 16.01913,-2.24276 26.70135,0 25.49899,5.35358 46.78084,25.42106 53.42052,50.37229 2.27141,8.53571 2.27741,25.40696 0.0121,33.91932 -6.53708,24.56417 -27.05439,44.56039 -51.67626,50.36381 -9.60443,2.26378 -21.26703,2.24318 -30.76236,-0.0544 z"
     id="path2109"
     transform="scale(0.75)" />
  <path
     style="fill:#f4d7d7;stroke:none;stroke-width:1.2137"
     d="m 449.1091,439.23633 c -17.80339,-4.7846 -35.12458,-19.6468 -43.96162,-37.72063 l -5.23417,-10.70512 v -17.59862 -17.59861 l 5.2647,-10.76819 c 11.67999,-23.88976 36.07421,-39.60025 61.48866,-39.60025 25.3395,0 49.60778,15.5856 61.43749,39.45647 5.24433,10.58237 5.3217,10.92119 5.74998,25.17689 0.27364,9.10888 -0.12723,16.54543 -1.08452,20.11863 -6.10075,22.77167 -26.73422,43.26081 -49.72722,49.3794 -8.44477,2.24721 -25.30951,2.17764 -33.9333,-0.13997 z"
     id="path2148"
     transform="scale(0.75)" />
  <path
     style="fill:#a0a0a0;stroke:none;stroke-width:1.2137"
     d="m 451.49545,650.38473 c -8.71313,-4.40359 -23.47581,-19.2858 -30.12319,-30.36709 -6.4714,-10.78791 -12.38982,-27.17351 -17.85618,-49.43625 -2.31406,-9.42444 -4.84634,-18.36422 -5.62729,-19.86617 -2.43595,-4.68491 -7.58113,-3.51638 -22.88735,5.19801 -22.41955,12.76426 -42.34336,22.1984 -50.88374,24.09402 -4.37223,0.97046 -14.78056,2.13974 -23.12962,2.59841 l -15.1801,0.83395 -9.29633,-6.21776 c -16.03953,-10.7279 -19.97121,-19.85827 -18.92601,-43.95105 0.50307,-11.59632 1.21835,-15.48462 4.46513,-24.27278 4.71118,-12.75187 10.7618,-24.71985 21.39993,-42.32849 4.74754,-7.85829 8.32235,-15.25235 8.68644,-17.96679 0.59066,-4.40375 0.40668,-4.7038 -4.06004,-6.62124 -2.57331,-1.10466 -12.14074,-3.93098 -21.26095,-6.28074 -24.3198,-6.26581 -41.80457,-13.44023 -55.17607,-22.64007 -8.23437,-5.66539 -17.93207,-16.22995 -21.6578,-23.59372 -3.09899,-6.12503 -3.32604,-7.51 -2.83156,-17.27205 0.69611,-13.74267 3.21919,-18.66693 16.00967,-31.24594 15.02997,-14.78146 28.97554,-21.30529 64.81675,-30.32174 24.26713,-6.10479 23.31025,-5.61821 23.31025,-11.85359 0,-3.98311 -1.31762,-7.50805 -5.5688,-14.89783 -18.48858,-32.13858 -21.08511,-37.49985 -25.9676,-53.61756 -3.48004,-11.48807 -3.2298,-35.79722 0.44464,-43.19318 3.59248,-7.231 12.35733,-16.15987 19.22002,-19.57969 5.84234,-2.91136 7.45329,-3.12939 23.12274,-3.12939 14.75333,0 17.96604,0.37703 25.89599,3.03903 11.50055,3.8606 22.21728,9.25506 43.7019,21.99811 9.42136,5.58805 18.50738,10.16009 20.19113,10.16009 4.04713,0 6.0689,-4.37297 11.43105,-24.72481 10.04651,-38.13122 18.65063,-55.081 35.77674,-70.47884 9.42417,-8.473132 12.18805,-9.575955 25.4395,-10.150669 13.92401,-0.603884 18.84679,1.107595 28.64019,9.957209 16.07734,14.52799 25.39447,32.22509 34.33306,65.21278 3.32272,12.26241 6.86017,24.07033 7.86102,26.23981 2.81059,6.09234 6.38859,5.30529 23.47506,-5.16379 18.50763,-11.33984 33.90314,-19.11838 45.63308,-23.05599 7.95531,-2.67051 11.10278,-3.03293 26.33978,-3.03293 20.537,0 24.26723,1.27687 33.61726,11.50729 9.73756,10.65445 10.54848,13.17539 10.54848,32.79267 0,14.75854 -0.3824,18.10838 -2.90954,25.48765 -4.03479,11.78162 -10.66467,25.36641 -20.73153,42.47941 -4.71219,8.0104 -9.12393,16.6102 -9.80388,19.11066 -2.12254,7.80557 -0.96415,8.60565 19.76024,13.64817 22.19207,5.39962 39.9407,11.83852 52.08253,18.89464 11.06049,6.4277 25.08139,20.1872 29.53547,28.98483 3.0549,6.03399 3.29747,7.49764 2.81598,16.99176 -0.68084,13.42495 -3.30412,18.57718 -15.48593,30.41502 -15.9114,15.46211 -31.41208,22.97637 -64.14467,31.09538 -11.66522,2.89345 -22.2219,6.17702 -23.45928,7.29683 -1.23738,1.11982 -2.24977,3.41195 -2.24977,5.09362 0,1.68169 4.96463,11.44525 11.03251,21.69682 19.30143,32.60938 24.73388,48.61754 23.97936,70.66164 -0.40056,11.70259 -0.82257,13.6994 -4.45451,21.07691 -7.53232,15.3003 -21.9834,22.3109 -43.72979,21.21448 -19.11043,-0.96353 -34.70907,-7.01211 -65.13549,-25.25719 -8.69137,-5.21175 -17.26597,-9.8432 -19.05466,-10.29214 -5.85004,-1.46827 -8.51946,2.88714 -13.05785,21.30509 -8.91195,36.16699 -18.6691,56.42531 -34.26318,71.13908 -9.61592,9.07309 -17.7144,12.8483 -28.87512,13.4605 -8.10146,0.44438 -9.83701,0.12821 -15.77807,-2.87439 z m 21.80386,-116.88491 c 0.78329,-1.4636 1.25639,-15.61376 1.25639,-37.57784 v -35.23024 l 5.15822,-1.36975 c 9.97023,-2.64756 19.82532,-6.26619 30.3235,-11.13429 l 10.60092,-4.91575 12.77959,12.00078 c 33.41458,31.37825 38.49971,35.66789 42.28236,35.66789 5.12238,0 8.08818,-3.09945 8.08818,-8.45262 0,-4.79489 -3.99129,-9.65302 -34.30027,-41.74959 l -13.06055,-13.83086 4.84193,-9.46788 c 5.49475,-10.7444 9.24716,-21.52526 10.43033,-29.96676 l 0.80805,-5.76506 h 36.04113 c 27.41347,0 36.55098,-0.3728 38.17092,-1.55734 1.63934,-1.1987 2.0421,-2.93535 1.74909,-7.54163 -0.36057,-5.66837 -0.58864,-6.02654 -4.31976,-6.78416 -2.16649,-0.43991 -17.73216,-1.16788 -34.59038,-1.61771 -16.85821,-0.44982 -32.12211,-1.10203 -33.91977,-1.44934 -2.8398,-0.54864 -3.44741,-1.49338 -4.63275,-7.2031 -1.71189,-8.24614 -6.09708,-19.51322 -10.92206,-28.06262 l -3.7158,-6.58402 2.5719,-3.28015 c 1.41454,-1.80408 10.94595,-12.29185 21.18089,-23.30615 24.43134,-26.2917 23.88853,-25.55425 23.43453,-31.83765 l -0.37428,-5.18012 -5.4883,-0.35863 c -5.10035,-0.33326 -6.00981,0.0956 -12.86583,6.06849 -4.05764,3.53491 -15.4039,14.07341 -25.21393,23.41888 -9.81001,9.34547 -18.31711,17.16045 -18.90465,17.36664 -0.58755,0.20618 -3.35142,-1.06642 -6.14194,-2.82799 -6.32635,-3.99365 -23.77672,-10.74652 -33.03251,-12.78276 l -6.97876,-1.53532 v -36.58189 c 0,-26.83433 -0.38808,-36.96998 -1.45644,-38.03834 -2.09047,-2.09047 -10.16636,-1.79722 -12.41439,0.45081 -1.64888,1.64888 -1.90724,6.8277 -1.90724,38.23147 0,30.17805 -0.28507,36.32423 -1.68477,36.32423 -4.49661,0 -24.37133,6.80827 -33.9476,11.62906 l -10.75157,5.41246 -19.91324,-19.14061 c -26.79102,-25.75157 -29.92439,-28.24335 -35.51548,-28.24335 -5.65703,0 -7.42011,1.73607 -7.42011,7.30646 0,5.28286 2.6991,8.75293 23.58205,30.31816 8.08018,8.34417 16.80445,17.4552 19.38727,20.24674 l 4.69604,5.07554 -5.47502,10.70253 c -5.56405,10.87657 -8.61741,19.24542 -9.9686,27.32248 -0.46051,2.75287 -1.55335,4.71019 -2.83174,5.07176 -1.14499,0.32385 -16.39297,0.96454 -33.8844,1.42375 -17.49143,0.45922 -33.60327,1.2006 -35.80408,1.64754 -3.80401,0.77249 -4.02026,1.10791 -4.38215,6.79691 -0.29301,4.60628 0.10976,6.34293 1.7491,7.54163 1.62222,1.18621 10.89612,1.55734 38.91557,1.55734 h 36.7858 v 5.87848 c 0,7.07214 2.80609,15.5974 9.54154,28.98837 2.76256,5.49234 5.02282,10.3076 5.02282,10.70057 0,0.39297 -7.79264,9.00717 -17.31698,19.14266 -27.66759,29.44296 -30.01722,32.32267 -30.01722,36.78924 0,8.1045 7.27011,10.1367 15.29254,4.2747 2.60341,-1.9023 14.56442,-12.7789 26.58003,-24.17021 l 21.84655,-20.71148 3.64109,2.2285 c 5.32443,3.25878 29.60587,12.99797 34.82166,13.96684 4.36368,0.81058 4.4955,0.99326 5.11057,7.08241 0.34725,3.4377 0.95613,19.58728 1.35309,35.88796 0.39694,16.30067 1.25684,30.63747 1.91088,31.85956 1.73052,3.23352 11.44979,3.141 13.19804,-0.12563 z"
     id="path1363"
     transform="scale(0.75)" />
  <path
     style="fill:#c83737;stroke:none;stroke-width:1.2137"
     d="m 450.34324,648.61101 c -8.60753,-5.0187 -22.51803,-19.34712 -28.30303,-29.15333 -6.06635,-10.28314 -11.08976,-23.55174 -16.22724,-42.86186 -2.32188,-8.72719 -5.14867,-18.59842 -6.28177,-21.93609 -1.90162,-5.60149 -2.38649,-6.09406 -6.30067,-6.40084 -3.12148,-0.24465 -6.96288,1.11646 -14.55693,5.15791 -45.47123,24.19916 -52.04016,26.65946 -75.80084,28.3901 l -16.93652,1.23361 -7.33743,-5.24332 c -9.38784,-6.70853 -13.61331,-10.98097 -16.8656,-17.05306 -2.35324,-4.39356 -2.60522,-6.71359 -2.57218,-23.68301 0.0353,-18.14991 0.17192,-19.16676 3.8792,-28.87867 3.80099,-9.95737 9.40342,-20.97997 22.64327,-44.54987 4.45315,-7.92759 6.81758,-13.52637 6.81758,-16.14342 0,-4.92317 -0.96655,-5.38258 -26.1562,-12.43208 -32.62916,-9.13148 -48.70966,-16.79076 -62.27924,-29.6641 -4.91605,-4.66381 -10.5091,-11.21818 -12.42901,-14.56528 -3.03109,-5.28427 -3.49225,-7.34561 -3.50214,-15.65438 -0.0146,-12.30691 1.53093,-17.2135 8.03102,-25.49529 14.69907,-18.72814 33.22479,-28.55412 72.57193,-38.49193 7.95731,-2.00976 16.3539,-4.44215 18.65911,-5.40533 4.14503,-1.7319 4.18543,-1.82186 3.66057,-8.15093 -0.42628,-5.14037 -2.21559,-9.37942 -9.09307,-21.54229 -17.28481,-30.56831 -21.81764,-41.83465 -23.37638,-58.10193 -2.01839,-21.06423 1.42743,-33.45672 11.94501,-42.95871 9.45894,-8.54559 13.25677,-9.70476 31.66249,-9.66404 9.02023,0.02 18.85815,0.69218 21.86205,1.49384 9.09734,2.42783 22.61082,8.87763 44.28328,21.13579 12.16326,6.87967 21.97874,11.66073 23.93936,11.66073 4.43135,0 5.74855,-2.75805 12.57566,-26.33165 11.17076,-38.57203 16.27993,-48.86579 32.20995,-64.89536 12.06202,-12.137391 14.41396,-13.13975 30.81489,-13.132812 9.84616,0.0042 11.53258,0.354093 17.10226,3.548688 9.17195,5.260734 21.18395,18.927104 27.56459,31.360954 6.58377,12.8297 9.89741,21.97235 16.59345,45.78308 2.81587,10.013 5.89903,19.43433 6.85151,20.93628 3.37576,5.32327 6.63656,4.16108 35.72999,-12.73458 13.9853,-8.1218 28.99754,-15.04899 37.55396,-17.32875 8.54506,-2.27674 37.18723,-1.91018 43.1007,0.55159 5.94775,2.47604 14.26177,10.38171 18.59132,17.67819 2.9574,4.98405 3.27889,6.78551 3.6765,20.60133 0.26472,9.19789 -0.15045,17.77191 -1.05784,21.84656 -2.20151,9.886 -9.37875,25.75021 -21.26728,47.00815 -10.61036,18.97245 -13.23407,26.53887 -10.09601,29.11553 1.66544,1.36748 8.84049,3.60284 30.77172,9.58683 14.99854,4.09239 32.14586,10.87672 41.36786,16.3672 8.72482,5.19447 23.23632,19.29256 27.70127,26.91211 3.16131,5.39485 3.35116,6.49415 2.93432,16.99177 -0.56299,14.1787 -2.48718,18.2778 -13.87877,29.56595 -15.22743,15.08916 -31.35335,23.2771 -61.83012,31.3943 -22.6482,6.03212 -27.17365,7.81874 -27.98414,11.04794 -1.11513,4.44305 -0.0467,7.18873 8.69863,22.35383 10.59842,18.37853 16.47791,30.15546 20.60136,41.26572 2.91998,7.86759 3.45334,11.36078 3.93071,25.74397 0.54637,16.46216 0.51333,16.72453 -3.06979,24.38148 -4.3225,9.23698 -9.94986,15.18031 -18.01803,19.02975 -8.88005,4.23679 -27.90847,4.87247 -41.81206,1.39679 -10.80856,-2.70196 -29.50023,-11.47118 -53.30457,-25.00789 -7.65954,-4.35571 -15.12965,-7.91948 -16.60025,-7.91948 -3.57786,0 -7.19961,4.86273 -9.32959,12.52635 -14.04876,50.54721 -20.66043,64.80149 -37.12977,80.0492 -10.1497,9.39683 -16.66125,12.29977 -28.60562,12.75278 -9.0431,0.34298 -10.16357,0.10353 -16.32343,-3.48802 z m 22.68855,-114.22347 c 1.15961,-0.96239 1.52611,-9.86097 1.53311,-37.22362 l 0.01,-35.95889 9.4472,-2.6301 c 5.19597,-1.44654 14.61316,-4.91309 20.9271,-7.70343 6.31393,-2.79035 12.5722,-5.30789 13.90727,-5.59454 1.79404,-0.38519 6.70257,3.4853 18.81231,14.83395 27.4567,25.73151 33.79519,30.82971 38.32946,30.82971 5.2161,0 7.79052,-2.75813 7.79052,-8.34643 0,-5.98274 -4.10534,-10.98144 -41.68168,-50.75197 l -4.8081,-5.08887 5.00179,-10.28345 c 4.42894,-9.10568 8.56011,-21.4308 10.53292,-31.42439 l 0.65888,-3.33766 h 36.14506 c 26.49457,0 36.53392,-0.38886 37.6015,-1.45644 0.80104,-0.80104 1.45644,-4.08974 1.45644,-7.30821 0,-4.91803 -0.43575,-6.03558 -2.73082,-7.00376 -1.50195,-0.63359 -17.99461,-1.70492 -36.65035,-2.38072 -24.49585,-0.88735 -34.31034,-1.65595 -35.32626,-2.7665 -0.7737,-0.84577 -2.34572,-5.08784 -3.49337,-9.42681 -1.14765,-4.33897 -4.52298,-12.95689 -7.50075,-19.15092 -4.88497,-10.16121 -5.24592,-11.50202 -3.69319,-13.71885 0.9465,-1.35132 9.84154,-11.26707 19.76676,-22.03499 24.84748,-26.95717 24.72117,-26.78415 24.72117,-33.86204 v -5.9016 h -5.9595 c -5.09686,0 -6.80977,0.67939 -11.83355,4.69355 -5.04473,4.03091 -21.93749,19.59442 -40.11307,36.95666 l -5.11029,4.88161 -11.88148,-5.57907 c -9.88763,-4.64284 -17.30459,-7.20648 -32.81776,-11.34327 -1.1702,-0.31205 -1.51712,-8.57803 -1.51712,-36.14746 0,-19.6586 -0.33151,-36.60682 -0.7367,-37.66271 -1.15333,-3.00554 -12.1298,-2.66491 -13.78497,0.42779 -0.69102,1.29118 -1.2564,9.12333 -1.2564,17.40478 0,26.78408 -1.50935,55.69924 -2.92587,56.05166 -9.22507,2.29514 -21.77838,6.81436 -31.41747,11.31037 l -11.88992,5.54586 -6.92239,-6.70255 c -21.32963,-20.65234 -38.85243,-36.64097 -41.86304,-38.19782 -1.89603,-0.98047 -5.70136,-1.60706 -8.51725,-1.40243 -5.0749,0.36879 -5.09111,0.38553 -5.46948,5.65685 -0.51292,7.1456 1.40406,9.76737 25.73668,35.19929 11.08607,11.58691 20.15648,21.48127 20.15648,21.98748 0,0.5062 -2.42258,6.04551 -5.38352,12.30957 -2.96092,6.26407 -6.49774,15.42668 -7.85961,20.36138 -1.36185,4.93469 -2.68647,9.18254 -2.94359,9.43967 -0.25712,0.25712 -16.24442,1.05177 -35.52733,1.76589 -19.28291,0.71413 -36.01686,1.81059 -37.18655,2.43659 -2.52964,1.35382 -3.02441,11.80657 -0.67027,14.16071 1.06974,1.06974 11.38178,1.45644 38.83831,1.45644 h 37.38189 v 6.48533 c 0,7.49377 2.66297,15.92856 9.00237,28.51439 2.46702,4.89786 4.31808,9.61435 4.11347,10.48108 -0.20462,0.86672 -8.9277,10.78655 -19.38464,22.04405 -24.96071,26.87169 -26.50104,28.86821 -26.50104,34.34988 0,5.45265 1.74759,7.35804 6.74871,7.35804 5.23363,0 10.6935,-3.95124 28.30444,-20.48359 8.26494,-7.75874 18.18945,-16.98108 22.05449,-20.49412 l 7.02733,-6.38732 4.04002,2.3734 c 4.95082,2.90846 31.70111,13.43549 34.14101,13.43549 0.97062,0 2.35121,0.70662 3.06796,1.57026 0.7903,0.95224 1.80927,15.33657 2.58901,36.54785 0.70718,19.23768 1.60892,35.50041 2.00385,36.13942 2.03753,3.29679 9.9124,3.73136 13.51011,0.74553 z"
     id="path1402"
     transform="scale(0.75)" />
  <path
     style="fill:#c83737;stroke:none;stroke-width:1.2137"
     d="m 446.03381,437.44406 c -16.97055,-5.96615 -31.57563,-19.4651 -40.70468,-37.62187 l -4.80897,-9.56458 v -17.04565 -17.04564 l 4.74403,-9.43542 c 9.30374,-18.50421 23.13338,-31.05731 41.09858,-37.30499 14.45613,-5.02734 32.20425,-4.14434 46.65522,2.3212 14.75396,6.6011 26.90079,18.6123 35.15606,34.76351 3.91085,7.65145 4.04431,8.39896 4.4317,24.82144 0.37396,15.85314 0.19951,17.43902 -2.73675,24.88079 -6.4367,16.31342 -20.93925,31.27172 -38.0345,39.22974 -7.56894,3.52341 -9.30264,3.83409 -23.34729,4.18382 -12.95711,0.32264 -16.23398,0.004 -22.4534,-2.18235 z"
     id="path1478"
     transform="scale(0.75)" />
  <path
     style="fill:#a02c2c;stroke:none;stroke-width:1.2137"
     d="m 450.24624,647.79832 c -7.21064,-4.64154 -20.58842,-18.22355 -26.04171,-26.43926 -6.44254,-9.7061 -10.87963,-21.07043 -18.34079,-46.97463 -3.69166,-12.817 -7.29032,-24.00032 -7.99701,-24.85183 -3.03425,-3.65606 -9.43539,-1.56539 -35.8745,11.71688 -14.52268,7.2958 -30.22803,14.42082 -34.90077,15.8334 -4.67273,1.41257 -15.48162,3.20184 -24.01975,3.97617 -18.15139,1.64614 -18.94504,1.3967 -31.39067,-9.86595 -10.79317,-9.76726 -11.89087,-12.88519 -11.92313,-33.86685 -0.0221,-14.39543 0.40143,-18.60423 2.49893,-24.83056 2.87658,-8.53899 11.32897,-25.8123 22.02763,-45.0157 7.67208,-13.77087 9.97315,-22.11856 6.81871,-24.7365 -0.91077,-0.75588 -11.63889,-4.4001 -23.84027,-8.09829 -38.73376,-11.74003 -52.84624,-18.9685 -66.83217,-34.23168 -9.90348,-10.80789 -11.37634,-14.32017 -11.27211,-26.88018 0.10557,-12.72203 2.44031,-18.09388 12.57085,-28.92344 12.71701,-13.59454 26.54698,-20.99134 54.36068,-29.07419 8.34417,-2.42488 19.67707,-5.74994 25.18422,-7.38905 l 10.01301,-2.98017 v -6.0734 c 0,-5.19124 -1.27291,-8.49099 -8.76355,-22.71763 -12.04513,-22.87679 -17.33516,-33.83263 -19.6197,-40.63314 -5.07651,-15.11145 -5.48822,-37.18017 -0.88767,-47.58048 3.18711,-7.20498 11.26425,-15.70548 18.14313,-19.09409 5.19452,-2.55887 7.18151,-2.78055 23.87161,-2.66321 21.94917,0.1543 24.7587,1.03832 55.22323,17.37606 33.63569,18.03839 34.72815,18.41519 38.10224,13.14181 0.96099,-1.50195 5.0931,-13.6541 9.18245,-27.00477 11.00742,-35.93645 19.05052,-50.87864 35.01818,-65.05558 8.20028,-7.280649 12.03609,-8.551693 25.9067,-8.584517 11.43034,-0.02705 12.24039,0.146958 18.05555,3.878537 7.31748,4.69562 18.02631,16.25781 23.69939,25.58795 5.80773,9.5516 12.73836,27.54371 19.35846,50.25516 3.11533,10.68773 6.40876,20.4504 7.31872,21.69484 3.41027,4.66384 7.87927,3.05009 38.18276,-13.78773 9.67924,-5.37817 21.96793,-11.5263 27.30819,-13.66252 9.46448,-3.78598 10.18448,-3.88391 28.52189,-3.8793 21.9236,0.005 24.98904,1.01955 34.26263,11.33402 8.739,9.71988 9.43048,12.01723 9.43048,31.33173 0,21.37496 -1.18664,25.07932 -19.33243,60.35028 -9.47632,18.41964 -13.4374,27.3554 -13.4374,30.31324 0,2.30681 0.44049,4.46644 0.97885,4.79916 0.53837,0.33274 10.50586,3.40374 22.14998,6.82448 24.57164,7.21849 40.22528,13.16928 49.8517,18.95134 8.15447,4.89793 22.53587,18.64298 27.1443,25.94322 3.14279,4.9785 3.2774,5.81761 2.80514,17.48663 -0.59788,14.77317 -1.78835,17.40088 -12.9223,28.52364 -15.04662,15.0315 -29.50628,22.33541 -63.98986,32.32277 -10.46979,3.03232 -20.60688,6.32567 -22.52689,7.31853 -6.18045,3.19604 -5.01836,7.87156 7.8025,31.39257 11.53513,21.16222 12.27161,22.64123 17.5696,35.28314 2.67902,6.3926 3.11936,9.52001 3.60464,25.60133 0.53643,17.7768 0.45933,18.51674 -2.60428,24.99268 -4.22863,8.9386 -11.75997,16.17365 -20.09381,19.30332 -5.8486,2.19638 -8.73266,2.46495 -21.90654,2.04 -20.34029,-0.65614 -27.41126,-3.34393 -72.64578,-27.61397 -6.24474,-3.35055 -12.64089,-6.09189 -14.21367,-6.09189 -4.46824,0 -7.53814,4.42604 -10.88791,15.69768 -14.10997,47.47869 -19.31552,58.91655 -33.20701,72.96382 -12.26773,12.40531 -17.13214,14.82049 -31.07424,15.42838 -10.39203,0.45311 -11.19063,0.30418 -16.42043,-3.06226 z m 23.2521,-113.37599 c 0.5611,-0.88504 1.02856,-17.53125 1.03878,-36.99159 l 0.0186,-35.38243 8.79931,-2.6619 c 4.83962,-1.46404 14.76105,-5.11375 22.04761,-8.11046 10.4461,-4.2961 13.78339,-5.19388 15.77807,-4.24453 1.39137,0.66221 10.72222,8.71602 20.73522,17.89737 25.46497,23.3499 28.99112,26.01183 34.45663,26.01183 5.79537,0 7.41593,-1.73721 7.41593,-7.94967 0,-6.24385 -2.38835,-9.66932 -20.12081,-28.85815 -7.29073,-7.88952 -15.90395,-17.30247 -19.14049,-20.91767 l -5.88464,-6.57309 5.62463,-13.32545 c 3.09354,-7.32898 6.55781,-17.43148 7.69838,-22.44998 l 2.07375,-9.12454 37.02457,-0.32053 37.02457,-0.32054 0.3582,-6.78469 c 0.24129,-4.57022 -0.17359,-7.22603 -1.27108,-8.13687 -0.99115,-0.82257 -15.25889,-2.04985 -36.42808,-3.13343 -19.13933,-0.9797 -35.32606,-2.10712 -35.97051,-2.50542 -0.64445,-0.39829 -2.0715,-3.85451 -3.17122,-7.68049 -1.09972,-3.82598 -4.4319,-12.56837 -7.40485,-19.42753 -3.29168,-7.59454 -5.03257,-13.11081 -4.45203,-14.10687 0.52435,-0.8996 9.96457,-11.57094 20.97828,-23.71407 11.01372,-12.14312 20.68877,-23.27228 21.50013,-24.73146 0.81135,-1.45917 1.49454,-5.24731 1.51819,-8.4181 l 0.043,-5.76506 h -6.43919 c -6.00246,0 -6.96968,0.44115 -14.26094,6.50452 -4.30196,3.57749 -15.6604,13.89125 -25.24095,22.91946 l -17.41921,16.41493 -11.1086,-5.19108 c -6.10974,-2.8551 -16.02143,-6.67928 -22.02598,-8.49816 -6.00455,-1.8189 -11.03474,-3.4056 -11.17821,-3.52601 -0.14347,-0.1204 -0.62174,-16.57747 -1.06284,-36.57127 -0.44109,-19.99379 -1.29709,-36.8888 -1.90223,-37.54447 -1.60733,-1.74156 -10.66949,-1.21249 -12.60531,0.73594 -1.26605,1.27427 -1.94277,9.97742 -2.85644,36.73593 -0.65854,19.28633 -1.7156,35.5843 -2.34903,36.21773 -0.63341,0.63341 -5.98523,2.77593 -11.89294,4.76115 -5.9077,1.98521 -15.15689,5.6787 -20.55374,8.20775 l -9.81245,4.59827 -19.32738,-18.1686 C 365.30862,257.55406 363.8732,256.50467 356.34236,256.94329 l -6.19064,0.36057 -0.35908,5.49955 c -0.47917,7.33883 1.88199,10.66274 25.077,35.30191 10.2572,10.89581 18.89659,20.45463 19.19866,21.24179 0.30206,0.78718 -1.90881,7.08445 -4.91306,13.99395 -3.00424,6.90949 -6.39999,15.94711 -7.54609,20.08361 l -2.08383,7.52088 -6.19092,0.63508 c -3.405,0.34929 -19.25385,1.22743 -35.21968,1.95144 -15.96581,0.72401 -29.96532,1.8176 -31.11001,2.43022 -2.34926,1.25729 -3.35036,6.08244 -2.38548,11.49762 l 0.64878,3.64109 38.52334,0.32047 38.52336,0.32047 v 7.07514 c 0,7.50944 2.21121,14.96494 8.47771,28.58415 2.63927,5.73603 3.53919,9.0544 2.84846,10.50341 -0.55536,1.16503 -9.99753,11.98505 -20.98258,24.04448 -10.98507,12.05944 -20.70969,23.33257 -21.61027,25.05139 -0.90059,1.71883 -1.47068,5.42198 -1.26687,8.2292 0.36964,5.09141 0.38366,5.10499 5.65754,5.48356 3.99791,0.28698 6.37021,-0.33736 9.72983,-2.56065 3.63673,-2.40667 20.29275,-17.33327 44.53694,-39.9126 l 3.72366,-3.46796 7.80646,3.51964 c 4.29355,1.9358 13.26811,5.54485 19.94344,8.02011 6.67534,2.47527 12.55781,4.90045 13.07218,5.38932 0.51436,0.48885 1.72435,16.95565 2.68885,36.59288 1.55244,31.60735 2.00216,35.89039 3.91958,37.32803 2.61297,1.95915 11.14976,1.14881 12.63871,-1.19971 z"
     id="path908"
     transform="scale(0.75)" />
  <path
     style="fill:#a0a0a0;stroke:none;stroke-width:1.2137"
     d="m 443.87886,435.86922 c -3.85536,-1.61716 -7.67851,-3.43519 -8.49588,-4.04006 -0.81738,-0.60489 -4.37247,-3.24462 -7.90021,-5.86608 -7.7599,-5.7664 -15.48184,-15.36624 -22.04351,-27.40426 l -4.88496,-8.96194 -0.0171,-16.1161 c -0.0164,-15.47956 0.12423,-16.39038 3.56038,-23.06025 9.45097,-18.34516 19.83306,-29.351 34.50643,-36.57959 33.44201,-16.47461 70.84186,-2.51699 88.78935,33.13617 l 4.20609,8.35553 v 17.87932 17.87933 l -4.20118,8.35552 c -7.46427,14.84534 -19.41319,26.79119 -34.63714,34.62827 -7.70196,3.96486 -8.29196,4.06914 -24.8808,4.3978 -15.66446,0.31033 -17.53932,0.10692 -24.0015,-2.60366 z"
     id="path984"
     transform="scale(0.75)" />
  <path
     style="fill:#a02c2c;stroke:none;stroke-width:1.2137"
     d="m 443.60642,434.96007 c -8.06944,-3.25183 -21.98435,-14.02837 -27.52012,-21.31322 -8.3095,-10.93498 -14.18039,-22.23175 -14.95306,-28.77268 -0.40285,-3.41031 -0.24332,-11.76232 0.35452,-18.56003 1.01043,-11.48904 1.45691,-12.98485 6.3398,-21.2397 13.88224,-23.46889 35.94407,-37.40214 59.22234,-37.40214 24.84403,0 45.97632,14.16801 60.13465,40.31689 l 4.41493,8.1539 -0.009,17.33374 -0.008,17.33375 -6.34276,10.73389 c -8.05051,13.62487 -20.19246,25.43349 -32.46264,31.57202 l -8.83795,4.42144 -17.13212,-0.0662 c -14.25313,-0.0551 -18.1519,-0.47714 -23.2006,-2.51168 z"
     id="path1023"
     transform="scale(0.75)" />
  <path
     style="fill:#000000;stroke:none;stroke-width:1.2137"
     d="m 465.50038,70.595945 c -28.69809,0.697902 -50.74123,23.900993 -64.2038,47.142875 -9.37069,15.98253 -14.87721,34.3712 -19.05537,51.93466 -30.38221,-19.22117 -67.82274,-34.87567 -104.15515,-25.06333 -22.66823,5.60511 -39.63404,26.20869 -42.23762,49.20216 -4.86645,33.94823 9.47587,67.02819 27.16833,95.17806 -34.56218,7.65056 -71.01489,22.93745 -90.42046,54.19917 -13.12256,20.49241 -10.79544,48.45646 4.47077,67.17295 20.94523,26.48978 53.97258,40.26616 86.17015,47.31523 -19.85019,29.8125 -33.94914,67.06578 -25.85034,103.14295 6.08879,25.00451 30.17205,42.91214 55.52904,44.02498 32.04635,2.30998 62.89968,-11.13087 89.39165,-27.98615 8.013,35.31195 23.55208,72.80081 56.26439,91.85951 23.3642,14.38294 54.63256,6.62288 72.89495,-12.45441 21.58963,-21.2224 33.18427,-50.50932 39.53986,-79.61846 29.54112,19.39689 66.03675,34.249 101.79414,26.13006 24.35106,-5.11647 42.7649,-27.2108 44.98549,-51.75181 4.03095,-33.36629 -10.40853,-65.8538 -27.66423,-93.35141 34.5654,-7.7222 71.03605,-22.84907 90.54136,-54.08302 14.22638,-21.9861 10.36274,-52.60173 -7.67331,-71.25257 -21.20013,-24.03042 -52.01777,-36.48167 -82.57174,-43.55089 19.06748,-30.04908 34.3083,-66.71065 25.42838,-102.72099 -5.26841,-22.9926 -25.85503,-40.43308 -49.01013,-43.47028 -34.1107,-5.35446 -67.69798,9.20345 -95.8821,27.16596 -7.39537,-34.18777 -22.45187,-69.46686 -52.58487,-89.503076 -9.70654,-6.228259 -21.31162,-9.7915 -32.86939,-9.662169 z m 1.16629,24.217057 c 18.72138,-1.353937 32.80098,14.368918 41.99109,28.811088 13.01607,20.55096 18.18225,45.12135 22.70704,68.85363 0.89623,7.86182 10.03911,12.42208 16.57456,7.60458 20.64118,-13.8062 41.74264,-27.50726 66.26873,-33.15668 19.03998,-4.59292 43.82667,-3.24223 54.89715,15.52961 12.07099,21.88578 4.40364,48.34362 -5.13552,69.68916 -6.08275,15.23631 -17.42053,27.47427 -24.65934,42.00182 -3.64114,6.99875 2.03768,15.02008 9.69299,15.02662 31.63919,4.93326 65.76224,14.0077 87.33407,39.38354 12.8319,14.16333 12.27557,37.41274 -1.18051,50.93736 -22.50533,25.41452 -57.44652,33.71794 -89.67139,38.36896 -7.97059,3.51289 -9.11145,14.28617 -3.35899,20.38632 18.44297,25.71809 35.54179,56.165 32.60152,88.90808 -1.1114,17.31437 -15.06413,32.35657 -32.41899,34.14947 -28.95292,3.24372 -57.42151,-10.20023 -81.10853,-25.9435 -7.38782,-4.09337 -14.78849,-14.58068 -24.09439,-9.69464 -9.10092,6.16136 -6.51499,18.92563 -9.74724,28.19725 -5.87443,27.9618 -17.463,57.99472 -42.79969,73.73911 -14.98584,8.282 -35.27059,4.84854 -46.62068,-8.07631 -22.91674,-22.15102 -30.51316,-54.47869 -35.76378,-84.75495 -0.62813,-7.46132 -8.75739,-13.47486 -15.6145,-8.80168 -25.09113,16.83573 -52.15565,34.08819 -83.2055,35.92411 -18.16516,1.74365 -38.67732,-7.89384 -43.14231,-26.82849 -6.92572,-28.31191 5.7408,-57.43676 20.21203,-80.99585 4.48546,-8.98672 14.66792,-16.28388 14.45184,-26.97581 -1.19202,-7.82268 -9.05853,-10.84444 -16.10757,-10.74787 -29.57282,-4.71799 -61.52289,-14.14225 -81.66382,-38.08923 -11.60112,-13.21145 -12.81598,-34.04753 -1.5029,-47.85572 19.69115,-25.13528 52.28168,-35.17689 82.6381,-40.09705 6.79531,-0.93217 17.69595,-2.57948 16.79501,-11.81933 -2.69251,-13.28689 -14.11055,-22.58846 -19.71405,-34.64629 -12.71876,-23.07679 -23.11847,-51.37121 -13.40187,-77.40026 8.05155,-18.36532 30.16824,-24.28996 48.51234,-21.04296 27.77025,3.8186 52.13774,19.33449 75.15442,34.78239 6.60633,4.75523 15.5963,-0.0678 16.43233,-7.87481 5.51155,-29.65158 12.53188,-60.55485 33.73225,-83.16672 8.10298,-8.26965 18.72641,-15.688503 30.9161,-14.324948 z"
     id="path1290"
     transform="scale(0.75)" />
  <path
     style="fill:#000000;stroke:none;stroke-width:1.2137"
     d="m 465.80855,206.96149 c -9.75561,1.25769 -11.29607,12.30201 -10.68503,20.22488 -0.52626,19.22351 0.4917,39.40475 -0.56776,58.0112 -15.00547,2.4115 -29.37802,8.42206 -41.60706,17.45401 -16.7851,-15.74241 -31.7205,-33.67092 -50.00575,-47.71585 -9.2888,-7.77705 -22.7655,7.36969 -14.2491,15.67376 14.87948,17.16969 31.5423,32.67824 47.46458,48.85843 -8.75234,12.24528 -15.16727,26.49741 -17.51801,41.40795 -23.40441,0.85584 -47.03351,-0.83726 -70.30912,1.79446 -10.74255,3.02866 -9.09324,21.03111 2.15479,21.84894 22.62204,1.99909 45.65834,0.38583 68.17092,1.08805 2.48543,14.76838 8.63937,29.03342 17.39949,41.16616 -16.49519,17.50486 -34.89366,33.45588 -49.58144,52.54693 -3.85572,9.3967 9.95233,19.81985 17.49194,12.09905 17.20197,-14.88873 32.55512,-31.78803 48.91533,-47.58073 12.32133,9.1738 26.90644,15.35503 42.10961,17.62232 0.61092,23.32743 -1.23379,46.83994 1.0288,70.06494 2.33028,8.24793 14.03909,10.62551 19.3599,3.7217 5.17565,-8.57835 1.82178,-19.61993 2.95601,-29.10979 0.008,-14.89228 0.004,-29.78457 0.005,-44.67685 15.20298,-2.26813 29.78851,-8.44774 42.10961,-17.62232 17.14035,16.16747 32.57385,34.34494 51.03931,49.01015 10.158,6.1111 22.2706,-10.68129 12.19623,-18.07984 -14.65103,-16.77349 -30.90684,-32.05013 -46.43341,-47.99556 8.79764,-12.15321 14.98513,-26.463 17.43505,-41.27994 23.18486,-0.64437 46.58426,1.35328 69.64537,-1.30378 11.42477,-2.34697 10.03327,-21.55235 -1.69965,-22.00774 -22.58296,-1.61343 -45.41779,-0.70548 -67.9481,-1.39623 -2.38459,-14.87394 -8.76667,-29.09907 -17.5109,-41.31787 16.47835,-17.29916 34.99555,-32.98487 49.53878,-51.96853 3.69095,-9.53793 -9.473,-19.50763 -17.27149,-11.81696 -17.68021,14.17888 -32.66174,31.41547 -49.1192,46.95255 -12.48849,-8.80949 -26.92699,-14.89674 -41.9816,-17.54646 -0.6523,-23.20623 1.32195,-46.62256 -1.14968,-69.71175 -1.34971,-4.78995 -6.32207,-8.80559 -11.38316,-8.41528 z m 2.89437,101.61397 c 32.34903,-0.62657 61.66671,27.7056 62.42483,59.93817 2.20842,20.67488 -6.514,41.68792 -22.77816,54.62587 -19.70343,17.38575 -50.47093,20.34187 -73.4127,7.03704 -21.56062,-11.48976 -35.02652,-35.93672 -32.79531,-60.34492 0.0981,-32.37819 29.06643,-61.42548 61.56813,-61.22094 1.66307,-0.0786 3.32916,-0.0665 4.99321,-0.0352 z"
     id="path1366"
     transform="scale(0.75)" />
</svg>
