<?xml version="1.0" encoding="UTF-8" standalone="no"?>
<svg
   width="700pt"
   height="700pt"
   version="1.1"
   viewBox="0 0 700 700"
   id="svg1150"
   sodipodi:docname="flower.svg"
   inkscape:version="1.1.2 (b8e25be833, 2022-02-05)"
   xmlns:inkscape="http://www.inkscape.org/namespaces/inkscape"
   xmlns:sodipodi="http://sodipodi.sourceforge.net/DTD/sodipodi-0.dtd"
   xmlns:xlink="http://www.w3.org/1999/xlink"
   xmlns="http://www.w3.org/2000/svg"
   xmlns:svg="http://www.w3.org/2000/svg">
  <sodipodi:namedview
     id="namedview1152"
     pagecolor="#ffffff"
     bordercolor="#666666"
     borderopacity="1.0"
     inkscape:pageshadow="2"
     inkscape:pageopacity="0.0"
     inkscape:pagecheckerboard="0"
     inkscape:document-units="pt"
     showgrid="false"
     inkscape:zoom="0.82392857"
     inkscape:cx="466.05982"
     inkscape:cy="466.66667"
     inkscape:window-width="1920"
     inkscape:window-height="991"
     inkscape:window-x="-9"
     inkscape:window-y="-9"
     inkscape:window-maximized="1"
     inkscape:current-layer="svg1150" />
  <defs
     id="defs1064">
    <symbol
       id="y"
       overflow="visible">
      <path
         d="m18.766-1.125c-0.96875 0.5-1.9805 0.875-3.0312 1.125-1.043 0.25781-2.1367 0.39062-3.2812 0.39062-3.3984 0-6.0898-0.94531-8.0781-2.8438-1.9922-1.9062-2.9844-4.4844-2.9844-7.7344 0-3.2578 0.99219-5.8359 2.9844-7.7344 1.9883-1.9062 4.6797-2.8594 8.0781-2.8594 1.1445 0 2.2383 0.13281 3.2812 0.39062 1.0508 0.25 2.0625 0.625 3.0312 1.125v4.2188c-0.98047-0.65625-1.9453-1.1406-2.8906-1.4531-0.94922-0.3125-1.9492-0.46875-3-0.46875-1.875 0-3.3516 0.60547-4.4219 1.8125-1.0742 1.1992-1.6094 2.8555-1.6094 4.9688 0 2.1055 0.53516 3.7617 1.6094 4.9688 1.0703 1.1992 2.5469 1.7969 4.4219 1.7969 1.0508 0 2.0508-0.14844 3-0.45312 0.94531-0.3125 1.9102-0.80078 2.8906-1.4688z"
         id="path989" />
    </symbol>
    <symbol
       id="d"
       overflow="visible">
      <path
         d="m13.734-11.141c-0.4375-0.19531-0.87109-0.34375-1.2969-0.4375-0.41797-0.10156-0.83984-0.15625-1.2656-0.15625-1.2617 0-2.2305 0.40625-2.9062 1.2188-0.67969 0.80469-1.0156 1.9531-1.0156 3.4531v7.0625h-4.8906v-15.312h4.8906v2.5156c0.625-1 1.3438-1.7266 2.1562-2.1875 0.82031-0.46875 1.8008-0.70312 2.9375-0.70312 0.16406 0 0.34375 0.011719 0.53125 0.03125 0.19531 0.011719 0.47656 0.039062 0.84375 0.078125z"
         id="path992" />
    </symbol>
    <symbol
       id="a"
       overflow="visible">
      <path
         d="m17.641-7.7031v1.4062h-11.453c0.125 1.1484 0.53906 2.0078 1.25 2.5781 0.70703 0.57422 1.7031 0.85938 2.9844 0.85938 1.0312 0 2.082-0.14844 3.1562-0.45312 1.082-0.3125 2.1914-0.77344 3.3281-1.3906v3.7656c-1.1562 0.4375-2.3125 0.76562-3.4688 0.98438-1.1562 0.22656-2.3125 0.34375-3.4688 0.34375-2.7734 0-4.9297-0.70312-6.4688-2.1094-1.5312-1.4062-2.2969-3.3789-2.2969-5.9219 0-2.5 0.75391-4.4609 2.2656-5.8906 1.5078-1.4375 3.582-2.1562 6.2188-2.1562 2.4062 0 4.332 0.73047 5.7812 2.1875 1.4453 1.4492 2.1719 3.3828 2.1719 5.7969zm-5.0312-1.625c0-0.92578-0.27344-1.6719-0.8125-2.2344-0.54297-0.57031-1.25-0.85938-2.125-0.85938-0.94922 0-1.7188 0.26562-2.3125 0.79688s-0.96484 1.2969-1.1094 2.2969z"
         id="path995" />
    </symbol>
    <symbol
       id="e"
       overflow="visible">
      <path
         d="m9.2188-6.8906c-1.0234 0-1.793 0.17188-2.3125 0.51562-0.51172 0.34375-0.76562 0.85547-0.76562 1.5312 0 0.625 0.20703 1.1172 0.625 1.4688 0.41406 0.34375 0.98828 0.51562 1.7188 0.51562 0.92578 0 1.7031-0.32812 2.3281-0.98438 0.63281-0.66406 0.95312-1.4922 0.95312-2.4844v-0.5625zm7.4688-1.8438v8.7344h-4.9219v-2.2656c-0.65625 0.92969-1.3984 1.6055-2.2188 2.0312-0.82422 0.41406-1.8242 0.625-3 0.625-1.5859 0-2.8711-0.45703-3.8594-1.375-0.99219-0.92578-1.4844-2.1289-1.4844-3.6094 0-1.7891 0.61328-3.1016 1.8438-3.9375 1.2383-0.84375 3.1797-1.2656 5.8281-1.2656h2.8906v-0.39062c0-0.76953-0.30859-1.332-0.92188-1.6875-0.61719-0.36328-1.5703-0.54688-2.8594-0.54688-1.0547 0-2.0312 0.10547-2.9375 0.3125-0.89844 0.21094-1.7305 0.52344-2.5 0.9375v-3.7344c1.0391-0.25 2.0859-0.44141 3.1406-0.57812 1.0625-0.13281 2.125-0.20312 3.1875-0.20312 2.7578 0 4.75 0.54688 5.9688 1.6406 1.2266 1.0859 1.8438 2.8555 1.8438 5.3125z"
         id="path998" />
    </symbol>
    <symbol
       id="c"
       overflow="visible">
      <path
         d="m7.7031-19.656v4.3438h5.0469v3.5h-5.0469v6.5c0 0.71094 0.14062 1.1875 0.42188 1.4375s0.83594 0.375 1.6719 0.375h2.5156v3.5h-4.1875c-1.9375 0-3.3125-0.39844-4.125-1.2031-0.80469-0.8125-1.2031-2.1797-1.2031-4.1094v-6.5h-2.4219v-3.5h2.4219v-4.3438z"
         id="path1001" />
    </symbol>
    <symbol
       id="l"
       overflow="visible">
      <path
         d="m12.766-13.078v-8.2031h4.9219v21.281h-4.9219v-2.2188c-0.66797 0.90625-1.4062 1.5703-2.2188 1.9844s-1.7578 0.625-2.8281 0.625c-1.8867 0-3.4336-0.75-4.6406-2.25-1.2109-1.5-1.8125-3.4258-1.8125-5.7812 0-2.3633 0.60156-4.2969 1.8125-5.7969 1.207-1.5 2.7539-2.25 4.6406-2.25 1.0625 0 2 0.21484 2.8125 0.64062 0.82031 0.42969 1.5664 1.0859 2.2344 1.9688zm-3.2188 9.9219c1.0391 0 1.8359-0.37891 2.3906-1.1406 0.55078-0.76953 0.82812-1.8828 0.82812-3.3438 0-1.457-0.27734-2.5664-0.82812-3.3281-0.55469-0.76953-1.3516-1.1562-2.3906-1.1562-1.043 0-1.8398 0.38672-2.3906 1.1562-0.55469 0.76172-0.82812 1.8711-0.82812 3.3281 0 1.4609 0.27344 2.5742 0.82812 3.3438 0.55078 0.76172 1.3477 1.1406 2.3906 1.1406z"
         id="path1004" />
    </symbol>
    <symbol
       id="k"
       overflow="visible">
      <path
         d="m10.5-3.1562c1.0508 0 1.8516-0.37891 2.4062-1.1406 0.55078-0.76953 0.82812-1.8828 0.82812-3.3438 0-1.457-0.27734-2.5664-0.82812-3.3281-0.55469-0.76953-1.3555-1.1562-2.4062-1.1562-1.0547 0-1.8594 0.38672-2.4219 1.1562-0.55469 0.77344-0.82812 1.8828-0.82812 3.3281 0 1.4492 0.27344 2.5586 0.82812 3.3281 0.5625 0.77344 1.3672 1.1562 2.4219 1.1562zm-3.25-9.9219c0.67578-0.88281 1.4219-1.5391 2.2344-1.9688 0.82031-0.42578 1.7656-0.64062 2.8281-0.64062 1.8945 0 3.4453 0.75 4.6562 2.25 1.207 1.5 1.8125 3.4336 1.8125 5.7969 0 2.3555-0.60547 4.2812-1.8125 5.7812-1.2109 1.5-2.7617 2.25-4.6562 2.25-1.0625 0-2.0078-0.21094-2.8281-0.625-0.8125-0.42578-1.5586-1.0859-2.2344-1.9844v2.2188h-4.8906v-21.281h4.8906z"
         id="path1007" />
    </symbol>
    <symbol
       id="j"
       overflow="visible">
      <path
         d="m0.34375-15.312h4.8906l4.125 10.391 3.5-10.391h4.8906l-6.4375 16.766c-0.64844 1.6953-1.4023 2.8828-2.2656 3.5625-0.86719 0.6875-2 1.0312-3.4062 1.0312h-2.8438v-3.2188h1.5312c0.83203 0 1.4375-0.13672 1.8125-0.40625 0.38281-0.26172 0.67969-0.73047 0.89062-1.4062l0.14062-0.42188z"
         id="path1010" />
    </symbol>
    <symbol
       id="i"
       overflow="visible">
      <path
         d="m2.5781-20.406h6.6875l4.6562 10.922 4.6719-10.922h6.6875v20.406h-4.9844v-14.938l-4.7031 11.016h-3.3281l-4.7031-11.016v14.938h-4.9844z"
         id="path1013" />
    </symbol>
    <symbol
       id="x"
       overflow="visible">
      <path
         d="m6.2188-7.8281-5.5156-7.4844h5.1719l3.1406 4.5312 3.1719-4.5312h5.1719l-5.5156 7.4531 5.7969 7.8594h-5.1875l-3.4375-4.8438-3.4062 4.8438h-5.1875z"
         id="path1016" />
    </symbol>
    <symbol
       id="h"
       overflow="visible">
      <path
         d="m2.3594-15.312h4.8906v15.312h-4.8906zm0-5.9688h4.8906v4h-4.8906z"
         id="path1019" />
    </symbol>
    <symbol
       id="g"
       overflow="visible">
      <path
         d="m16.547-12.766c0.61328-0.94531 1.3477-1.6719 2.2031-2.1719 0.85156-0.5 1.7891-0.75 2.8125-0.75 1.7578 0 3.0977 0.54688 4.0156 1.6406 0.92578 1.0859 1.3906 2.6562 1.3906 4.7188v9.3281h-4.9219v-7.9844-0.35938c0.007813-0.13281 0.015625-0.32031 0.015625-0.5625 0-1.082-0.16406-1.8633-0.48438-2.3438-0.3125-0.48828-0.82422-0.73438-1.5312-0.73438-0.92969 0-1.6484 0.38672-2.1562 1.1562-0.51172 0.76172-0.77344 1.8672-0.78125 3.3125v7.5156h-4.9219v-7.9844c0-1.6953-0.14844-2.7852-0.4375-3.2656-0.29297-0.48828-0.8125-0.73438-1.5625-0.73438-0.9375 0-1.6641 0.38672-2.1719 1.1562-0.51172 0.76172-0.76562 1.8594-0.76562 3.2969v7.5312h-4.9219v-15.312h4.9219v2.2344c0.60156-0.86328 1.2891-1.5156 2.0625-1.9531 0.78125-0.4375 1.6406-0.65625 2.5781-0.65625 1.0625 0 2 0.25781 2.8125 0.76562 0.8125 0.51172 1.4258 1.2305 1.8438 2.1562z"
         id="path1022" />
    </symbol>
    <symbol
       id="w"
       overflow="visible">
      <path
         d="m2.5781-20.406h5.25v7.4375l7.5938-7.4375h6.1094l-9.8281 9.6562 10.844 10.75h-6.5938l-8.125-8.0469v8.0469h-5.25z"
         id="path1025" />
    </symbol>
    <symbol
       id="f"
       overflow="visible">
      <path
         d="m2.1875-5.9688v-9.3438h4.9219v1.5312c0 0.83594-0.007813 1.875-0.015625 3.125-0.011719 1.25-0.015625 2.0859-0.015625 2.5 0 1.2422 0.03125 2.1328 0.09375 2.6719 0.070313 0.54297 0.17969 0.93359 0.32812 1.1719 0.20703 0.32422 0.47266 0.57422 0.79688 0.75 0.32031 0.16797 0.69141 0.25 1.1094 0.25 1.0195 0 1.8203-0.39062 2.4062-1.1719 0.58203-0.78125 0.875-1.8672 0.875-3.2656v-7.5625h4.8906v15.312h-4.8906v-2.2188c-0.74219 0.89844-1.5234 1.5586-2.3438 1.9844-0.82422 0.41406-1.7344 0.625-2.7344 0.625-1.7617 0-3.1055-0.53906-4.0312-1.625-0.92969-1.082-1.3906-2.6602-1.3906-4.7344z"
         id="path1028" />
    </symbol>
    <symbol
       id="v"
       overflow="visible">
      <path
         d="m2.3594-21.281h4.8906v21.281h-4.8906z"
         id="path1031" />
    </symbol>
    <symbol
       id="u"
       overflow="visible">
      <path
         d="m2.3594-21.281h4.8906v11.594l5.625-5.625h5.6875l-7.4688 7.0312 8.0625 8.2812h-5.9375l-5.9688-6.3906v6.3906h-4.8906z"
         id="path1034" />
    </symbol>
    <symbol
       id="b"
       overflow="visible">
      <path
         d="m9.6406-12.188c-1.0859 0-1.9141 0.39062-2.4844 1.1719-0.57422 0.78125-0.85938 1.9062-0.85938 3.375s0.28516 2.5938 0.85938 3.375c0.57031 0.77344 1.3984 1.1562 2.4844 1.1562 1.0625 0 1.875-0.38281 2.4375-1.1562 0.57031-0.78125 0.85938-1.9062 0.85938-3.375s-0.28906-2.5938-0.85938-3.375c-0.5625-0.78125-1.375-1.1719-2.4375-1.1719zm0-3.5c2.6328 0 4.6914 0.71484 6.1719 2.1406 1.4766 1.418 2.2188 3.3867 2.2188 5.9062 0 2.5117-0.74219 4.4805-2.2188 5.9062-1.4805 1.418-3.5391 2.125-6.1719 2.125-2.6484 0-4.7148-0.70703-6.2031-2.125-1.4922-1.4258-2.2344-3.3945-2.2344-5.9062 0-2.5195 0.74219-4.4883 2.2344-5.9062 1.4883-1.4258 3.5547-2.1406 6.2031-2.1406z"
         id="path1037" />
    </symbol>
    <symbol
       id="t"
       overflow="visible">
      <path
         d="m0.42188-15.312h4.8906l3.8281 10.578 3.7969-10.578h4.9062l-6.0312 15.312h-5.375z"
         id="path1040" />
    </symbol>
    <symbol
       id="s"
       overflow="visible">
      <path
         d="m12.422-21.281v3.2188h-2.7031c-0.6875 0-1.1719 0.125-1.4531 0.375-0.27344 0.25-0.40625 0.6875-0.40625 1.3125v1.0625h4.1875v3.5h-4.1875v11.812h-4.8906v-11.812h-2.4375v-3.5h2.4375v-1.0625c0-1.6641 0.46094-2.8984 1.3906-3.7031 0.92578-0.80078 2.3672-1.2031 4.3281-1.2031z"
         id="path1043" />
    </symbol>
    <symbol
       id="r"
       overflow="visible">
      <path
         d="m17.75-9.3281v9.3281h-4.9219v-7.1094c0-1.3438-0.03125-2.2656-0.09375-2.7656s-0.16797-0.86719-0.3125-1.1094c-0.1875-0.3125-0.44922-0.55469-0.78125-0.73438-0.32422-0.17578-0.69531-0.26562-1.1094-0.26562-1.0234 0-1.8242 0.39844-2.4062 1.1875-0.58594 0.78125-0.875 1.8711-0.875 3.2656v7.5312h-4.8906v-21.281h4.8906v8.2031c0.73828-0.88281 1.5195-1.5391 2.3438-1.9688 0.83203-0.42578 1.75-0.64062 2.75-0.64062 1.7695 0 3.1133 0.54688 4.0312 1.6406 0.91406 1.0859 1.375 2.6562 1.375 4.7188z"
         id="path1046" />
    </symbol>
    <symbol
       id="q"
       overflow="visible">
      <path
         d="m2.5781-20.406h5.875l7.4219 14v-14h4.9844v20.406h-5.875l-7.4219-14v14h-4.9844z"
         id="path1049" />
    </symbol>
    <symbol
       id="p"
       overflow="visible">
      <path
         d="m17.75-9.3281v9.3281h-4.9219v-7.1406c0-1.3203-0.03125-2.2344-0.09375-2.7344s-0.16797-0.86719-0.3125-1.1094c-0.1875-0.3125-0.44922-0.55469-0.78125-0.73438-0.32422-0.17578-0.69531-0.26562-1.1094-0.26562-1.0234 0-1.8242 0.39844-2.4062 1.1875-0.58594 0.78125-0.875 1.8711-0.875 3.2656v7.5312h-4.8906v-15.312h4.8906v2.2344c0.73828-0.88281 1.5195-1.5391 2.3438-1.9688 0.83203-0.42578 1.75-0.64062 2.75-0.64062 1.7695 0 3.1133 0.54688 4.0312 1.6406 0.91406 1.0859 1.375 2.6562 1.375 4.7188z"
         id="path1052" />
    </symbol>
    <symbol
       id="o"
       overflow="visible">
      <path
         d="m2.5781-20.406h8.7344c2.5938 0 4.582 0.57812 5.9688 1.7344 1.3945 1.1484 2.0938 2.7891 2.0938 4.9219 0 2.1367-0.69922 3.7812-2.0938 4.9375-1.3867 1.1562-3.375 1.7344-5.9688 1.7344h-3.4844v7.0781h-5.25zm5.25 3.8125v5.7031h2.9219c1.0195 0 1.8047-0.25 2.3594-0.75 0.5625-0.5 0.84375-1.2031 0.84375-2.1094 0-0.91406-0.28125-1.6172-0.84375-2.1094-0.55469-0.48828-1.3398-0.73438-2.3594-0.73438z"
         id="path1055" />
    </symbol>
    <symbol
       id="n"
       overflow="visible">
      <path
         d="m2.3594-15.312h4.8906v15.031c0 2.0508-0.49609 3.6172-1.4844 4.7031-0.98047 1.082-2.4062 1.625-4.2812 1.625h-2.4219v-3.2188h0.85938c0.92578 0 1.5625-0.21094 1.9062-0.625 0.35156-0.41797 0.53125-1.2461 0.53125-2.4844zm0-5.9688h4.8906v4h-4.8906z"
         id="path1058" />
    </symbol>
    <symbol
       id="m"
       overflow="visible">
      <path
         d="m14.719-14.828v3.9844c-0.65625-0.45703-1.3242-0.79688-2-1.0156-0.66797-0.21875-1.3594-0.32812-2.0781-0.32812-1.3672 0-2.4336 0.40234-3.2031 1.2031-0.76172 0.79297-1.1406 1.9062-1.1406 3.3438 0 1.4297 0.37891 2.543 1.1406 3.3438 0.76953 0.79297 1.8359 1.1875 3.2031 1.1875 0.75781 0 1.4844-0.10938 2.1719-0.32812 0.6875-0.22656 1.3203-0.56641 1.9062-1.0156v4c-0.76172 0.28125-1.5391 0.48828-2.3281 0.625-0.78125 0.14453-1.5742 0.21875-2.375 0.21875-2.7617 0-4.9219-0.70703-6.4844-2.125-1.5547-1.4141-2.3281-3.3828-2.3281-5.9062 0-2.5312 0.77344-4.5039 2.3281-5.9219 1.5625-1.4141 3.7227-2.125 6.4844-2.125 0.80078 0 1.5938 0.074219 2.375 0.21875 0.78125 0.13672 1.5547 0.35156 2.3281 0.64062z"
         id="path1061" />
    </symbol>
  </defs>
  <g
     id="g1148">
    <path
       d="m350 30.801c-137.41 0-249.2 111.79-249.2 249.2s111.79 249.2 249.2 249.2 249.2-111.79 249.2-249.2-111.79-249.2-249.2-249.2zm0 487.2c-131.23 0-238-106.77-238-238s106.77-238 238-238 238 106.77 238 238-106.77 238-238 238z"
       id="path1066" />
    <path
       d="m439.02 287.36c-0.15625-0.023437-3.9648-0.48828-9.7109-0.48828-12.293 0-35.117 2.1953-49.801 16.879-17.914 17.914-17.316 47.539-16.645 56.707l-7.2617 7.2617v-78.785c48.137-2.918 86.441-42.891 86.441-91.75v-47.219c0-3.0898-2.5039-5.6016-5.6016-5.6016-11.82 0-23.094 2.3203-33.488 6.4023-8.1406-46.508-48.328-70.555-50.125-71.602-0.22266-0.12891-0.47656-0.14453-0.71094-0.24219-0.34766-0.14453-0.68359-0.28516-1.0547-0.35938-0.35938-0.066406-0.69922-0.066406-1.0586-0.066406-0.36328 0-0.70703 0-1.0703 0.066406-0.37109 0.074219-0.69922 0.21094-1.0469 0.35938-0.23438 0.09375-0.48047 0.11328-0.70703 0.24219-1.7969 1.0469-42 25.109-50.137 71.602-10.395-4.0781-21.66-6.3945-33.48-6.3945-3.0977 0-5.6016 2.5078-5.6016 5.6016v47.219c0 48.859 38.297 88.832 86.441 91.75v131.3l-7.2578-7.2578c0.66797-9.168 1.2656-38.793-16.645-56.707-14.684-14.688-37.504-16.879-49.801-16.879-5.7461 0-9.5469 0.46484-9.7109 0.48828-2.543 0.32031-4.5469 2.3242-4.8594 4.8672-0.19531 1.5625-4.5352 38.578 16.398 59.504 14.684 14.688 37.496 16.879 49.797 16.879 2.8555 0 5.2266-0.11328 6.9102-0.23438l15.164 15.168v39.922c0 3.0898 2.5039 5.6016 5.6016 5.6016s5.6016-2.5078 5.6016-5.6016v-92.438l15.176-15.176c1.6875 0.11719 4.0586 0.23438 6.9102 0.23438 12.293 0 35.113-2.1953 49.797-16.879 20.926-20.926 16.594-57.941 16.398-59.504-0.32422-2.5508-2.3242-4.5547-4.8633-4.875zm-127.83 99.668c-2.1914-2.1914-5.7305-2.1914-7.918 0-2.1914 2.1914-2.1914 5.7305 0 7.918l14.867 14.867c-11.07-0.45312-27.238-3.0195-37.703-13.484-13.227-13.227-13.895-35.996-13.512-45.664 9.3633-0.37109 32.246 0.11719 45.652 13.523 10.359 10.359 12.98 26.5 13.461 37.684zm119.65-231.27v41.43c0 42.695-33.266 77.758-75.242 80.645v-41.43c0.003906-42.691 33.266-77.754 75.242-80.645zm-86.441 122.07c-41.973-2.8906-75.242-37.953-75.242-80.645v-41.43c41.98 2.8906 75.242 37.953 75.242 80.645zm5.6016-72.738c-7.6875-21.156-22.836-38.754-42.352-49.449 5.0898-36.457 33.344-58.727 42.359-64.953 9.0156 6.1953 37.23 28.363 42.336 64.961-19.512 10.695-34.656 28.289-42.344 49.441zm69.562 138.72c-10.473 10.473-26.641 13.043-37.715 13.496l14.875-14.879c2.1914-2.1914 2.1914-5.7305 0-7.918-2.1914-2.1914-5.7305-2.1914-7.918 0l-14.844 14.844c0.48047-11.188 3.1016-27.324 13.461-37.684 11.832-11.832 31.32-13.598 41.883-13.598 1.4062 0 2.6836 0.035156 3.7852 0.078125 0.39062 9.6484-0.25 32.379-13.527 45.66z"
       id="path1068" />
    <use
       x="70"
       y="644"
       xlink:href="#y"
       id="use1070" />
    <use
       x="90.550781"
       y="644"
       xlink:href="#d"
       id="use1072" />
    <use
       x="104.359375"
       y="644"
       xlink:href="#a"
       id="use1074" />
    <use
       x="123.347656"
       y="644"
       xlink:href="#e"
       id="use1076" />
    <use
       x="142.242188"
       y="644"
       xlink:href="#c"
       id="use1078" />
    <use
       x="155.628906"
       y="644"
       xlink:href="#a"
       id="use1080" />
    <use
       x="174.617188"
       y="644"
       xlink:href="#l"
       id="use1082" />
    <use
       x="204.410156"
       y="644"
       xlink:href="#k"
       id="use1084" />
    <use
       x="224.453125"
       y="644"
       xlink:href="#j"
       id="use1086" />
    <use
       x="252.453125"
       y="644"
       xlink:href="#i"
       id="use1088" />
    <use
       x="280.3125"
       y="644"
       xlink:href="#e"
       id="use1090" />
    <use
       x="299.210938"
       y="644"
       xlink:href="#x"
       id="use1092" />
    <use
       x="317.269531"
       y="644"
       xlink:href="#h"
       id="use1094" />
    <use
       x="326.867188"
       y="644"
       xlink:href="#g"
       id="use1096" />
    <use
       x="365.789062"
       y="644"
       xlink:href="#w"
       id="use1098" />
    <use
       x="387.488281"
       y="644"
       xlink:href="#f"
       id="use1100" />
    <use
       x="407.421875"
       y="644"
       xlink:href="#v"
       id="use1102" />
    <use
       x="417.019531"
       y="644"
       xlink:href="#h"
       id="use1104" />
    <use
       x="426.617188"
       y="644"
       xlink:href="#u"
       id="use1106" />
    <use
       x="445.238281"
       y="644"
       xlink:href="#b"
       id="use1108" />
    <use
       x="464.476562"
       y="644"
       xlink:href="#t"
       id="use1110" />
    <use
       x="70"
       y="672"
       xlink:href="#s"
       id="use1112" />
    <use
       x="82.183594"
       y="672"
       xlink:href="#d"
       id="use1114" />
    <use
       x="95.992188"
       y="672"
       xlink:href="#b"
       id="use1116" />
    <use
       x="115.226562"
       y="672"
       xlink:href="#g"
       id="use1118" />
    <use
       x="154.152344"
       y="672"
       xlink:href="#c"
       id="use1120" />
    <use
       x="167.535156"
       y="672"
       xlink:href="#r"
       id="use1122" />
    <use
       x="187.46875"
       y="672"
       xlink:href="#a"
       id="use1124" />
    <use
       x="216.207031"
       y="672"
       xlink:href="#q"
       id="use1126" />
    <use
       x="239.640625"
       y="672"
       xlink:href="#b"
       id="use1128" />
    <use
       x="258.878906"
       y="672"
       xlink:href="#f"
       id="use1130" />
    <use
       x="278.8125"
       y="672"
       xlink:href="#p"
       id="use1132" />
    <use
       x="308.492188"
       y="672"
       xlink:href="#o"
       id="use1134" />
    <use
       x="329.015625"
       y="672"
       xlink:href="#d"
       id="use1136" />
    <use
       x="342.820312"
       y="672"
       xlink:href="#b"
       id="use1138" />
    <use
       x="362.058594"
       y="672"
       xlink:href="#n"
       id="use1140" />
    <use
       x="371.65625"
       y="672"
       xlink:href="#a"
       id="use1142" />
    <use
       x="390.648438"
       y="672"
       xlink:href="#m"
       id="use1144" />
    <use
       x="407.242188"
       y="672"
       xlink:href="#c"
       id="use1146" />
  </g>
  <path
     style="fill:#a0a0a0;stroke:none;stroke-width:1.2137"
     d="M 436.32423,688.62483 C 330.67204,678.62263 234.90516,613.59127 185.61089,518.37569 c -16.34365,-31.56898 -25.83965,-60.44602 -32.17054,-97.82953 -2.63877,-15.5818 -3.68673,-61.19577 -1.81745,-79.10701 11.25562,-107.84979 76.84192,-202.69321 173.64801,-251.109976 46.17804,-23.095561 89.63145,-33.24516 142.00261,-33.168154 42.22761,0.06209 74.5483,6.000899 112.87386,20.740162 110.88749,42.645178 189.20979,145.048678 201.56438,263.537968 1.86779,17.91357 0.81899,63.53114 -1.81878,79.10701 -6.33089,37.38351 -15.82689,66.26055 -32.17053,97.82953 -59.47193,114.87449 -182.99121,182.40554 -311.39822,170.24914 z m 35.80408,-48.39943 c 2.36487,-2.36488 2.42739,-4.04565 2.42739,-65.26304 v -62.83564 l 10.013,-9.84289 10.01301,-9.8429 14.56437,-0.74504 c 37.53729,-1.92023 61.04292,-14.63 73.22501,-39.59359 2.76889,-5.67404 5.87114,-13.59341 6.8939,-17.59862 4.73396,-18.53864 5.03063,-45.74466 0.5431,-49.80582 -4.62273,-4.1835 -31.95556,-3.47263 -50.32341,1.30883 -21.42323,5.57682 -38.16853,18.93142 -46.62265,37.18218 -6.56111,14.16414 -8.6578,23.45175 -9.45598,41.88668 l -0.69307,16.00749 -4.07864,3.95318 -4.07864,3.95317 v -51.55191 -51.55191 l 10.86884,-1.48025 c 39.15205,-5.33221 73.61819,-30.7394 91.74396,-67.63029 11.09578,-22.58296 11.78615,-26.87123 12.37491,-76.86843 0.59697,-50.69358 1.42818,-47.53556 -12.51162,-47.53556 -9.14458,0 -22.26468,2.1475 -32.63186,5.34118 -3.30651,1.0186 -6.17808,1.68577 -6.38124,1.4826 -0.20316,-0.20317 -1.4982,-4.68899 -2.87786,-9.96849 -5.51738,-21.11332 -19.22511,-44.1039 -36.89345,-61.87769 -11.99434,-12.06591 -27.41346,-23.57751 -31.58071,-23.57751 -7.2321,0 -35.61705,25.19041 -47.86646,42.47941 -8.44225,11.91551 -17.54143,30.85728 -20.86926,43.44354 -2.05425,7.76944 -3.07204,9.90939 -4.45973,9.37688 -7.76612,-2.98014 -22.35379,-5.77957 -33.00308,-6.33343 -18.74262,-0.97475 -17.29343,-5.07333 -16.67822,47.16907 0.57644,48.95014 1.30797,53.84925 11.13982,74.60449 8.91379,18.81721 19.52367,32.49054 34.3798,44.30648 16.97905,13.50444 38.3292,22.82713 58.59925,25.58775 l 10.86884,1.48025 v 86.14229 86.14228 l -4.07644,-3.95104 -4.07646,-3.95105 -0.68561,-15.40278 c -2.37252,-53.30058 -29.40132,-80.15436 -82.95884,-82.42166 -16.7994,-0.71117 -20.99974,-0.24469 -23.89863,2.65419 -4.37387,4.37386 -3.40358,33.24008 1.74137,51.80626 7.3426,26.49666 25.82277,44.43174 52.89051,51.33047 9.12771,2.32637 32.33593,4.78028 36.78831,3.8898 2.79453,-0.55889 4.64654,0.77785 13.75261,9.92629 l 10.52318,10.57218 v 27.5876 c 0,25.96935 0.14239,27.73 2.4274,30.015 1.33507,1.33507 3.7928,2.4274 5.46164,2.4274 1.66883,0 4.12657,-1.09233 5.46164,-2.4274 z"
     id="path1271"
     transform="scale(0.75)" />
  <path
     style="fill:#ffffff;stroke:none;stroke-width:1.2137"
     d="m 438.67368,688.64772 c -0.24878,-0.40284 -4.42925,-1.10077 -9.28993,-1.55094 -4.86068,-0.45018 -15.56352,-2.17905 -23.78412,-3.84191 -8.2206,-1.66286 -15.41061,-2.73656 -15.97783,-2.38601 -0.56721,0.35056 -1.21448,0.22436 -1.43838,-0.28046 -0.2239,-0.50481 -9.14571,-3.80241 -19.82625,-7.32802 -68.89125,-22.74073 -129.93528,-70.53674 -168.8823,-132.23077 -8.85613,-14.02856 -23.29903,-42.91451 -28.75041,-57.50112 -5.80498,-15.53276 -11.03129,-34.41591 -15.06602,-54.43489 -3.19399,-15.84749 -3.31317,-17.8282 -3.32605,-55.27479 -0.0112,-32.5978 0.34647,-40.78848 2.22605,-50.97529 16.83867,-91.26071 65.43264,-165.1545 141.15057,-214.63877 39.04077,-25.514493 82.83543,-41.745761 130.29879,-48.291614 14.88524,-2.052879 65.96089,-2.08144 81.31773,-0.04547 72.91995,9.66753 142.8995,46.280724 192.09575,100.504214 40.02514,44.1152 66.26856,96.73707 78.27156,156.94578 3.16963,15.8993 3.27827,17.78795 3.25003,56.50115 l -0.0292,40.05202 -3.84036,18.26077 c -7.07366,33.63527 -14.40749,54.59513 -29.4952,84.29666 -47.09609,92.71284 -138.97433,157.57484 -241.02027,170.14968 -6.58684,0.81167 -12.24916,1.77423 -12.58293,2.13899 -0.83358,0.91101 -54.73748,0.84355 -55.30118,-0.0692 z m 33.99266,-48.69238 c 1.65012,-2.35588 1.88936,-10.54301 1.88936,-64.65617 v -61.95875 l 10.10056,-10.04808 10.10056,-10.04809 14.87681,-1.12925 c 30.02065,-2.27874 46.09808,-8.28346 60.59735,-22.63234 4.89276,-4.84201 8.54713,-9.36799 8.12083,-10.05776 -0.4263,-0.68976 -0.16243,-1.25412 0.58636,-1.25412 1.92877,0 8.24936,-14.4707 11.0831,-25.37429 3.1651,-12.17855 4.36211,-37.68317 2.08111,-44.34187 -1.33998,-3.91171 -2.41266,-4.98637 -5.88652,-5.89738 -10.02301,-2.62854 -52.18899,1.72469 -52.18899,5.388 0,0.65343 -0.55342,0.84601 -1.22981,0.42798 -3.57188,-2.20754 -23.55142,10.86539 -31.89609,20.87011 -7.26915,8.71522 -16.91412,30.96686 -14.86191,34.28742 0.36781,0.59513 0.12151,1.26522 -0.54734,1.48913 -0.66884,0.2239 -1.7464,8.29779 -2.39459,17.94199 -1.15841,17.23573 -1.24133,17.59772 -4.85997,21.21636 l -3.68146,3.68146 v -50.51695 -50.51695 l 3.33767,-0.87049 c 1.83572,-0.47877 5.74238,-1.07391 8.68147,-1.32256 7.54417,-0.63824 21.90798,-4.75223 31.02435,-8.88579 28.45267,-12.90105 53.49487,-39.70747 65.02493,-69.60591 2.03807,-5.28489 4.26633,-12.15437 4.9517,-15.26551 1.84993,-8.39751 2.85058,-90.95219 1.15532,-95.31547 l -1.35453,-3.48631 -14.23446,0.57761 c -9.06421,0.36781 -17.92247,1.54632 -24.38804,3.24461 -5.58445,1.46687 -10.26708,2.5027 -10.40582,2.30187 -0.13875,-0.20083 -1.49106,-4.73447 -3.00514,-10.07474 -5.78932,-20.41938 -17.98887,-41.2457 -34.06087,-58.14665 -10.11726,-10.63907 -26.36808,-24.14275 -27.90853,-23.1907 -0.54511,0.33689 -1.30426,-0.20358 -1.68702,-1.20104 -1.4458,-3.76767 -8.56383,-2.13365 -16.72009,3.83828 -11.08525,8.11649 -26.96752,23.80344 -35.07432,34.64297 -8.20811,10.975 -18.08041,30.5948 -21.86334,43.45029 -1.47325,5.00651 -3.01737,9.46687 -3.43139,9.91192 -0.41403,0.44505 -4.849,-0.21944 -9.8555,-1.47665 -11.53329,-2.89616 -33.33197,-4.98181 -37.09909,-3.54956 -1.95584,0.74361 -3.07538,2.42182 -3.64651,5.46619 -0.45329,2.41623 -0.53771,23.33168 -0.18761,46.47878 0.71845,47.50137 1.07348,49.93837 10.07754,69.17536 9.23967,19.74034 20.31235,34.10037 35.56502,46.12384 8.15142,6.42564 22.50789,14.87783 25.67612,15.11648 1.3114,0.0988 2.38436,0.58391 2.38436,1.07804 0,1.41339 22.40374,8.22506 28.81397,8.76066 3.17702,0.26545 7.27836,0.87454 9.11408,1.35355 l 3.33766,0.87093 v 85.05431 85.05432 l -3.53666,-3.38834 c -3.77432,-3.61602 -4.43745,-6.75077 -5.54126,-26.19454 -1.21685,-21.43484 -8.79753,-39.75152 -21.85662,-52.81059 -15.38843,-15.38844 -31.94699,-21.19354 -62.82358,-22.02471 -13.40992,-0.36098 -19.11574,-0.11591 -19.11574,0.82107 0,0.7346 -0.48428,1.03634 -1.07617,0.67053 -0.5919,-0.36582 -1.82077,0.23097 -2.73082,1.32619 -1.86172,2.24051 -2.286,24.62412 -0.71356,37.64526 1.20148,9.94923 5.09223,22.38678 9.79734,31.31906 4.54782,8.63368 16.05632,20.70936 24.31368,25.51193 13.10833,7.62396 34.46274,12.7151 53.40067,12.73132 l 8.34874,0.007 10.76699,10.53607 10.76699,10.53606 v 27.29642 c 0,23.69638 0.26492,27.58912 2.00866,29.51594 2.88575,3.18871 9.49815,2.9227 11.88005,-0.47792 z"
     id="path1310"
     transform="scale(0.75)" />
  <path
     style="fill:#ffffff;stroke:none;stroke-width:1.2137"
     d="m 446.72402,368.24992 c -32.87689,-6.44909 -60.94021,-28.06595 -75.90686,-58.47021 -9.66997,-19.6442 -10.64048,-25.34227 -11.26341,-66.12995 -0.32216,-21.09336 -0.0908,-35.50065 0.57004,-35.50065 3.29108,0 16.53012,2.87719 23.4046,5.08643 17.24144,5.54086 31.98772,14.87041 44.98127,28.45835 9.78148,10.22894 14.69428,17.3315 20.13842,29.11463 8.34525,18.06221 9.22655,23.73373 9.83025,63.2617 l 0.54219,35.50065 -3.45911,-0.13298 c -1.90251,-0.0732 -5.87934,-0.60773 -8.83739,-1.18797 z"
     id="path1386"
     transform="scale(0.75)" />
  <path
     style="fill:#ffffff;stroke:none;stroke-width:1.2137"
     d="m 474.5557,338.92041 c 0,-42.41076 2.89805,-57.12839 15.45158,-78.47006 9.11369,-15.49377 27.85812,-32.74233 44.62644,-41.06509 10.81385,-5.36733 30.96262,-11.23615 38.57582,-11.23615 0.66086,0 0.8922,14.40729 0.57005,35.50065 -0.48226,31.57651 -0.83322,36.57392 -3.17499,45.21023 -7.49351,27.63562 -25.51021,51.65028 -49.42078,65.8735 -11.47491,6.82587 -28.2199,12.84671 -39.64936,14.25636 l -6.97876,0.86072 z"
     id="path1462"
     transform="scale(0.75)" />
  <path
     style="fill:#ffffff;stroke:none;stroke-width:1.2137"
     d="m 463.16403,263.3744 c -8.00466,-18.37418 -26.12653,-39.59341 -43.01793,-50.3705 -9.73486,-6.21105 -9.80009,-6.40502 -6.34613,-18.86906 6.6357,-23.94572 22.07281,-46.92869 43.52219,-64.79636 10.09338,-8.40795 9.03731,-8.4772 20.56625,1.34857 14.56361,12.41212 28.22794,30.26771 35.59236,46.50959 3.79061,8.36001 8.45231,23.95531 8.33793,27.89383 -0.0486,1.67203 -2.78131,4.18881 -8.5925,7.91343 -16.79333,10.76352 -31.34542,27.31636 -41.19831,46.86264 l -5.57441,11.05858 z"
     id="path1538"
     transform="scale(0.75)" />
  <path
     style="fill:#ffffff;stroke:none;stroke-width:1.2137"
     d="m 407.19549,543.73726 c -16.06843,-3.58952 -25.13131,-8.26125 -33.60925,-17.32485 -10.22032,-10.92635 -15.39625,-25.25205 -16.43385,-45.4848 l -0.6691,-13.04725 5.93694,0.005 c 3.26532,0.003 10.57934,0.76482 16.25337,1.69395 29.74194,4.87029 45.38965,18.44361 52.26841,45.33931 1.29139,5.04927 2.34798,11.09942 2.34798,13.44477 v 4.26426 l -9.40616,-9.14177 c -10.24231,-9.95443 -13.32229,-11.59861 -17.55277,-9.37018 -3.65735,1.92655 -4.55625,3.42243 -4.57862,7.61945 -0.0146,2.73761 2.11205,5.66882 9.90628,13.6541 9.47845,9.71077 9.76506,10.16379 6.37191,10.07164 -1.95412,-0.0531 -6.82994,-0.82853 -10.83514,-1.72325 z"
     id="path1614"
     transform="scale(0.75)" />
  <path
     style="fill:#ffffff;stroke:none;stroke-width:1.2137"
     d="m 521.67461,464.99442 c 10.64937,-10.9104 12.34661,-15.17905 7.70533,-19.37935 -4.72233,-4.27365 -8.59039,-2.67467 -19.29824,7.97755 l -10.03835,9.98621 v -4.93727 c 0,-2.7155 1.07891,-9.1558 2.39759,-14.31177 7.57005,-29.59862 26.50706,-43.15284 64.65919,-46.28 l 9.40616,-0.77098 v 9.25745 c 0,28.17162 -11.69871,51.16888 -30.77476,60.49687 -7.97278,3.89861 -23.43622,8.12942 -29.7127,8.12942 h -4.26909 z"
     id="path1690"
     transform="scale(0.75)" />
</svg>
