<?xml version="1.0" encoding="UTF-8" standalone="no"?>
<svg
   width="700pt"
   height="700pt"
   version="1.1"
   viewBox="0 0 700 700"
   id="svg1108"
   sodipodi:docname="flower2.svg"
   inkscape:version="1.1.2 (b8e25be833, 2022-02-05)"
   xmlns:inkscape="http://www.inkscape.org/namespaces/inkscape"
   xmlns:sodipodi="http://sodipodi.sourceforge.net/DTD/sodipodi-0.dtd"
   xmlns="http://www.w3.org/2000/svg"
   xmlns:svg="http://www.w3.org/2000/svg">
  <sodipodi:namedview
     id="namedview1110"
     pagecolor="#ffffff"
     bordercolor="#666666"
     borderopacity="1.0"
     inkscape:pageshadow="2"
     inkscape:pageopacity="0.0"
     inkscape:pagecheckerboard="0"
     inkscape:document-units="pt"
     showgrid="false"
     inkscape:zoom="0.82392857"
     inkscape:cx="466.05982"
     inkscape:cy="563.76246"
     inkscape:window-width="1920"
     inkscape:window-height="991"
     inkscape:window-x="-9"
     inkscape:window-y="-9"
     inkscape:window-maximized="1"
     inkscape:current-layer="svg1108" />
  <defs
     id="defs1028">
    <symbol
       id="t"
       overflow="visible">
      <path
         d="m18.766-1.125c-0.96875 0.5-1.9805 0.875-3.0312 1.125-1.043 0.25781-2.1367 0.39062-3.2812 0.39062-3.3984 0-6.0898-0.94531-8.0781-2.8438-1.9922-1.9062-2.9844-4.4844-2.9844-7.7344 0-3.2578 0.99219-5.8359 2.9844-7.7344 1.9883-1.9062 4.6797-2.8594 8.0781-2.8594 1.1445 0 2.2383 0.13281 3.2812 0.39062 1.0508 0.25 2.0625 0.625 3.0312 1.125v4.2188c-0.98047-0.65625-1.9453-1.1406-2.8906-1.4531-0.94922-0.3125-1.9492-0.46875-3-0.46875-1.875 0-3.3516 0.60547-4.4219 1.8125-1.0742 1.1992-1.6094 2.8555-1.6094 4.9688 0 2.1055 0.53516 3.7617 1.6094 4.9688 1.0703 1.1992 2.5469 1.7969 4.4219 1.7969 1.0508 0 2.0508-0.14844 3-0.45312 0.94531-0.3125 1.9102-0.80078 2.8906-1.4688z"
         id="path968" />
    </symbol>
    <symbol
       id="e"
       overflow="visible">
      <path
         d="m13.734-11.141c-0.4375-0.19531-0.87109-0.34375-1.2969-0.4375-0.41797-0.10156-0.83984-0.15625-1.2656-0.15625-1.2617 0-2.2305 0.40625-2.9062 1.2188-0.67969 0.80469-1.0156 1.9531-1.0156 3.4531v7.0625h-4.8906v-15.312h4.8906v2.5156c0.625-1 1.3438-1.7266 2.1562-2.1875 0.82031-0.46875 1.8008-0.70312 2.9375-0.70312 0.16406 0 0.34375 0.011719 0.53125 0.03125 0.19531 0.011719 0.47656 0.039062 0.84375 0.078125z"
         id="path971" />
    </symbol>
    <symbol
       id="a"
       overflow="visible">
      <path
         d="m17.641-7.7031v1.4062h-11.453c0.125 1.1484 0.53906 2.0078 1.25 2.5781 0.70703 0.57422 1.7031 0.85938 2.9844 0.85938 1.0312 0 2.082-0.14844 3.1562-0.45312 1.082-0.3125 2.1914-0.77344 3.3281-1.3906v3.7656c-1.1562 0.4375-2.3125 0.76562-3.4688 0.98438-1.1562 0.22656-2.3125 0.34375-3.4688 0.34375-2.7734 0-4.9297-0.70312-6.4688-2.1094-1.5312-1.4062-2.2969-3.3789-2.2969-5.9219 0-2.5 0.75391-4.4609 2.2656-5.8906 1.5078-1.4375 3.582-2.1562 6.2188-2.1562 2.4062 0 4.332 0.73047 5.7812 2.1875 1.4453 1.4492 2.1719 3.3828 2.1719 5.7969zm-5.0312-1.625c0-0.92578-0.27344-1.6719-0.8125-2.2344-0.54297-0.57031-1.25-0.85938-2.125-0.85938-0.94922 0-1.7188 0.26562-2.3125 0.79688s-0.96484 1.2969-1.1094 2.2969z"
         id="path974" />
    </symbol>
    <symbol
       id="d"
       overflow="visible">
      <path
         d="m9.2188-6.8906c-1.0234 0-1.793 0.17188-2.3125 0.51562-0.51172 0.34375-0.76562 0.85547-0.76562 1.5312 0 0.625 0.20703 1.1172 0.625 1.4688 0.41406 0.34375 0.98828 0.51562 1.7188 0.51562 0.92578 0 1.7031-0.32812 2.3281-0.98438 0.63281-0.66406 0.95312-1.4922 0.95312-2.4844v-0.5625zm7.4688-1.8438v8.7344h-4.9219v-2.2656c-0.65625 0.92969-1.3984 1.6055-2.2188 2.0312-0.82422 0.41406-1.8242 0.625-3 0.625-1.5859 0-2.8711-0.45703-3.8594-1.375-0.99219-0.92578-1.4844-2.1289-1.4844-3.6094 0-1.7891 0.61328-3.1016 1.8438-3.9375 1.2383-0.84375 3.1797-1.2656 5.8281-1.2656h2.8906v-0.39062c0-0.76953-0.30859-1.332-0.92188-1.6875-0.61719-0.36328-1.5703-0.54688-2.8594-0.54688-1.0547 0-2.0312 0.10547-2.9375 0.3125-0.89844 0.21094-1.7305 0.52344-2.5 0.9375v-3.7344c1.0391-0.25 2.0859-0.44141 3.1406-0.57812 1.0625-0.13281 2.125-0.20312 3.1875-0.20312 2.7578 0 4.75 0.54688 5.9688 1.6406 1.2266 1.0859 1.8438 2.8555 1.8438 5.3125z"
         id="path977" />
    </symbol>
    <symbol
       id="c"
       overflow="visible">
      <path
         d="m7.7031-19.656v4.3438h5.0469v3.5h-5.0469v6.5c0 0.71094 0.14062 1.1875 0.42188 1.4375s0.83594 0.375 1.6719 0.375h2.5156v3.5h-4.1875c-1.9375 0-3.3125-0.39844-4.125-1.2031-0.80469-0.8125-1.2031-2.1797-1.2031-4.1094v-6.5h-2.4219v-3.5h2.4219v-4.3438z"
         id="path980" />
    </symbol>
    <symbol
       id="b"
       overflow="visible">
      <path
         d="m12.766-13.078v-8.2031h4.9219v21.281h-4.9219v-2.2188c-0.66797 0.90625-1.4062 1.5703-2.2188 1.9844s-1.7578 0.625-2.8281 0.625c-1.8867 0-3.4336-0.75-4.6406-2.25-1.2109-1.5-1.8125-3.4258-1.8125-5.7812 0-2.3633 0.60156-4.2969 1.8125-5.7969 1.207-1.5 2.7539-2.25 4.6406-2.25 1.0625 0 2 0.21484 2.8125 0.64062 0.82031 0.42969 1.5664 1.0859 2.2344 1.9688zm-3.2188 9.9219c1.0391 0 1.8359-0.37891 2.3906-1.1406 0.55078-0.76953 0.82812-1.8828 0.82812-3.3438 0-1.457-0.27734-2.5664-0.82812-3.3281-0.55469-0.76953-1.3516-1.1562-2.3906-1.1562-1.043 0-1.8398 0.38672-2.3906 1.1562-0.55469 0.76172-0.82812 1.8711-0.82812 3.3281 0 1.4609 0.27344 2.5742 0.82812 3.3438 0.55078 0.76172 1.3477 1.1406 2.3906 1.1406z"
         id="path983" />
    </symbol>
    <symbol
       id="i"
       overflow="visible">
      <path
         d="m10.5-3.1562c1.0508 0 1.8516-0.37891 2.4062-1.1406 0.55078-0.76953 0.82812-1.8828 0.82812-3.3438 0-1.457-0.27734-2.5664-0.82812-3.3281-0.55469-0.76953-1.3555-1.1562-2.4062-1.1562-1.0547 0-1.8594 0.38672-2.4219 1.1562-0.55469 0.77344-0.82812 1.8828-0.82812 3.3281 0 1.4492 0.27344 2.5586 0.82812 3.3281 0.5625 0.77344 1.3672 1.1562 2.4219 1.1562zm-3.25-9.9219c0.67578-0.88281 1.4219-1.5391 2.2344-1.9688 0.82031-0.42578 1.7656-0.64062 2.8281-0.64062 1.8945 0 3.4453 0.75 4.6562 2.25 1.207 1.5 1.8125 3.4336 1.8125 5.7969 0 2.3555-0.60547 4.2812-1.8125 5.7812-1.2109 1.5-2.7617 2.25-4.6562 2.25-1.0625 0-2.0078-0.21094-2.8281-0.625-0.8125-0.42578-1.5586-1.0859-2.2344-1.9844v2.2188h-4.8906v-21.281h4.8906z"
         id="path986" />
    </symbol>
    <symbol
       id="h"
       overflow="visible">
      <path
         d="m0.34375-15.312h4.8906l4.125 10.391 3.5-10.391h4.8906l-6.4375 16.766c-0.64844 1.6953-1.4023 2.8828-2.2656 3.5625-0.86719 0.6875-2 1.0312-3.4062 1.0312h-2.8438v-3.2188h1.5312c0.83203 0 1.4375-0.13672 1.8125-0.40625 0.38281-0.26172 0.67969-0.73047 0.89062-1.4062l0.14062-0.42188z"
         id="path989" />
    </symbol>
    <symbol
       id="g"
       overflow="visible">
      <path
         d="m2.5781-20.406h6.6875l4.6562 10.922 4.6719-10.922h6.6875v20.406h-4.9844v-14.938l-4.7031 11.016h-3.3281l-4.7031-11.016v14.938h-4.9844z"
         id="path992" />
    </symbol>
    <symbol
       id="s"
       overflow="visible">
      <path
         d="m6.2188-7.8281-5.5156-7.4844h5.1719l3.1406 4.5312 3.1719-4.5312h5.1719l-5.5156 7.4531 5.7969 7.8594h-5.1875l-3.4375-4.8438-3.4062 4.8438h-5.1875z"
         id="path995" />
    </symbol>
    <symbol
       id="r"
       overflow="visible">
      <path
         d="m12.422-21.281v3.2188h-2.7031c-0.6875 0-1.1719 0.125-1.4531 0.375-0.27344 0.25-0.40625 0.6875-0.40625 1.3125v1.0625h4.1875v3.5h-4.1875v11.812h-4.8906v-11.812h-2.4375v-3.5h2.4375v-1.0625c0-1.6641 0.46094-2.8984 1.3906-3.7031 0.92578-0.80078 2.3672-1.2031 4.3281-1.2031z"
         id="path998" />
    </symbol>
    <symbol
       id="f"
       overflow="visible">
      <path
         d="m9.6406-12.188c-1.0859 0-1.9141 0.39062-2.4844 1.1719-0.57422 0.78125-0.85938 1.9062-0.85938 3.375s0.28516 2.5938 0.85938 3.375c0.57031 0.77344 1.3984 1.1562 2.4844 1.1562 1.0625 0 1.875-0.38281 2.4375-1.1562 0.57031-0.78125 0.85938-1.9062 0.85938-3.375s-0.28906-2.5938-0.85938-3.375c-0.5625-0.78125-1.375-1.1719-2.4375-1.1719zm0-3.5c2.6328 0 4.6914 0.71484 6.1719 2.1406 1.4766 1.418 2.2188 3.3867 2.2188 5.9062 0 2.5117-0.74219 4.4805-2.2188 5.9062-1.4805 1.418-3.5391 2.125-6.1719 2.125-2.6484 0-4.7148-0.70703-6.2031-2.125-1.4922-1.4258-2.2344-3.3945-2.2344-5.9062 0-2.5195 0.74219-4.4883 2.2344-5.9062 1.4883-1.4258 3.5547-2.1406 6.2031-2.1406z"
         id="path1001" />
    </symbol>
    <symbol
       id="q"
       overflow="visible">
      <path
         d="m16.547-12.766c0.61328-0.94531 1.3477-1.6719 2.2031-2.1719 0.85156-0.5 1.7891-0.75 2.8125-0.75 1.7578 0 3.0977 0.54688 4.0156 1.6406 0.92578 1.0859 1.3906 2.6562 1.3906 4.7188v9.3281h-4.9219v-7.9844-0.35938c0.007813-0.13281 0.015625-0.32031 0.015625-0.5625 0-1.082-0.16406-1.8633-0.48438-2.3438-0.3125-0.48828-0.82422-0.73438-1.5312-0.73438-0.92969 0-1.6484 0.38672-2.1562 1.1562-0.51172 0.76172-0.77344 1.8672-0.78125 3.3125v7.5156h-4.9219v-7.9844c0-1.6953-0.14844-2.7852-0.4375-3.2656-0.29297-0.48828-0.8125-0.73438-1.5625-0.73438-0.9375 0-1.6641 0.38672-2.1719 1.1562-0.51172 0.76172-0.76562 1.8594-0.76562 3.2969v7.5312h-4.9219v-15.312h4.9219v2.2344c0.60156-0.86328 1.2891-1.5156 2.0625-1.9531 0.78125-0.4375 1.6406-0.65625 2.5781-0.65625 1.0625 0 2 0.25781 2.8125 0.76562 0.8125 0.51172 1.4258 1.2305 1.8438 2.1562z"
         id="path1004" />
    </symbol>
    <symbol
       id="p"
       overflow="visible">
      <path
         d="m17.75-9.3281v9.3281h-4.9219v-7.1094c0-1.3438-0.03125-2.2656-0.09375-2.7656s-0.16797-0.86719-0.3125-1.1094c-0.1875-0.3125-0.44922-0.55469-0.78125-0.73438-0.32422-0.17578-0.69531-0.26562-1.1094-0.26562-1.0234 0-1.8242 0.39844-2.4062 1.1875-0.58594 0.78125-0.875 1.8711-0.875 3.2656v7.5312h-4.8906v-21.281h4.8906v8.2031c0.73828-0.88281 1.5195-1.5391 2.3438-1.9688 0.83203-0.42578 1.75-0.64062 2.75-0.64062 1.7695 0 3.1133 0.54688 4.0312 1.6406 0.91406 1.0859 1.375 2.6562 1.375 4.7188z"
         id="path1007" />
    </symbol>
    <symbol
       id="o"
       overflow="visible">
      <path
         d="m2.5781-20.406h5.875l7.4219 14v-14h4.9844v20.406h-5.875l-7.4219-14v14h-4.9844z"
         id="path1010" />
    </symbol>
    <symbol
       id="n"
       overflow="visible">
      <path
         d="m2.1875-5.9688v-9.3438h4.9219v1.5312c0 0.83594-0.007813 1.875-0.015625 3.125-0.011719 1.25-0.015625 2.0859-0.015625 2.5 0 1.2422 0.03125 2.1328 0.09375 2.6719 0.070313 0.54297 0.17969 0.93359 0.32812 1.1719 0.20703 0.32422 0.47266 0.57422 0.79688 0.75 0.32031 0.16797 0.69141 0.25 1.1094 0.25 1.0195 0 1.8203-0.39062 2.4062-1.1719 0.58203-0.78125 0.875-1.8672 0.875-3.2656v-7.5625h4.8906v15.312h-4.8906v-2.2188c-0.74219 0.89844-1.5234 1.5586-2.3438 1.9844-0.82422 0.41406-1.7344 0.625-2.7344 0.625-1.7617 0-3.1055-0.53906-4.0312-1.625-0.92969-1.082-1.3906-2.6602-1.3906-4.7344z"
         id="path1013" />
    </symbol>
    <symbol
       id="m"
       overflow="visible">
      <path
         d="m17.75-9.3281v9.3281h-4.9219v-7.1406c0-1.3203-0.03125-2.2344-0.09375-2.7344s-0.16797-0.86719-0.3125-1.1094c-0.1875-0.3125-0.44922-0.55469-0.78125-0.73438-0.32422-0.17578-0.69531-0.26562-1.1094-0.26562-1.0234 0-1.8242 0.39844-2.4062 1.1875-0.58594 0.78125-0.875 1.8711-0.875 3.2656v7.5312h-4.8906v-15.312h4.8906v2.2344c0.73828-0.88281 1.5195-1.5391 2.3438-1.9688 0.83203-0.42578 1.75-0.64062 2.75-0.64062 1.7695 0 3.1133 0.54688 4.0312 1.6406 0.91406 1.0859 1.375 2.6562 1.375 4.7188z"
         id="path1016" />
    </symbol>
    <symbol
       id="l"
       overflow="visible">
      <path
         d="m2.5781-20.406h8.7344c2.5938 0 4.582 0.57812 5.9688 1.7344 1.3945 1.1484 2.0938 2.7891 2.0938 4.9219 0 2.1367-0.69922 3.7812-2.0938 4.9375-1.3867 1.1562-3.375 1.7344-5.9688 1.7344h-3.4844v7.0781h-5.25zm5.25 3.8125v5.7031h2.9219c1.0195 0 1.8047-0.25 2.3594-0.75 0.5625-0.5 0.84375-1.2031 0.84375-2.1094 0-0.91406-0.28125-1.6172-0.84375-2.1094-0.55469-0.48828-1.3398-0.73438-2.3594-0.73438z"
         id="path1019" />
    </symbol>
    <symbol
       id="k"
       overflow="visible">
      <path
         d="m2.3594-15.312h4.8906v15.031c0 2.0508-0.49609 3.6172-1.4844 4.7031-0.98047 1.082-2.4062 1.625-4.2812 1.625h-2.4219v-3.2188h0.85938c0.92578 0 1.5625-0.21094 1.9062-0.625 0.35156-0.41797 0.53125-1.2461 0.53125-2.4844zm0-5.9688h4.8906v4h-4.8906z"
         id="path1022" />
    </symbol>
    <symbol
       id="j"
       overflow="visible">
      <path
         d="m14.719-14.828v3.9844c-0.65625-0.45703-1.3242-0.79688-2-1.0156-0.66797-0.21875-1.3594-0.32812-2.0781-0.32812-1.3672 0-2.4336 0.40234-3.2031 1.2031-0.76172 0.79297-1.1406 1.9062-1.1406 3.3438 0 1.4297 0.37891 2.543 1.1406 3.3438 0.76953 0.79297 1.8359 1.1875 3.2031 1.1875 0.75781 0 1.4844-0.10938 2.1719-0.32812 0.6875-0.22656 1.3203-0.56641 1.9062-1.0156v4c-0.76172 0.28125-1.5391 0.48828-2.3281 0.625-0.78125 0.14453-1.5742 0.21875-2.375 0.21875-2.7617 0-4.9219-0.70703-6.4844-2.125-1.5547-1.4141-2.3281-3.3828-2.3281-5.9062 0-2.5312 0.77344-4.5039 2.3281-5.9219 1.5625-1.4141 3.7227-2.125 6.4844-2.125 0.80078 0 1.5938 0.074219 2.375 0.21875 0.78125 0.13672 1.5547 0.35156 2.3281 0.64062z"
         id="path1025" />
    </symbol>
  </defs>
  <g
     id="g1106">
    <path
       d="m202.72 341c-26.363 37.266-31.277 77.227-11.113 97.387 20.152 20.156 60.113 15.254 97.387-11.117 7.7109 44.996 32.496 76.727 61.004 76.727s53.293-31.73 61.004-76.723c37.266 26.367 77.223 31.277 97.387 11.117 20.164-20.16 15.254-60.121-11.113-97.387 44.992-7.7109 76.723-32.492 76.723-61.008s-31.73-53.297-76.723-61.004c26.371-37.266 31.277-77.223 11.113-97.387-20.152-20.152-60.113-15.258-97.387 11.117-7.7109-44.996-32.496-76.727-61.004-76.727s-53.293 31.73-61.004 76.723c-37.266-26.363-77.223-31.273-97.387-11.117-20.164 20.164-15.258 60.121 11.113 97.387-44.992 7.7109-76.723 32.492-76.723 61.008s31.73 53.297 76.723 61.004zm10.801-112.23c2.0234-0.23047 3.7617-1.5391 4.543-3.4219 0.78125-1.8828 0.47656-4.043-0.79297-5.6367-27.75-34.797-35.207-72.727-17.746-90.188 17.457-17.465 55.395-9.9883 90.191 17.742 1.5859 1.2773 3.7578 1.5742 5.6328 0.79688 1.8828-0.78125 3.1953-2.5195 3.4219-4.543 4.9922-44.223 26.539-76.324 51.227-76.324s46.234 32.098 51.227 76.32c0.23047 2.0234 1.543 3.7656 3.4219 4.543 1.8984 0.78516 4.0469 0.47656 5.6328-0.79688 34.797-27.738 72.73-35.203 90.191-17.742 17.461 17.461 10.004 55.391-17.746 90.188-1.2695 1.5938-1.5742 3.75-0.79297 5.6367 0.78125 1.8828 2.5195 3.1914 4.543 3.4219 44.227 4.9961 76.324 26.539 76.324 51.23s-32.098 46.234-76.32 51.227c-2.0234 0.22656-3.7617 1.5391-4.543 3.4219-0.78125 1.8828-0.47656 4.043 0.79297 5.6328 27.742 34.805 35.203 72.734 17.746 90.191-17.457 17.469-55.387 9.9922-90.191-17.742-1.5859-1.2773-3.7578-1.5781-5.6328-0.79688-1.8828 0.78125-3.1953 2.5195-3.4219 4.543-4.9961 44.223-26.543 76.324-51.23 76.324s-46.234-32.098-51.227-76.32c-0.23047-2.0234-1.543-3.7656-3.4219-4.543-0.69531-0.28516-1.4219-0.42578-2.1445-0.42578-1.2461 0-2.4844 0.41797-3.4883 1.2227-34.805 27.734-72.734 35.203-90.191 17.742-17.457-17.461-9.9961-55.391 17.746-90.191 1.2695-1.5898 1.5742-3.75 0.79297-5.6328-0.78125-1.8828-2.5195-3.1953-4.543-3.4219-44.227-4.9961-76.324-26.539-76.324-51.23s32.098-46.234 76.324-51.227z"
       id="path1030" />
    <path
       d="m234.29 285.6h52.539c1.168 13.293 6.4336 25.418 14.551 35.102l-37.156 37.156c-2.1875 2.1875-2.1875 5.7305 0 7.918 1.0938 1.0938 2.5273 1.6406 3.9609 1.6406s2.8672-0.54688 3.9609-1.6406l37.156-37.156c9.6797 8.1172 21.809 13.383 35.102 14.555v52.539c0 3.0938 2.5039 5.6016 5.6016 5.6016 3.0938 0 5.6016-2.5078 5.6016-5.6016v-52.539c13.293-1.1719 25.422-6.4336 35.102-14.555l37.156 37.156c1.0938 1.0938 2.5273 1.6406 3.9609 1.6406s2.8672-0.54688 3.9609-1.6406c2.1875-2.1875 2.1875-5.7305 0-7.918l-37.156-37.156c8.1016-9.6836 13.367-21.809 14.539-35.102h52.539c3.0938 0 5.6016-2.5078 5.6016-5.6016s-2.5039-5.6016-5.6016-5.6016h-52.539c-1.168-13.293-6.4336-25.418-14.551-35.102l37.156-37.156c2.1875-2.1875 2.1875-5.7305 0-7.918s-5.7305-2.1875-7.918 0l-37.156 37.156c-9.6836-8.1172-21.809-13.383-35.102-14.551v-52.539c0-3.0938-2.5039-5.6016-5.6016-5.6016-3.0938 0-5.6016 2.5078-5.6016 5.6016v52.539c-13.293 1.1719-25.422 6.4336-35.102 14.555l-37.156-37.156c-2.1875-2.1875-5.7305-2.1875-7.918 0s-2.1875 5.7305 0 7.918l37.156 37.156c-8.1133 9.6797-13.379 21.805-14.551 35.098h-52.539c-3.0938 0-5.6016 2.5078-5.6016 5.6016 0.003906 3.0938 2.5078 5.6016 5.6055 5.6016zm115.71-57.859c28.816 0 52.254 23.441 52.254 52.258s-23.438 52.258-52.254 52.258-52.254-23.441-52.254-52.258 23.438-52.258 52.254-52.258z"
       id="path1032" />
  </g>
  <path
     style="fill:#e9afaf;stroke:none;stroke-width:1.2137"
     d="m 449.39269,651.75241 c -20.33834,-10.17487 -36.33843,-34.66687 -45.19223,-69.17764 -1.88383,-7.34287 -3.80851,-16.75776 -4.27708,-20.92199 -0.95417,-8.47988 -4.11821,-13.66838 -8.3352,-13.66838 -1.47802,0 -8.57936,4.05661 -15.78075,9.01471 -15.12694,10.41475 -27.9313,17.2794 -40.80804,21.8779 -43.46751,15.52301 -75.21922,3.24994 -80.15875,-30.98396 -3.25985,-22.5927 7.83886,-55.29542 28.59654,-84.26063 11.98347,-16.72171 10.84224,-21.14563 -6.10731,-23.67474 -60.67426,-9.05345 -101.80436,-42.94579 -92.25736,-76.02261 2.56162,-8.87506 5.54601,-13.83197 13.32132,-22.12596 16.91015,-18.03823 44.4719,-29.74554 84.66208,-35.96164 10.87214,-1.68156 10.9805,-7.85113 0.39772,-22.64468 -20.66475,-28.88706 -32.00742,-62.57332 -28.50658,-84.66094 7.47465,-47.15934 63.19336,-50.42007 123.3086,-7.2162 16.02808,11.51913 18.82614,10.22225 22.34507,-10.35684 7.27691,-42.55598 26.21619,-75.81839 49.33972,-86.653632 10.01669,-4.693631 23.43576,-4.693631 33.45246,0 23.12352,10.835242 42.06281,44.097652 49.33971,86.653632 3.5194,20.58175 6.30182,21.86974 22.32919,10.33621 60.03124,-43.19935 115.84962,-39.92386 123.32448,7.23683 3.50084,22.08762 -7.84182,55.77388 -28.50658,84.66094 -10.95995,15.32079 -10.56256,21.00532 1.58691,22.69972 43.07351,6.00719 78.31665,23.85597 92.16485,46.6766 22.02379,36.29333 -18.92683,77.1274 -87.62799,87.37857 -16.94957,2.52911 -18.09078,6.95303 -6.10732,23.67474 38.64333,53.92282 38.56855,107.56033 -0.16664,119.52441 -23.06306,7.12345 -55.45037,-1.45139 -87.67677,-23.21325 -6.28061,-4.24119 -12.83457,-8.66415 -14.56437,-9.82883 -7.82926,-5.27145 -12.30615,-1.00602 -14.50816,13.8229 -6.24096,42.02809 -25.13057,75.85356 -49.03957,87.81476 -7.36319,3.68364 -9.66885,4.25106 -17.27397,4.25106 -7.60513,0 -9.91079,-0.56742 -17.27398,-4.25106 z m 22.73562,-118.33238 c 2.31889,-2.31889 2.42739,-4.04566 2.42739,-38.63163 v -36.20423 l 9.40616,-2.0536 c 11.8619,-2.58976 20.87844,-6.29001 29.86959,-12.25799 l 7.05471,-4.68265 25.07924,25.00002 c 14.74266,14.69608 26.35148,25.30663 28.16602,25.74394 4.4896,1.08202 9.65705,-3.28637 9.65705,-8.16376 0,-3.24127 -3.38113,-7.15085 -25.37772,-29.34407 l -25.37771,-25.60456 3.04617,-4.24794 c 6.95024,-9.69221 14.93943,-30.27372 14.93943,-38.48647 v -2.77924 h 36.41092 c 34.79267,0 36.51881,-0.1079 38.83832,-2.4274 2.43371,-2.43371 3.19008,-7.84482 1.47384,-10.54392 -2.17314,-3.41765 -8.502,-4.02045 -42.21172,-4.02045 h -34.51136 v -2.75521 c 0,-8.62562 -8.83521,-30.56661 -15.95169,-39.61374 l -2.34476,-2.98088 25.53314,-25.63408 c 21.34165,-21.42602 25.53314,-26.20551 25.53314,-29.11508 0,-4.67306 -3.18278,-7.92008 -7.76337,-7.92008 -3.25702,0 -7.07931,3.33054 -29.27874,25.51196 l -25.53266,25.51195 -4.21326,-3.15682 c -9.81328,-7.35269 -21.20587,-11.91444 -39.10707,-15.65903 l -3.33767,-0.69817 -0.0186,-36.08438 c -0.01,-19.8464 -0.41984,-36.68531 -0.91027,-37.41981 -1.58512,-2.37393 -6.38094,-4.28102 -8.81938,-3.50708 -6.0196,1.91054 -6.02985,1.97972 -6.02985,40.71016 v 36.30111 l -3.33766,0.69817 c -17.78473,3.72022 -29.3069,8.31277 -38.89605,15.50333 l -4.00224,3.00115 -25.47557,-25.35628 c -22.2894,-22.18502 -25.95124,-25.35626 -29.27887,-25.35626 -4.94696,0 -8.24238,3.08224 -8.24238,7.7092 0,3.18392 3.50872,7.21448 25.50095,29.29364 l 25.50095,25.60176 -3.14477,4.19835 c -6.96632,9.30019 -15.0873,30.00237 -15.0873,38.46091 v 2.75521 H 347.8033 c -33.70972,0 -40.03858,0.6028 -42.21172,4.02045 -1.71624,2.6991 -0.95986,8.11021 1.47384,10.54392 2.31951,2.31951 4.04566,2.4274 38.83832,2.4274 h 36.41092 v 2.77924 c 0,8.52551 7.53766,27.91361 14.76456,37.97689 l 3.92523,5.4658 -25.7298,25.7507 c -20.63789,20.65465 -25.72982,26.39175 -25.72982,28.98994 0,4.37157 5.43155,8.68185 9.65705,7.66347 1.81451,-0.43731 13.42136,-11.04586 28.16043,-25.73836 l 25.07364,-24.99443 8.86769,5.67347 c 8.62442,5.51783 21.83631,10.52959 32.31575,12.25855 l 5.15821,0.85103 v 36.30424 c 0,34.68598 0.10814,36.41244 2.4274,38.73164 1.33507,1.33506 3.7928,2.42739 5.46164,2.42739 1.66883,0 4.12657,-1.09233 5.46164,-2.42739 z"
     id="path1770"
     transform="scale(0.75)" />
  <path
     style="fill:#de8787;stroke:none;stroke-width:1.2137"
     d="m 460.59818,654.85476 c -8.5718,-1.37235 -16.6437,-6.32737 -26.74433,-16.41728 -14.2754,-14.26024 -23.28506,-32.60467 -30.36412,-61.824 -1.63153,-6.73429 -2.97914,-13.60958 -2.99466,-15.27841 -0.0155,-1.66884 -1.08185,-5.35544 -2.36962,-8.19246 -3.44663,-7.59307 -6.31436,-7.09846 -23.80361,4.10553 -17.79642,11.40077 -31.89915,18.54681 -45.40983,23.00979 -9.20854,3.04186 -12.08876,3.41441 -26.82003,3.46919 l -16.50361,0.0613 -8.33151,-4.24794 c -13.83372,-7.05332 -20.67779,-18.39366 -22.01635,-36.48015 -1.59505,-21.55228 8.66896,-49.72554 29.0273,-79.67585 8.26268,-12.15569 9.49815,-17.64632 4.65171,-20.67296 -1.26135,-0.78773 -9.28909,-2.84871 -17.83942,-4.57996 -41.67531,-8.43829 -70.66,-25.31309 -82.49484,-48.02822 -2.91047,-5.5862 -3.43096,-8.0352 -3.46102,-16.28458 -0.0449,-12.32837 3.56849,-20.62719 13.52745,-31.06812 16.05203,-16.82888 36.83073,-26.63218 71.92065,-33.93187 9.63403,-2.00415 18.23611,-4.24119 19.11573,-4.97122 2.15704,-1.79018 2.01943,-7.62042 -0.28505,-12.07677 -1.0364,-2.00418 -5.1802,-8.66325 -9.20845,-14.79794 -19.9336,-30.35719 -29.10412,-62.43168 -23.66826,-82.7813 2.46183,-9.21607 6.01451,-15.27495 12.5304,-21.3698 9.00645,-8.42449 14.89874,-10.19477 33.7608,-10.14315 14.51744,0.0397 16.67049,0.35152 26.9476,3.90223 14.65462,5.06313 27.12199,11.42743 43.32427,22.11602 15.26584,10.07083 18.21421,11.42744 21.27529,9.7892 3.01442,-1.61327 4.41224,-5.60323 8.01547,-22.87944 6.84032,-32.79705 18.32762,-56.24251 35.04033,-71.51699 10.40494,-9.509534 16.17863,-11.848654 29.2462,-11.848654 13.06756,0 18.84125,2.33912 29.2462,11.848654 16.71271,15.27448 28.2,38.71994 35.04033,71.51699 3.60322,17.27621 5.00104,21.26617 8.01546,22.87944 3.08961,1.65351 6.43203,0.12036 20.90075,-9.58709 15.22606,-10.21558 28.87976,-17.19343 43.69881,-22.3327 10.39078,-3.60354 12.31192,-3.87561 27.55445,-3.90223 18.93618,-0.0331 23.62961,1.43286 33.38877,10.42853 6.25293,5.76376 9.84633,11.92995 12.29559,21.09899 5.5474,20.76721 -4.1457,53.58927 -25.09028,84.95882 -7.63643,11.43738 -9.6708,15.60617 -9.6708,19.81713 0,4.9441 1.89378,6.08359 13.50271,8.12464 44.27971,7.78514 77.02171,25.85516 89.19941,49.22836 2.91047,5.5862 3.43096,8.03519 3.46102,16.28457 0.0449,12.33481 -3.56245,20.61178 -13.56891,31.13307 -16.33476,17.17518 -40.30733,28.41233 -74.43018,34.88918 -15.61954,2.96473 -16.9076,3.43831 -18.09708,6.65381 -1.47629,3.99078 0.23016,7.92331 9.60081,22.12516 25.83216,39.1504 32.93536,72.90343 20.35327,96.71483 -8.20775,15.53303 -25.21391,22.47436 -49.00737,20.00312 -18.28905,-1.89955 -40.88104,-11.51725 -64.75881,-27.56868 -20.03537,-13.46845 -22.05318,-12.56807 -26.67105,11.90114 -10.40024,55.10896 -40.18461,91.33664 -71.03159,86.39802 z m 11.73798,-121.016 c 2.05568,-1.86036 2.21954,-4.67931 2.21954,-38.18468 v -36.17603 l 5.15821,-1.30151 c 14.97491,-3.77844 25.4721,-7.71724 32.26103,-12.10514 4.16321,-2.69081 7.87281,-4.89238 8.24354,-4.89238 0.37075,0 11.56807,10.56828 24.88295,23.48507 13.31486,12.91679 25.56969,24.21337 27.23294,25.10351 6.3471,3.39687 12.90384,-2.59513 11.02614,-10.07647 -0.43864,-1.74771 -11.29517,-13.86359 -24.945,-27.83862 l -24.16834,-24.74415 4.15609,-6.59154 c 5.52173,-8.75745 11.47143,-24.43483 12.29255,-32.39068 l 0.66243,-6.41829 h 36.44898 c 41.02157,0 40.88806,0.0279 40.88806,-8.53538 0,-7.83081 0.11214,-7.80816 -40.68005,-8.21767 l -36.67035,-0.36814 -0.66591,-6.45196 c -0.82424,-7.98628 -6.87253,-23.45177 -12.52471,-32.02578 l -4.24815,-6.44417 24.33887,-24.91874 c 13.38637,-13.7053 24.66911,-26.23454 25.07275,-27.84278 1.81135,-7.21701 -2.57073,-11.53373 -9.85298,-9.706 -1.69029,0.42424 -14.06734,11.58246 -27.85977,25.1163 l -24.81825,24.35292 -4.03084,-3.07449 c -6.48467,-4.9461 -19.2934,-10.40548 -31.14991,-13.27682 l -11.02033,-2.66885 -0.015,-36.68637 -0.015,-36.68636 -2.95579,-1.93672 c -4.15017,-2.71929 -9.38367,-1.84507 -11.25914,1.88076 -1.12002,2.22503 -1.53612,12.42109 -1.56022,38.23147 l -0.0329,35.19722 -11.02032,2.66885 c -11.87806,2.87656 -24.66714,8.33218 -31.18326,13.30227 l -4.06421,3.09992 -25.26684,-25.01016 c -23.29931,-23.06264 -25.60115,-25.01016 -29.56026,-25.01016 -5.24071,0 -8.1079,2.62424 -8.1079,7.42087 0,4.25161 2.90473,7.6394 30.65403,35.75194 l 19.25369,19.50572 -4.3451,6.58877 c -5.56864,8.44414 -11.62192,24.11672 -12.46328,32.26876 l -0.65575,6.35359 -36.67035,0.36814 c -40.61717,0.40776 -40.68004,0.42013 -40.68004,8.00678 0,8.83966 -0.43619,8.74627 40.84697,8.74627 h 36.82966 v 4.78245 c 0,8.01878 8.13946,27.86809 16.04106,39.11857 1.22248,1.74061 -2.05215,5.58018 -23.0764,27.05757 -13.757,14.0535 -24.83903,26.37575 -25.2718,28.10004 -1.75178,6.97966 4.90076,12.26075 11.19881,8.89013 1.63824,-0.87675 13.93345,-12.23989 27.32271,-25.25141 l 24.34411,-23.65731 3.22965,2.10601 c 7.42391,4.84105 23.22537,11.76902 31.14468,13.65502 4.67273,1.11281 9.17858,2.19793 10.013,2.41135 1.17094,0.29949 1.51712,8.61412 1.51712,36.43805 0,31.84171 0.23449,36.30913 2.00866,38.26956 2.5028,2.76557 8.60388,2.87698 11.54987,0.21088 z"
     id="path1883"
     transform="scale(0.75)" />
  <path
     style="fill:#f4d7d7;stroke:none;stroke-width:1.2137"
     d="m 455.98938,653.11368 c -14.42119,-5.37713 -29.90119,-21.17039 -39.39919,-40.19647 -5.13693,-10.2901 -10.69503,-27.69699 -14.30742,-44.80793 -1.7026,-8.06479 -3.90063,-15.89211 -4.8845,-17.39407 -3.1455,-4.80182 -7.34226,-3.47884 -27.92114,8.80184 -32.26932,19.25704 -45.12958,23.61761 -69.73902,23.64663 l -15.21639,0.0179 -8.45071,-5.18035 c -15.20676,-9.32186 -20.67784,-21.33536 -19.70764,-43.27436 0.44849,-10.14163 1.36188,-15.18051 4.3501,-23.99818 4.6387,-13.688 12.21404,-28.84099 22.00819,-44.02315 4.0772,-6.32017 8.05338,-13.62832 8.83596,-16.24033 1.30222,-4.34644 1.19538,-4.93332 -1.26012,-6.92166 -1.47564,-1.19491 -8.00093,-3.35498 -14.50065,-4.80019 -41.24396,-9.17056 -67.5771,-22.43887 -81.61655,-41.12363 -6.94528,-9.24329 -8.91319,-15.43574 -8.23496,-25.91309 0.74882,-11.56801 3.78997,-18.08357 13.07175,-28.00583 15.11721,-16.16035 32.01545,-24.58906 66.1758,-33.00798 28.47779,-7.01845 26.0945,-5.92752 26.0945,-11.94449 0,-4.22888 -1.46753,-7.47115 -8.43774,-18.64182 -10.84358,-17.37824 -17.3822,-30.44557 -22.21834,-44.403 -3.56882,-10.29987 -3.87265,-12.39801 -3.90222,-26.9476 -0.0278,-13.69228 0.31757,-16.53492 2.6129,-21.50335 3.5074,-7.59209 12.62587,-17.17442 19.62344,-20.6217 5.12608,-2.52532 7.32491,-2.78174 23.85208,-2.78155 16.1434,1.9e-4 19.09902,0.32687 26.0945,2.88419 14.01394,5.12304 24.5439,10.43233 41.11157,20.72877 8.92693,5.54788 17.80328,10.68062 19.72522,11.40607 5.89234,2.22411 7.75728,-1.03652 13.15037,-22.99193 8.90698,-36.26052 16.71981,-52.63402 32.70159,-68.53324 11.13889,-11.081347 15.97376,-13.529021 28.1348,-14.243331 15.22444,-0.894247 21.17738,1.519431 33.22548,13.471591 16.84256,16.70845 24.62567,32.84323 33.41748,69.27627 5.00181,20.72734 7.10864,24.72324 12.3427,23.40958 1.56568,-0.39296 9.94437,-5.20134 18.61931,-10.68528 16.08338,-10.16726 28.99228,-16.71387 43.0808,-21.84799 7.02795,-2.56111 9.94238,-2.87491 26.70134,-2.87491 18.21682,0 18.9874,0.10294 24.34376,3.25193 7.1314,4.19252 15.22016,13.00295 18.54723,20.20196 2.25121,4.87113 2.61899,7.82355 2.5967,20.84607 -0.0223,13.05405 -0.48134,16.6109 -3.28913,25.48765 -4.2337,13.38474 -11.78868,28.76715 -22.59636,46.00766 -9.07248,14.47247 -10.92235,21.014 -6.88911,24.36129 0.9844,0.81698 7.94799,2.78183 15.47464,4.36635 35.74633,7.52535 59.13462,18.56992 75.37125,35.59233 3.84289,4.02888 8.39688,10.40462 10.11995,14.16832 2.73268,5.96895 3.06269,8.02806 2.58344,16.11939 -0.76858,12.9762 -3.85099,19.1454 -15.21638,30.4545 -17.78815,17.70006 -39.13284,27.02275 -80.74944,35.26885 -8.04775,1.59462 -11.23325,4.88134 -9.89578,10.21022 0.44107,1.75737 4.55456,9.18529 9.14107,16.50651 17.84386,28.48317 25.37516,47.78898 26.30103,67.42042 1.2803,27.14671 -9.86609,43.77947 -32.56171,48.58889 -21.99832,4.66167 -47.76103,-2.9044 -81.24822,-23.86123 -17.98399,-11.25467 -20.52356,-12.34614 -24.3211,-10.45286 -3.19672,1.59375 -4.41537,5.15583 -10.24284,29.93943 -10.37486,44.1232 -34.35942,74.33579 -60.34271,76.0118 -4.78825,0.30886 -9.37515,-0.14946 -12.25958,-1.22495 z m 16.65908,-119.1735 c 1.64824,-1.64823 1.90724,-6.80245 1.90724,-37.95369 v -36.04645 l 11.2267,-2.9109 c 6.17469,-1.601 16.55269,-5.61604 23.06223,-8.92232 l 11.83553,-6.01143 20.9343,19.8852 c 29.27131,27.8044 30.66102,28.96003 34.8265,28.96003 4.1951,0 7.34751,-3.74287 7.34751,-8.72371 0,-4.01769 -1.7582,-6.13221 -28.23892,-33.96179 l -20.40633,-21.44578 3.60599,-5.86241 c 4.50646,-7.32634 10.61141,-22.50195 11.63519,-28.92266 0.42575,-2.67013 1.02612,-6.08365 1.33414,-7.58561 l 0.56004,-2.73081 h 35.09509 c 19.86563,0 36.44609,-0.51365 38.20835,-1.18366 2.69117,-1.02319 3.11326,-1.90806 3.11326,-6.52672 0,-3.48744 -0.69657,-5.92158 -2.00565,-7.00881 -1.55838,-1.29425 -9.88145,-1.80268 -37.3212,-2.27985 -19.42355,-0.33777 -35.99825,-1.0527 -36.83267,-1.58875 -0.83442,-0.53604 -1.51712,-2.59812 -1.51712,-4.58238 0,-6.58378 -8.59336,-27.7802 -14.78605,-36.47136 -1.2074,-1.69453 2.22663,-5.8359 23.06865,-27.82019 22.59493,-23.83328 24.48723,-26.16958 24.48723,-30.23277 0,-5.49377 -1.75905,-7.31635 -7.06127,-7.31635 -4.93011,0 -5.27447,0.28135 -34.46051,28.1556 l -21.49577,20.52961 -7.91281,-4.77244 c -7.21535,-4.35177 -19.78239,-9.04482 -33.1442,-12.37739 l -5.15821,-1.28651 V 250.0176 c 0,-35.26776 -0.10559,-36.98479 -2.34761,-38.18469 -4.06752,-2.17688 -9.48039,-1.50101 -11.54109,1.44105 -1.60545,2.29209 -1.88937,8.0303 -1.88937,38.18468 v 35.48724 l -5.15821,1.28651 c -13.38661,3.33876 -25.93579,8.02981 -33.198,12.40985 -4.38164,2.64269 -8.15896,4.62285 -8.39404,4.40036 -0.23508,-0.2225 -7.42623,-7.23279 -15.98032,-15.57843 -31.99434,-31.21464 -33.79275,-32.76716 -37.95675,-32.76716 -5.97031,0 -8.54662,1.93573 -8.53745,6.41461 0.0109,5.42978 2.18951,8.30733 20.65464,27.2839 8.92137,9.16847 18.90553,19.47901 22.18701,22.91232 l 5.96636,6.2424 -4.20153,7.16881 c -5.75873,9.82578 -10.61845,22.3615 -11.47606,29.60268 -0.39331,3.32082 -1.31983,6.42826 -2.05896,6.90541 -0.73913,0.47715 -17.23587,1.1439 -36.65942,1.48167 -27.43974,0.47717 -35.76282,0.9856 -37.32119,2.27985 -1.30909,1.08723 -2.00565,3.52137 -2.00565,7.00881 0,4.61866 0.42209,5.50353 3.11325,6.52672 1.76686,0.67175 18.56336,1.18366 38.83832,1.18366 h 35.72506 v 5.27163 c 0,6.80123 3.46969,16.77182 10.31314,29.63619 3.00571,5.65015 5.46493,10.45469 5.46493,10.67676 0,0.22206 -10.92328,11.9869 -24.27395,26.14408 -20.50635,21.74514 -24.27395,26.30877 -24.27395,29.40269 0,4.72588 3.10704,8.10142 7.45705,8.10142 4.07163,0 9.57222,-4.60597 37.19846,-31.14849 l 19.15612,-18.40467 2.98799,2.30161 c 4.03181,3.10563 26.98041,12.65482 34.66519,14.4246 l 6.18955,1.42542 0.78921,14.67762 c 0.43406,8.07269 0.7892,24.3838 0.7892,36.24692 0,24.06156 0.41094,25.38379 7.88904,25.38379 2.241,0 4.93282,-0.85825 5.98179,-1.90724 z"
     id="path2033"
     transform="scale(0.75)" />
  <path
     style="fill:#a0a0a0;stroke:none;stroke-width:1.2137"
     d="m 451.01133,440.45816 c -24.14713,-5.84274 -44.668,-26.03509 -51.12795,-50.30946 -2.26533,-8.51236 -2.25931,-25.38361 0.0121,-33.91932 6.63968,-24.95123 27.92152,-45.01871 53.42051,-50.37229 10.68223,-2.24276 16.01913,-2.24276 26.70135,0 25.49899,5.35358 46.78084,25.42106 53.42052,50.37229 2.27141,8.53571 2.27741,25.40696 0.0121,33.91932 -6.53708,24.56417 -27.05439,44.56039 -51.67626,50.36381 -9.60443,2.26378 -21.26703,2.24318 -30.76236,-0.0544 z"
     id="path2109"
     transform="scale(0.75)" />
  <path
     style="fill:#f4d7d7;stroke:none;stroke-width:1.2137"
     d="m 449.1091,439.23633 c -17.80339,-4.7846 -35.12458,-19.6468 -43.96162,-37.72063 l -5.23417,-10.70512 v -17.59862 -17.59861 l 5.2647,-10.76819 c 11.67999,-23.88976 36.07421,-39.60025 61.48866,-39.60025 25.3395,0 49.60778,15.5856 61.43749,39.45647 5.24433,10.58237 5.3217,10.92119 5.74998,25.17689 0.27364,9.10888 -0.12723,16.54543 -1.08452,20.11863 -6.10075,22.77167 -26.73422,43.26081 -49.72722,49.3794 -8.44477,2.24721 -25.30951,2.17764 -33.9333,-0.13997 z"
     id="path2148"
     transform="scale(0.75)" />
</svg>
