<?xml version="1.0" encoding="UTF-8" standalone="no"?>
<svg
   width="700pt"
   height="700pt"
   version="1.1"
   viewBox="0 0 700 700"
   id="svg199"
   sodipodi:docname="logo.svg"
   inkscape:version="1.1.2 (b8e25be833, 2022-02-05)"
   xmlns:inkscape="http://www.inkscape.org/namespaces/inkscape"
   xmlns:sodipodi="http://sodipodi.sourceforge.net/DTD/sodipodi-0.dtd"
   xmlns="http://www.w3.org/2000/svg"
   xmlns:svg="http://www.w3.org/2000/svg">
  <sodipodi:namedview
     id="namedview201"
     pagecolor="#ffffff"
     bordercolor="#666666"
     borderopacity="1.0"
     inkscape:pageshadow="2"
     inkscape:pageopacity="0.0"
     inkscape:pagecheckerboard="0"
     inkscape:document-units="pt"
     showgrid="false"
     inkscape:zoom="0.855"
     inkscape:cx="466.66667"
     inkscape:cy="460.23392"
     inkscape:window-width="1920"
     inkscape:window-height="991"
     inkscape:window-x="-9"
     inkscape:window-y="-9"
     inkscape:window-maximized="1"
     inkscape:current-layer="svg199" />
  <defs
     id="defs65">
    <symbol
       id="u"
       overflow="visible">
      <path
         d="m18.766-1.125c-0.96875 0.5-1.9805 0.875-3.0312 1.125-1.043 0.25781-2.1367 0.39062-3.2812 0.39062-3.3984 0-6.0898-0.94531-8.0781-2.8438-1.9922-1.9062-2.9844-4.4844-2.9844-7.7344 0-3.2578 0.99219-5.8359 2.9844-7.7344 1.9883-1.9062 4.6797-2.8594 8.0781-2.8594 1.1445 0 2.2383 0.13281 3.2812 0.39062 1.0508 0.25 2.0625 0.625 3.0312 1.125v4.2188c-0.98047-0.65625-1.9453-1.1406-2.8906-1.4531-0.94922-0.3125-1.9492-0.46875-3-0.46875-1.875 0-3.3516 0.60547-4.4219 1.8125-1.0742 1.1992-1.6094 2.8555-1.6094 4.9688 0 2.1055 0.53516 3.7617 1.6094 4.9688 1.0703 1.1992 2.5469 1.7969 4.4219 1.7969 1.0508 0 2.0508-0.14844 3-0.45312 0.94531-0.3125 1.9102-0.80078 2.8906-1.4688z"
         id="path2" />
    </symbol>
    <symbol
       id="d"
       overflow="visible">
      <path
         d="m13.734-11.141c-0.4375-0.19531-0.87109-0.34375-1.2969-0.4375-0.41797-0.10156-0.83984-0.15625-1.2656-0.15625-1.2617 0-2.2305 0.40625-2.9062 1.2188-0.67969 0.80469-1.0156 1.9531-1.0156 3.4531v7.0625h-4.8906v-15.312h4.8906v2.5156c0.625-1 1.3438-1.7266 2.1562-2.1875 0.82031-0.46875 1.8008-0.70312 2.9375-0.70312 0.16406 0 0.34375 0.011719 0.53125 0.03125 0.19531 0.011719 0.47656 0.039062 0.84375 0.078125z"
         id="path5" />
    </symbol>
    <symbol
       id="a"
       overflow="visible">
      <path
         d="m17.641-7.7031v1.4062h-11.453c0.125 1.1484 0.53906 2.0078 1.25 2.5781 0.70703 0.57422 1.7031 0.85938 2.9844 0.85938 1.0312 0 2.082-0.14844 3.1562-0.45312 1.082-0.3125 2.1914-0.77344 3.3281-1.3906v3.7656c-1.1562 0.4375-2.3125 0.76562-3.4688 0.98438-1.1562 0.22656-2.3125 0.34375-3.4688 0.34375-2.7734 0-4.9297-0.70312-6.4688-2.1094-1.5312-1.4062-2.2969-3.3789-2.2969-5.9219 0-2.5 0.75391-4.4609 2.2656-5.8906 1.5078-1.4375 3.582-2.1562 6.2188-2.1562 2.4062 0 4.332 0.73047 5.7812 2.1875 1.4453 1.4492 2.1719 3.3828 2.1719 5.7969zm-5.0312-1.625c0-0.92578-0.27344-1.6719-0.8125-2.2344-0.54297-0.57031-1.25-0.85938-2.125-0.85938-0.94922 0-1.7188 0.26562-2.3125 0.79688s-0.96484 1.2969-1.1094 2.2969z"
         id="path8" />
    </symbol>
    <symbol
       id="m"
       overflow="visible">
      <path
         d="m9.2188-6.8906c-1.0234 0-1.793 0.17188-2.3125 0.51562-0.51172 0.34375-0.76562 0.85547-0.76562 1.5312 0 0.625 0.20703 1.1172 0.625 1.4688 0.41406 0.34375 0.98828 0.51562 1.7188 0.51562 0.92578 0 1.7031-0.32812 2.3281-0.98438 0.63281-0.66406 0.95312-1.4922 0.95312-2.4844v-0.5625zm7.4688-1.8438v8.7344h-4.9219v-2.2656c-0.65625 0.92969-1.3984 1.6055-2.2188 2.0312-0.82422 0.41406-1.8242 0.625-3 0.625-1.5859 0-2.8711-0.45703-3.8594-1.375-0.99219-0.92578-1.4844-2.1289-1.4844-3.6094 0-1.7891 0.61328-3.1016 1.8438-3.9375 1.2383-0.84375 3.1797-1.2656 5.8281-1.2656h2.8906v-0.39062c0-0.76953-0.30859-1.332-0.92188-1.6875-0.61719-0.36328-1.5703-0.54688-2.8594-0.54688-1.0547 0-2.0312 0.10547-2.9375 0.3125-0.89844 0.21094-1.7305 0.52344-2.5 0.9375v-3.7344c1.0391-0.25 2.0859-0.44141 3.1406-0.57812 1.0625-0.13281 2.125-0.20312 3.1875-0.20312 2.7578 0 4.75 0.54688 5.9688 1.6406 1.2266 1.0859 1.8438 2.8555 1.8438 5.3125z"
         id="path11" />
    </symbol>
    <symbol
       id="c"
       overflow="visible">
      <path
         d="m7.7031-19.656v4.3438h5.0469v3.5h-5.0469v6.5c0 0.71094 0.14062 1.1875 0.42188 1.4375s0.83594 0.375 1.6719 0.375h2.5156v3.5h-4.1875c-1.9375 0-3.3125-0.39844-4.125-1.2031-0.80469-0.8125-1.2031-2.1797-1.2031-4.1094v-6.5h-2.4219v-3.5h2.4219v-4.3438z"
         id="path14" />
    </symbol>
    <symbol
       id="f"
       overflow="visible">
      <path
         d="m12.766-13.078v-8.2031h4.9219v21.281h-4.9219v-2.2188c-0.66797 0.90625-1.4062 1.5703-2.2188 1.9844s-1.7578 0.625-2.8281 0.625c-1.8867 0-3.4336-0.75-4.6406-2.25-1.2109-1.5-1.8125-3.4258-1.8125-5.7812 0-2.3633 0.60156-4.2969 1.8125-5.7969 1.207-1.5 2.7539-2.25 4.6406-2.25 1.0625 0 2 0.21484 2.8125 0.64062 0.82031 0.42969 1.5664 1.0859 2.2344 1.9688zm-3.2188 9.9219c1.0391 0 1.8359-0.37891 2.3906-1.1406 0.55078-0.76953 0.82812-1.8828 0.82812-3.3438 0-1.457-0.27734-2.5664-0.82812-3.3281-0.55469-0.76953-1.3516-1.1562-2.3906-1.1562-1.043 0-1.8398 0.38672-2.3906 1.1562-0.55469 0.76172-0.82812 1.8711-0.82812 3.3281 0 1.4609 0.27344 2.5742 0.82812 3.3438 0.55078 0.76172 1.3477 1.1406 2.3906 1.1406z"
         id="path17" />
    </symbol>
    <symbol
       id="l"
       overflow="visible">
      <path
         d="m10.5-3.1562c1.0508 0 1.8516-0.37891 2.4062-1.1406 0.55078-0.76953 0.82812-1.8828 0.82812-3.3438 0-1.457-0.27734-2.5664-0.82812-3.3281-0.55469-0.76953-1.3555-1.1562-2.4062-1.1562-1.0547 0-1.8594 0.38672-2.4219 1.1562-0.55469 0.77344-0.82812 1.8828-0.82812 3.3281 0 1.4492 0.27344 2.5586 0.82812 3.3281 0.5625 0.77344 1.3672 1.1562 2.4219 1.1562zm-3.25-9.9219c0.67578-0.88281 1.4219-1.5391 2.2344-1.9688 0.82031-0.42578 1.7656-0.64062 2.8281-0.64062 1.8945 0 3.4453 0.75 4.6562 2.25 1.207 1.5 1.8125 3.4336 1.8125 5.7969 0 2.3555-0.60547 4.2812-1.8125 5.7812-1.2109 1.5-2.7617 2.25-4.6562 2.25-1.0625 0-2.0078-0.21094-2.8281-0.625-0.8125-0.42578-1.5586-1.0859-2.2344-1.9844v2.2188h-4.8906v-21.281h4.8906z"
         id="path20" />
    </symbol>
    <symbol
       id="k"
       overflow="visible">
      <path
         d="m0.34375-15.312h4.8906l4.125 10.391 3.5-10.391h4.8906l-6.4375 16.766c-0.64844 1.6953-1.4023 2.8828-2.2656 3.5625-0.86719 0.6875-2 1.0312-3.4062 1.0312h-2.8438v-3.2188h1.5312c0.83203 0 1.4375-0.13672 1.8125-0.40625 0.38281-0.26172 0.67969-0.73047 0.89062-1.4062l0.14062-0.42188z"
         id="path23" />
    </symbol>
    <symbol
       id="j"
       overflow="visible">
      <path
         d="m0.14062-20.406h18.812v3.9688h-6.7656v16.438h-5.2656v-16.438h-6.7812z"
         id="path26" />
    </symbol>
    <symbol
       id="i"
       overflow="visible">
      <path
         d="m2.3594-15.312h4.8906v15.312h-4.8906zm0-5.9688h4.8906v4h-4.8906z"
         id="path29" />
    </symbol>
    <symbol
       id="e"
       overflow="visible">
      <path
         d="m16.547-12.766c0.61328-0.94531 1.3477-1.6719 2.2031-2.1719 0.85156-0.5 1.7891-0.75 2.8125-0.75 1.7578 0 3.0977 0.54688 4.0156 1.6406 0.92578 1.0859 1.3906 2.6562 1.3906 4.7188v9.3281h-4.9219v-7.9844-0.35938c0.007813-0.13281 0.015625-0.32031 0.015625-0.5625 0-1.082-0.16406-1.8633-0.48438-2.3438-0.3125-0.48828-0.82422-0.73438-1.5312-0.73438-0.92969 0-1.6484 0.38672-2.1562 1.1562-0.51172 0.76172-0.77344 1.8672-0.78125 3.3125v7.5156h-4.9219v-7.9844c0-1.6953-0.14844-2.7852-0.4375-3.2656-0.29297-0.48828-0.8125-0.73438-1.5625-0.73438-0.9375 0-1.6641 0.38672-2.1719 1.1562-0.51172 0.76172-0.76562 1.8594-0.76562 3.2969v7.5312h-4.9219v-15.312h4.9219v2.2344c0.60156-0.86328 1.2891-1.5156 2.0625-1.9531 0.78125-0.4375 1.6406-0.65625 2.5781-0.65625 1.0625 0 2 0.25781 2.8125 0.76562 0.8125 0.51172 1.4258 1.2305 1.8438 2.1562z"
         id="path32" />
    </symbol>
    <symbol
       id="b"
       overflow="visible">
      <path
         d="m9.6406-12.188c-1.0859 0-1.9141 0.39062-2.4844 1.1719-0.57422 0.78125-0.85938 1.9062-0.85938 3.375s0.28516 2.5938 0.85938 3.375c0.57031 0.77344 1.3984 1.1562 2.4844 1.1562 1.0625 0 1.875-0.38281 2.4375-1.1562 0.57031-0.78125 0.85938-1.9062 0.85938-3.375s-0.28906-2.5938-0.85938-3.375c-0.5625-0.78125-1.375-1.1719-2.4375-1.1719zm0-3.5c2.6328 0 4.6914 0.71484 6.1719 2.1406 1.4766 1.418 2.2188 3.3867 2.2188 5.9062 0 2.5117-0.74219 4.4805-2.2188 5.9062-1.4805 1.418-3.5391 2.125-6.1719 2.125-2.6484 0-4.7148-0.70703-6.2031-2.125-1.4922-1.4258-2.2344-3.3945-2.2344-5.9062 0-2.5195 0.74219-4.4883 2.2344-5.9062 1.4883-1.4258 3.5547-2.1406 6.2031-2.1406z"
         id="path35" />
    </symbol>
    <symbol
       id="t"
       overflow="visible">
      <path
         d="m16.781-19.766v4.3125c-1.125-0.5-2.2266-0.875-3.2969-1.125-1.0625-0.25781-2.0703-0.39062-3.0156-0.39062-1.25 0-2.1797 0.17969-2.7812 0.53125-0.60547 0.34375-0.90625 0.88281-0.90625 1.6094 0 0.54297 0.20312 0.96875 0.60938 1.2812 0.40625 0.30469 1.1406 0.5625 2.2031 0.78125l2.25 0.45312c2.2695 0.44922 3.8789 1.1406 4.8281 2.0781 0.95703 0.92969 1.4375 2.2461 1.4375 3.9531 0 2.25-0.66797 3.9297-2 5.0312-1.3359 1.0938-3.3711 1.6406-6.1094 1.6406-1.3047 0-2.6055-0.125-3.9062-0.375-1.3047-0.23828-2.6055-0.59766-3.9062-1.0781v-4.4531c1.3008 0.69922 2.5625 1.2266 3.7812 1.5781 1.2188 0.34375 2.3906 0.51562 3.5156 0.51562 1.1562 0 2.0352-0.1875 2.6406-0.5625 0.61328-0.38281 0.92188-0.9375 0.92188-1.6562 0-0.63281-0.21094-1.125-0.625-1.4688-0.41797-0.34375-1.2461-0.65625-2.4844-0.9375l-2.0312-0.4375c-2.043-0.4375-3.5391-1.1328-4.4844-2.0938-0.9375-0.95703-1.4062-2.25-1.4062-3.875 0-2.0312 0.65625-3.5938 1.9688-4.6875s3.1953-1.6406 5.6562-1.6406c1.125 0 2.2734 0.085938 3.4531 0.25 1.1875 0.16797 2.4141 0.42188 3.6875 0.76562z"
         id="path38" />
    </symbol>
    <symbol
       id="h"
       overflow="visible">
      <path
         d="m14.719-14.828v3.9844c-0.65625-0.45703-1.3242-0.79688-2-1.0156-0.66797-0.21875-1.3594-0.32812-2.0781-0.32812-1.3672 0-2.4336 0.40234-3.2031 1.2031-0.76172 0.79297-1.1406 1.9062-1.1406 3.3438 0 1.4297 0.37891 2.543 1.1406 3.3438 0.76953 0.79297 1.8359 1.1875 3.2031 1.1875 0.75781 0 1.4844-0.10938 2.1719-0.32812 0.6875-0.22656 1.3203-0.56641 1.9062-1.0156v4c-0.76172 0.28125-1.5391 0.48828-2.3281 0.625-0.78125 0.14453-1.5742 0.21875-2.375 0.21875-2.7617 0-4.9219-0.70703-6.4844-2.125-1.5547-1.4141-2.3281-3.3828-2.3281-5.9062 0-2.5312 0.77344-4.5039 2.3281-5.9219 1.5625-1.4141 3.7227-2.125 6.4844-2.125 0.80078 0 1.5938 0.074219 2.375 0.21875 0.78125 0.13672 1.5547 0.35156 2.3281 0.64062z"
         id="path41" />
    </symbol>
    <symbol
       id="g"
       overflow="visible">
      <path
         d="m17.75-9.3281v9.3281h-4.9219v-7.1094c0-1.3438-0.03125-2.2656-0.09375-2.7656s-0.16797-0.86719-0.3125-1.1094c-0.1875-0.3125-0.44922-0.55469-0.78125-0.73438-0.32422-0.17578-0.69531-0.26562-1.1094-0.26562-1.0234 0-1.8242 0.39844-2.4062 1.1875-0.58594 0.78125-0.875 1.8711-0.875 3.2656v7.5312h-4.8906v-21.281h4.8906v8.2031c0.73828-0.88281 1.5195-1.5391 2.3438-1.9688 0.83203-0.42578 1.75-0.64062 2.75-0.64062 1.7695 0 3.1133 0.54688 4.0312 1.6406 0.91406 1.0859 1.375 2.6562 1.375 4.7188z"
         id="path44" />
    </symbol>
    <symbol
       id="s"
       overflow="visible">
      <path
         d="m12.422-21.281v3.2188h-2.7031c-0.6875 0-1.1719 0.125-1.4531 0.375-0.27344 0.25-0.40625 0.6875-0.40625 1.3125v1.0625h4.1875v3.5h-4.1875v11.812h-4.8906v-11.812h-2.4375v-3.5h2.4375v-1.0625c0-1.6641 0.46094-2.8984 1.3906-3.7031 0.92578-0.80078 2.3672-1.2031 4.3281-1.2031z"
         id="path47" />
    </symbol>
    <symbol
       id="r"
       overflow="visible">
      <path
         d="m2.5781-20.406h5.875l7.4219 14v-14h4.9844v20.406h-5.875l-7.4219-14v14h-4.9844z"
         id="path50" />
    </symbol>
    <symbol
       id="q"
       overflow="visible">
      <path
         d="m2.1875-5.9688v-9.3438h4.9219v1.5312c0 0.83594-0.007813 1.875-0.015625 3.125-0.011719 1.25-0.015625 2.0859-0.015625 2.5 0 1.2422 0.03125 2.1328 0.09375 2.6719 0.070313 0.54297 0.17969 0.93359 0.32812 1.1719 0.20703 0.32422 0.47266 0.57422 0.79688 0.75 0.32031 0.16797 0.69141 0.25 1.1094 0.25 1.0195 0 1.8203-0.39062 2.4062-1.1719 0.58203-0.78125 0.875-1.8672 0.875-3.2656v-7.5625h4.8906v15.312h-4.8906v-2.2188c-0.74219 0.89844-1.5234 1.5586-2.3438 1.9844-0.82422 0.41406-1.7344 0.625-2.7344 0.625-1.7617 0-3.1055-0.53906-4.0312-1.625-0.92969-1.082-1.3906-2.6602-1.3906-4.7344z"
         id="path53" />
    </symbol>
    <symbol
       id="p"
       overflow="visible">
      <path
         d="m17.75-9.3281v9.3281h-4.9219v-7.1406c0-1.3203-0.03125-2.2344-0.09375-2.7344s-0.16797-0.86719-0.3125-1.1094c-0.1875-0.3125-0.44922-0.55469-0.78125-0.73438-0.32422-0.17578-0.69531-0.26562-1.1094-0.26562-1.0234 0-1.8242 0.39844-2.4062 1.1875-0.58594 0.78125-0.875 1.8711-0.875 3.2656v7.5312h-4.8906v-15.312h4.8906v2.2344c0.73828-0.88281 1.5195-1.5391 2.3438-1.9688 0.83203-0.42578 1.75-0.64062 2.75-0.64062 1.7695 0 3.1133 0.54688 4.0312 1.6406 0.91406 1.0859 1.375 2.6562 1.375 4.7188z"
         id="path56" />
    </symbol>
    <symbol
       id="o"
       overflow="visible">
      <path
         d="m2.5781-20.406h8.7344c2.5938 0 4.582 0.57812 5.9688 1.7344 1.3945 1.1484 2.0938 2.7891 2.0938 4.9219 0 2.1367-0.69922 3.7812-2.0938 4.9375-1.3867 1.1562-3.375 1.7344-5.9688 1.7344h-3.4844v7.0781h-5.25zm5.25 3.8125v5.7031h2.9219c1.0195 0 1.8047-0.25 2.3594-0.75 0.5625-0.5 0.84375-1.2031 0.84375-2.1094 0-0.91406-0.28125-1.6172-0.84375-2.1094-0.55469-0.48828-1.3398-0.73438-2.3594-0.73438z"
         id="path59" />
    </symbol>
    <symbol
       id="n"
       overflow="visible">
      <path
         d="m2.3594-15.312h4.8906v15.031c0 2.0508-0.49609 3.6172-1.4844 4.7031-0.98047 1.082-2.4062 1.625-4.2812 1.625h-2.4219v-3.2188h0.85938c0.92578 0 1.5625-0.21094 1.9062-0.625 0.35156-0.41797 0.53125-1.2461 0.53125-2.4844zm0-5.9688h4.8906v4h-4.8906z"
         id="path62" />
    </symbol>
  </defs>
  <g
     id="g197"
     transform="matrix(1.7693225,0,0,1.7457839,-273.64063,-134.11115)">
    <path
       d="m 453.6,148.96 c -21.84,0 -39.762,17.922 -39.762,39.762 0,21.84 17.922,39.762 39.762,39.762 21.84,0 39.762,-17.922 39.762,-39.762 C 492.7995,166.878 475.44,148.96 453.6,148.96 Z"
       id="path67" />
    <path
       d="m 418.32,157.92 c 1.1211,1.1211 2.8008,1.1211 3.9219,0 1.1211,-1.1211 1.1211,-2.8008 0,-3.9219 l -20.719,-23.52 c -1.1211,-1.1211 -2.8008,-1.1211 -3.9219,0 -1.1211,1.1211 -1.1211,2.8008 0,3.9219 z"
       id="path69" />
    <path
       d="m 453.6,144.48 c 1.6797,0 2.8008,-1.1211 2.8008,-2.8008 v -30.801 c 0,-1.6797 -1.1211,-2.8008 -2.8008,-2.8008 -1.6797,0 -2.8008,1.1211 -2.8008,2.8008 v 30.801 c 0,1.6797 1.1211,2.8008 2.8008,2.8008 z"
       id="path71" />
    <path
       d="m 408.8,184.24 c 0,-1.6797 -1.1211,-2.8008 -2.2383,-2.8008 l -30.801,-2.8008 c -1.6797,0 -2.8008,1.1211 -2.8008,2.8008 0,1.6797 1.1211,2.8008 2.2383,2.8008 l 30.801,2.8008 c 1.6797,-0.55859 2.8008,-1.6797 2.8008,-2.8008 z"
       id="path73" />
    <path
       d="m 411.6,210.56 -26.32,16.801 c -1.1211,0.55859 -1.6797,2.2383 -1.1211,3.9219 0.55859,1.1211 2.2383,1.6797 3.9219,1.1211 l 26.32,-16.801 c 1.1211,-0.55859 1.6797,-2.2383 1.1211,-3.9219 -1.125,-1.6797 -2.8047,-1.6797 -3.9219,-1.1211 z"
       id="path75" />
    <path
       d="m 438.48,229.6 c -1.6797,-0.55859 -2.8008,0 -3.3594,1.6797 l -11.199,29.121 c -0.55859,1.6797 0,2.8008 1.6797,3.3594 1.6797,0.55859 2.8008,0 3.3594,-1.6797 l 11.199,-29.121 c 0.55859,-1.6797 0,-2.8008 -1.6797,-3.3594 z"
       id="path77" />
    <path
       d="m 524.16,225.68 -27.441,-14.559 c -1.1211,-0.55859 -2.8008,0 -3.9219,1.1211 -0.55859,1.1211 0,2.8008 1.1211,3.9219 l 27.441,14.559 c 1.1211,0.55859 2.8008,0 3.9219,-1.1211 1.1172,-1.1211 0.55859,-2.8008 -1.1211,-3.9219 z"
       id="path79" />
    <path
       d="m 533.68,176.4 c 0,-1.6797 -1.6797,-2.8008 -2.8008,-2.2383 l -30.801,3.3594 c -1.6797,0 -2.8008,1.6797 -2.2383,2.8008 0,1.6797 1.6797,2.8008 2.8008,2.2383 l 30.801,-3.3594 c 1.6797,0 2.7969,-1.6797 2.2383,-2.8008 z"
       id="path81" />
    <path
       d="m 469.84,230.72 c -0.55859,-1.6797 -2.2383,-2.2383 -3.3594,-1.6797 -1.6797,0.55859 -2.2383,2.2383 -1.6797,3.3594 l 10.078,29.121 c 0.55859,1.6797 2.2383,2.2383 3.3594,1.6797 1.6797,-0.55859 2.2383,-2.2383 1.6797,-3.3594 z"
       id="path83" />
    <path
       d="m 481.6,155.68 c 1.1211,1.1211 2.8008,0.55859 3.9219,-0.55859 l 19.039,-24.641 c 1.1211,-1.1211 0.55859,-2.8008 -0.55859,-3.9219 -1.1211,-1.1211 -2.8008,-0.55859 -3.9219,0.55859 l -19.039,24.641 c -1.1211,1.1211 -0.5625,2.8008 0.55859,3.9219 z"
       id="path85" />
    <path
       d="m 260.4,282.8 c -0.55859,0 0,0 0,0 -0.55859,-0.55859 -1.1211,-0.55859 -1.1211,-0.55859 h -43.121 -1.1211 c 0.55859,-0.55859 0.55859,-1.1211 1.1211,-2.2383 5.6016,-8.9609 10.641,-17.359 16.238,-26.32 l 0.55859,-0.55859 h -0.55859 -8.9609 c 6.1602,-9.5195 11.762,-19.602 17.922,-29.121 h -10.641 v -0.55859 c 4.4805,-7.8398 9.5195,-15.121 14,-22.961 l 0.55859,-0.55859 c 0,-0.55859 -0.55859,0 -1.1211,0 h -8.3984 c 4.4805,-7.2812 8.3984,-14 12.879,-21.281 h -7.8398 c 8.9609,-14.559 17.922,-29.121 26.879,-44.238 8.9609,14.559 17.922,29.121 26.879,44.238 h -6.7188 -1.1211 c 0,0 0,0.55859 0.55859,0.55859 3.9219,6.1602 7.8398,12.879 11.762,19.039 0,0.55859 0.55859,0.55859 0.55859,1.1211 h -9.5195 c 5.0391,8.3984 10.078,16.238 15.121,24.641 h -10.641 c 1.1211,1.6797 2.2383,3.3594 3.3594,5.0391 4.4805,7.8398 9.5195,15.68 14,22.961 l 0.55859,0.55859 h -0.55859 -7.8398 -0.55859 c 1.6797,2.2383 2.8008,4.4805 4.4805,6.7188 4.4805,7.2812 8.3984,14 12.879,21.281 l 0.55859,0.55859 c 0,0.55859 -0.55859,0 -1.1211,0 h -43.68 -14.559 c -1.6719,1.1172 -1.6719,1.6797 -1.6719,1.6797 z"
       id="path87" />
    <path
       d="m 258.72,273.28 h 19.039 v 36.961 H 258.72 Z"
       id="path89" />
    <path
       d="m 346.64,266 h -0.55859 -21.84 -0.55859 c 0,-0.55859 0.55859,-0.55859 0.55859,-1.1211 2.8008,-4.4805 5.6016,-8.9609 8.3984,-13.441 v -0.55859 h -0.55859 -4.4805 c 2.8008,-5.0391 6.1602,-10.078 8.9609,-14.559 h -5.6016 v -0.55859 c 2.2383,-3.9219 4.4805,-7.8398 7.2812,-11.762 v -0.55859 h -0.55859 -4.4805 c 2.2383,-3.3594 4.4805,-7.2812 6.7188,-10.641 h -3.9219 c 4.4805,-7.2812 8.9609,-15.121 13.441,-22.398 4.4805,7.2812 8.9609,15.121 13.441,22.398 h -3.3594 -0.55859 v 0.55859 c 1.6797,3.3594 3.9219,6.1602 5.6016,9.5195 0,0 0,0.55859 0.55859,0.55859 h -5.0391 c 2.8008,3.9219 5.0391,8.3984 7.8398,12.32 h -5.6016 c 0.55859,1.1211 1.1211,1.6797 1.6797,2.8008 2.2383,3.9219 5.0391,7.8398 7.2812,11.762 v 0.55859 h -0.55859 -3.9219 -0.55859 c 0.55859,1.1211 1.6797,2.2383 2.2383,3.3594 2.2383,3.3594 4.4805,7.2812 6.7188,10.641 v 0.55859 h -0.55859 -22.398 c -0.008,0.5625 -2.2461,0.5625 -5.6055,0.5625 0.55859,0 0.55859,0 0,0 z"
       id="path91" />
    <path
       d="m 346.08,260.96 h 9.5195 v 18.48 H 346.08 Z"
       id="path93" />
    <path
       d="m 392.56,286.72 h -15.121 -0.55859 c 0,0 0,-0.55859 0.55859,-0.55859 1.6797,-2.8008 3.3594,-6.1602 5.6016,-8.9609 h -2.8008 c 2.2383,-3.3594 3.9219,-6.7188 6.1602,-10.078 h -3.3594 c 1.6797,-2.8008 3.3594,-5.0391 4.4805,-7.8398 h -0.55859 -2.8008 c 1.6797,-2.2383 2.8008,-4.4805 4.4805,-7.2812 h -2.8008 c 2.8008,-5.0391 6.1602,-10.078 8.9609,-15.121 2.8008,5.0391 6.1602,10.078 8.9609,15.121 h -2.2383 -0.55859 c 1.1211,2.2383 2.8008,4.4805 3.9219,6.1602 v 0.55859 h -3.3594 c 1.6797,2.8008 3.3594,5.6016 5.0391,8.3984 h -3.3594 c 0.55859,0.55859 0.55859,1.1211 1.1211,1.6797 1.6797,2.8008 3.3594,5.0391 5.0391,7.8398 h -2.8008 -0.55859 c 0.55859,0.55859 1.1211,1.6797 1.6797,2.2383 1.6797,2.2383 2.8008,5.0391 4.4805,7.2812 h -0.55859 -14.559 c -0.57031,0.5625 -2.25,0.5625 -4.4922,0.5625 0.5625,0 0,0 0,0 z"
       id="path95" />
    <path
       d="m 392.56,283.36 h 6.1602 v 12.32 H 392.56 Z"
       id="path97" />
    <path
       d="m 342.16,437.92 c 0,0 0.55859,0 0,0 l 0.55859,-1.1211 c 0,0.55859 0,1.1211 -0.55859,1.1211 z"
       id="path99" />
    <path
       d="m 333.2,448 c 0.55859,0 1.1211,-0.55859 1.1211,-1.1211 -0.55859,0.5625 -1.1211,0.5625 -1.1211,1.1211 z"
       id="path101" />
    <path
       d="m 365.12,413.84 v -0.55859 c -0.5625,0 -0.5625,0 0,0.55859 z"
       id="path103" />
    <path
       d="m 418.88,352.24 c 0.5625,-0.55859 0.5625,-0.55859 0,0 l -0.55859,0.55859 c 0,0.004 0.55859,0.004 0.55859,-0.55859 z"
       id="path105" />
    <path
       d="m 420.56,350 c 0,0 0,-0.55859 0.55859,-0.55859 C 420.56,349.44141 420.56,350 420.56,350 Z"
       id="path107" />
    <path
       d="m 458.08,315.28 c 0,0.55859 -0.55859,1.1211 -1.1211,1.6797 -1.6797,2.2383 -2.8008,4.4805 -4.4805,7.2812 -0.55859,0.55859 -0.55859,1.1211 -1.1211,1.6797 -0.55859,1.1211 -0.55859,2.2383 -1.1211,2.8008 -0.55859,1.1211 -0.55859,2.8008 -1.1211,3.9219 0,0.55859 0,1.1211 -0.55859,1.6797 0,0 0,1.6797 -0.55859,2.2383 v 1.1211 2.8008 c 0,1.6797 -0.55859,3.3594 -0.55859,4.4805 -0.55859,3.9219 -1.1211,7.8398 -2.2383,11.762 -4.4805,12.32 -13.441,21.281 -25.199,26.32 -10.078,4.4805 -21.281,6.7188 -31.922,10.078 -2.8008,0.55859 -5.0391,1.6797 -7.8398,2.8008 -0.55859,0 -2.8008,1.1211 -0.55859,0 2.2383,-0.55859 -0.55859,0 -0.55859,0.55859 -1.1211,0.55859 -1.6797,1.1211 -2.8008,1.6797 -1.6797,0.55859 -2.8008,1.6797 -3.9219,2.2383 -0.55859,0.55859 -1.6797,1.1211 -2.2383,1.6797 l -1.1211,1.1211 c -0.55859,0.55859 -1.6797,1.6797 -2.2383,2.2383 0,0.55859 -0.55859,0.55859 -1.1211,1.1211 0,0 -0.55859,0.55859 -0.55859,1.1211 0,0.55859 -0.55859,1.6797 -0.55859,2.2383 0,0.5586 0,1.1211 -0.55859,1.6797 v -0.55859 c 0,-1.6797 0.55859,-2.2383 0,0 v 1.6797 0.55859 c 0.55859,1.6797 0.55859,3.3594 1.1211,5.0391 0.55859,2.8008 1.6797,5.0391 2.2383,7.8398 h 173.04 c -11.762,-47.039 -40.879,-87.359 -79.52,-113.68 l -0.55859,0.55859 c -0.5625,0.5625 -1.125,1.1211 -2.2461,2.2422 z"
       id="path109" />
    <path
       d="m 406.56,360.64 c 0,0 0.55859,0 0.55859,-0.55859 0.004,0.55859 0.004,0.55859 -0.55859,0.55859 z"
       id="path111" />
    <path
       d="m 356.72,379.12 c 8.9609,-6.7188 19.602,-10.078 30.238,-12.879 5.0391,-1.1211 10.078,-2.2383 15.121,-3.9219 1.6797,-0.55859 2.8008,-1.1211 4.4805,-1.6797 -0.55859,0 0,0 1.1211,-0.55859 h 0.55859 c 2.2383,-1.1211 3.9219,-2.2383 5.6016,-3.3594 0.55859,-0.55859 1.1211,-0.55859 1.1211,-1.1211 0,0 0.55859,0 0.55859,-0.55859 l 1.6797,-1.6797 c 0,-0.55859 0.55859,-0.55859 0.55859,-1.1211 0,0 0,-0.55859 0.55859,-0.55859 0.55859,-0.55859 1.1211,-1.1211 1.1211,-1.6797 0,0 0,-0.55859 0.55859,-0.55859 v -1.1211 c 0.55859,-1.6797 1.1211,-3.3594 1.1211,-5.0391 0,0.55859 -0.55859,2.8008 0,0.55859 v -2.2383 c 0,-1.6797 0.55859,-3.3594 0.55859,-5.0391 1.1211,-12.32 5.0391,-24.078 12.879,-34.16 1.6797,-1.6797 0.55859,-4.4805 -1.1211,-5.6016 -25.199,-11.762 -53.762,-18.48 -83.441,-18.48 -90.16,0 -165.76,60.48 -189.28,143.36 0.008,1.6758 2.25,3.918 4.4883,3.918 h 170.8 c 2.2383,0 4.4805,-2.2383 3.9219,-4.4805 -0.55859,-2.8008 -1.1211,-5.6016 -1.1211,-8.9609 -1.1211,-14 7.2773,-25.199 17.918,-33.039 z"
       id="path113" />
    <path
       d="m 342.72,436.8 c 0,0 -0.55859,0.55859 -0.55859,1.1211 0.55859,0 0.55859,-0.5625 0.55859,-1.1211 z"
       id="path115" />
    <path
       d="m 364.56,411.04 c 1.1211,-2.2383 0,-1.6797 0,0 z"
       id="path117" />
    <path
       d="m 418.32,353.36 c 0,-0.55859 0.55859,-0.55859 0.55859,-1.1211 0,0 -0.55859,0.5625 -0.55859,1.1211 z"
       id="path119" />
    <path
       d="m 406.56,360.64 c 0.55859,0 0.55859,-0.55859 1.1211,-0.55859 C 406.56,360.64 406.0014,360.64 406.56,360.64 Z"
       id="path121" />
  </g>
  <path
     style="fill:#803300;stroke:none;stroke-width:1.54168"
     d="m 13.796696,606.00929 c -2.630127,-2.59512 -2.446071,-3.80763 3.010942,-19.83591 C 42.88134,509.58994 96.968263,443.4653 168.30201,400.96205 l 15.90838,-9.47879 v -16.59961 -16.59964 l -37.96293,-0.4096 -37.96295,-0.4096 15.30876,-24.50222 15.30875,-24.50223 -7.61055,-0.46288 c -4.18579,-0.25459 -7.61055,-0.68364 -7.61055,-0.95346 0,-0.26982 6.97764,-11.77667 15.50588,-25.57074 l 15.50586,-25.08017 -9.21414,-0.76569 -9.21414,-0.7657 12.36933,-19.90805 12.36934,-19.90806 -7.82323,-0.7657 -7.82321,-0.76569 10.91645,-17.61098 10.91644,-17.61098 -6.23392,-0.4709 c -3.42863,-0.259 -6.2339,-0.81702 -6.2339,-1.24005 0,-0.42303 7.55387,-12.95994 16.78639,-27.8598 9.23248,-14.89986 19.435,-31.4381 22.67218,-36.75163 3.23721,-5.31355 6.05071,-9.4483 6.25223,-9.18834 0.20152,0.25996 10.59688,17.18393 23.10082,37.60884 l 22.7344,37.13619 h -6.87497 -6.87499 l 10.76716,16.8904 c 5.92194,9.28973 10.76717,17.21467 10.76717,17.61099 0,0.39629 -3.49209,0.72056 -7.76018,0.72056 -4.26811,0 -7.7602,0.33349 -7.7602,0.74107 0,0.4076 5.58734,9.63809 12.41631,20.5122 6.82896,10.87413 12.41628,20.18838 12.41628,20.69837 0,0.51 -3.84128,0.92726 -8.5362,0.92726 -4.69491,0 -8.53619,0.41045 -8.53619,0.91214 0,0.50168 1.30323,2.74135 2.89609,4.97701 1.59286,2.23569 8.55276,13.19579 15.46642,24.35578 l 12.5703,20.29092 h -6.93021 c -3.81161,0 -6.93021,0.40208 -6.93021,0.89351 0,0.63252 28.0328,46.42267 30.08456,49.14164 0.11001,0.1458 5.78285,-0.35511 12.60638,-1.113 6.82352,-0.75791 17.12071,-1.79341 22.88265,-2.30113 l 10.47624,-0.92313 v -11.36352 -11.36353 h -19.41109 -19.41111 l 7.77084,-12.23436 c 4.27394,-6.72892 7.77081,-12.58648 7.77081,-13.01681 0,-0.43036 -1.74604,-0.78246 -3.88008,-0.78246 -2.13407,0 -3.88011,-0.4231 -3.88011,-0.94024 0,-0.51713 3.14288,-5.91569 6.98417,-11.9968 3.84129,-6.08111 6.98417,-11.51557 6.98417,-12.07655 0,-0.56102 -2.10606,-1.02002 -4.68013,-1.02002 h -4.68015 l 6.23217,-9.73666 c 3.4277,-5.35518 6.23219,-10.13329 6.23219,-10.61802 0,-0.48472 -1.71582,-1.09939 -3.81291,-1.36589 l -3.81291,-0.48458 5.29341,-8.42265 c 4.83406,-7.69182 5.04199,-8.48906 2.3963,-9.18832 -2.54026,-0.67139 -1.54811,-2.98598 8.056,-18.79349 6.02417,-9.91529 11.12641,-17.84023 11.33832,-17.61098 0.2119,0.22926 5.33,8.51403 11.37356,18.41064 9.3233,15.26736 10.52437,17.99383 7.92667,17.99383 -3.98731,0 -3.91239,0.457 1.64657,10.04379 l 4.70816,8.11952 -3.91262,0.48953 -3.91262,0.48952 6.18862,9.63273 c 3.40376,5.29802 6.18864,9.94961 6.18864,10.33689 0,0.38728 -1.74605,0.70414 -3.8801,0.70414 -2.13404,0 -3.88008,0.42957 -3.88008,0.9546 0,0.52504 3.14288,6.06249 6.98416,12.30543 3.84129,6.24296 6.98417,11.67095 6.98417,12.06222 0,0.39125 -1.74604,0.71136 -3.88011,0.71136 -2.13404,0 -3.88008,0.30769 -3.88008,0.68374 0,0.37605 3.4935,6.06134 7.76337,12.63397 l 7.76336,11.95022 -17.07558,0.43301 -17.0756,0.43299 v 11.34144 11.34143 l 6.59616,0.79132 c 3.62789,0.43524 11.48508,1.19478 17.46042,1.68787 5.97535,0.4931 13.30873,1.26224 16.2964,1.70921 4.4438,0.66483 5.81112,0.19817 7.51522,-2.56496 1.57579,-2.55505 1.63735,-3.64947 0.25273,-4.49383 -1.29655,-0.79064 -0.44867,-3.29899 2.90706,-8.60024 3.68164,-5.81613 4.23064,-7.59442 2.46335,-7.9792 -2.89412,-0.63014 -2.87971,-0.74787 0.82417,-6.74196 3.72568,-6.02938 3.85462,-7.31111 0.73547,-7.31111 -1.94292,0 -1.73137,-1.14714 1.16404,-6.31268 2.44662,-4.36489 2.97195,-6.52003 1.70256,-6.98461 -1.20564,-0.44126 0.0709,-3.92546 3.71862,-10.14975 8.63071,-14.72695 7.83757,-14.61161 15.22738,-2.21419 3.64334,6.11217 5.99831,11.34274 5.2333,11.62348 -2.19849,0.80686 -1.64511,3.2587 1.81882,8.05864 l 3.20977,4.44772 h -3.35724 c -3.3407,0 -3.3374,0.0333 0.67034,6.7811 4.68743,7.8921 4.81482,8.5328 1.69666,8.5328 -1.75609,0 -1.19893,1.79383 2.25931,7.27409 3.63507,5.76051 4.12509,7.43586 2.35495,8.05151 -1.75949,0.61194 -1.25075,2.24166 2.39016,7.65695 2.54398,3.78374 4.62839,7.39639 4.63207,8.02807 0.002,0.63171 -3.31084,1.16838 -7.36554,1.19264 -6.97956,0.0417 -6.33899,0.39598 12.02828,6.65173 24.84909,8.46342 36.51099,13.70018 37.78089,16.96543 0.62898,1.61725 -0.66767,5.01548 -3.43185,8.99426 -11.02966,15.87612 -17.87839,35.10446 -19.60541,55.0436 -1.67385,19.32523 -3.56645,25.02492 -10.72182,32.2893 -7.80154,7.92042 -18.49143,12.23935 -49.8069,20.123 -30.67894,7.72339 -50.06952,17.22389 -65.04837,31.8707 -7.25558,7.09471 -12.87934,14.29119 -15.79122,20.20725 -4.24211,8.61872 -4.52651,10.37589 -4.58767,28.34443 -0.0358,10.53582 -0.60088,20.01129 -1.25562,21.0566 -1.7063,2.72409 -308.344359,2.78608 -311.104284,0.0629 z M 237.75569,369.69268 c 8.5362,-2.81188 23.20294,-6.83635 32.59277,-8.94328 l 17.07241,-3.83075 -35.30885,-0.10981 -35.30886,-0.10968 v 10.11787 c 0,9.02079 0.29451,10.00241 2.71608,9.05305 1.49383,-0.58566 9.70023,-3.36547 18.23645,-6.17735 z"
     id="path4089" />
  <path
     style="fill:#803300;stroke:none;stroke-width:1.54168"
     d="m 374.38428,599.9266 c -4.82809,-16.97824 -3.62182,-22.06507 7.32106,-30.87286 10.61373,-8.54287 23.42547,-13.94288 52.82207,-22.2639 34.37896,-9.73134 48.41649,-16.2974 60.97429,-28.52083 12.86552,-12.52294 19.88892,-26.6128 22.25337,-44.64306 4.09776,-31.24779 7.87323,-41.91462 19.55502,-55.24865 l 5.0343,-5.74636 15.29813,11.46736 c 40.72202,30.52495 78.21439,76.34652 100.85343,123.25878 7.70873,15.97387 19.12475,46.24548 21.51254,57.04426 l 1.10048,4.97701 H 529.09051 377.07206 Z"
     id="path4202" />
  <path
     style="fill:#803300;stroke:none;stroke-width:1.54168"
     d="m 507.26283,260.30941 c -32.51594,-11.87163 -52.52143,-44.07448 -46.84624,-75.40842 9.97381,-55.06749 76.98182,-76.95444 116.43101,-38.03007 10.67767,10.53562 17.67024,23.72507 20.31252,38.31368 5.16936,28.54108 -10.68276,57.97173 -38.54287,71.55777 -10.86041,5.29609 -12.8764,5.74946 -27.38517,6.15855 -12.57208,0.35448 -17.30057,-0.15675 -23.96925,-2.59151 z"
     id="path4278" />
  <path
     style="fill:#803300;stroke:none;stroke-width:1.54168"
     d="m 577.89269,135.48039 c -1.30467,-3.35467 34.132,-48.634496 37.55332,-47.984376 1.38773,0.2637 2.71554,1.50523 2.95066,2.75895 0.54852,2.92467 -33.71105,46.494936 -37.05745,47.128556 -1.38643,0.26251 -2.93736,-0.59389 -3.44653,-1.90313 z"
     id="path4391" />
  <path
     style="fill:#501e1e;stroke:none;stroke-width:1.16959;fill-opacity:1"
     d=""
     id="path4467"
     transform="scale(0.75)" />
  <path
     style="fill:#a0a0a0;stroke:none;stroke-width:1.54168"
     d="m 525.71321,114.84028 c -2.57177,-4.74147 -2.09831,-53.981843 0.55345,-57.560125 1.83532,-2.476536 2.5354,-2.607473 4.65612,-0.870861 2.12579,1.740772 2.496,6.172669 2.496,29.88086 0,19.609066 -0.55047,28.380056 -1.86243,29.674566 -2.60246,2.56782 -3.98474,2.30183 -5.84314,-1.12444 z"
     id="path4617" />
  <path
     style="fill:#803300;stroke:none;stroke-width:1.54168"
     d="m 526.27587,114.48614 c -1.52154,-2.42913 -1.45696,-49.853612 0.0743,-54.614158 3.91279,-12.164073 7.06269,10.99138 5.51654,40.553158 -0.74434,14.23165 -2.58477,18.8603 -5.59089,14.061 z"
     id="path4656" />
  <path
     style="fill:#784421;stroke:none;stroke-width:1.54168"
     d="m 449.34438,120.81537 c -18.52401,-20.8019 -21.83583,-26.194556 -16.68771,-27.172806 2.19139,-0.41641 7.50505,5.08641 37.02391,38.342066 4.20895,4.74177 4.77351,6.16258 3.19452,8.0398 -1.05484,1.2541 -2.47516,2.28019 -3.15625,2.28019 -0.68113,0 -9.84963,-9.67017 -20.37447,-21.48925 z"
     id="path4769" />
  <path
     style="fill:#784421;stroke:none;stroke-width:1.54168"
     d="m 412.49154,188.91919 c -24.15626,-2.40246 -24.96427,-2.62094 -24.96427,-6.75038 0,-3.8555 3.78693,-3.94184 35.69687,-0.81378 12.37749,1.21336 23.07693,2.22656 23.7765,2.2516 0.6996,0.025 1.04881,1.59603 0.77603,3.49112 -0.42457,2.94964 -1.5013,3.47776 -7.48012,3.66889 -3.84129,0.12288 -16.35355,-0.70854 -27.80501,-1.84745 z"
     id="path4882" />
  <path
     style="fill:#a0a0a0;stroke:none;stroke-width:1.16959"
     d=""
     id="path4958"
     transform="scale(0.75)" />
  <path
     style="fill:#a0a0a0;stroke:none;stroke-width:1.16959"
     d=""
     id="path4997"
     transform="scale(0.75)" />
  <path
     style="fill:#803300;stroke:none;stroke-width:1.54168"
     d="m 407.01431,269.54812 c -1.9227,-3.0696 1.71697,-6.10207 24.51962,-20.4291 24.72714,-15.5362 29.52346,-17.46438 28.65904,-11.52122 -0.36384,2.50147 -6.69778,7.37056 -23.77652,18.27766 -22.40535,14.30889 -27.51524,16.6851 -29.40214,13.67266 z"
     id="path5036" />
  <path
     style="fill:#803300;stroke:none;stroke-width:1.54168"
     d="m 478.0997,323.75623 c -0.89684,-2.30602 1.08219,-8.13599 13.37983,-39.41526 5.11885,-13.01987 7.09738,-16.46244 9.46143,-16.46244 1.81099,0 2.99025,1.05626 2.99198,2.67993 0.002,3.10342 -18.28465,50.7416 -20.57613,53.59863 -2.06418,2.57361 -4.16254,2.41361 -5.25711,-0.40086 z"
     id="path5112" />
  <path
     style="fill:#803300;stroke:none;stroke-width:1.54168"
     d="m 566.6995,319.20825 c -5.28465,-12.47968 -17.66358,-50.24528 -16.87975,-51.49668 1.83109,-2.92333 5.58311,-1.13208 7.56703,3.61258 5.53295,13.23237 17.84226,50.59677 17.07311,51.82471 -1.88958,3.01673 -5.61538,1.12482 -7.76039,-3.94061 z"
     id="path5225" />
  <path
     style="fill:#803300;stroke:none;stroke-width:1.54168"
     d="m 626.02311,255.77601 c -24.03642,-12.52825 -28.48401,-15.58565 -26.73479,-18.37831 1.94773,-3.10956 5.9382,-1.72059 28.66479,9.97739 25.07564,12.9071 30.28967,16.64181 26.52458,18.99902 -1.28043,0.80164 -3.02647,1.44495 -3.88009,1.42957 -0.85362,-0.0153 -11.91213,-5.42781 -24.57449,-12.02767 z"
     id="path5301" />
  <path
     style="fill:#803300;stroke:none;stroke-width:1.54168"
     d="m 608.41772,181.20048 c -0.5244,-1.34839 -0.1034,-2.97008 0.93577,-3.60372 1.86417,-1.13679 46.62817,-6.20728 54.73285,-6.19967 4.70032,0.004 7.08173,2.52481 4.65136,4.92285 -1.3195,1.30196 -46.82721,7.16789 -56.60173,7.29596 -1.52063,0.0199 -3.19383,-1.06701 -3.71825,-2.41542 z"
     id="path5377" />
</svg>
