<?xml version="1.0" encoding="UTF-8" standalone="no"?>
<svg
   width="700pt"
   height="700pt"
   version="1.1"
   viewBox="0 0 700 700"
   id="svg4"
   sodipodi:docname="print.svg"
   inkscape:version="1.1.2 (b8e25be833, 2022-02-05)"
   xmlns:inkscape="http://www.inkscape.org/namespaces/inkscape"
   xmlns:sodipodi="http://sodipodi.sourceforge.net/DTD/sodipodi-0.dtd"
   xmlns="http://www.w3.org/2000/svg"
   xmlns:svg="http://www.w3.org/2000/svg">
  <defs
     id="defs8" />
  <sodipodi:namedview
     id="namedview6"
     pagecolor="#ffffff"
     bordercolor="#666666"
     borderopacity="1.0"
     inkscape:pageshadow="2"
     inkscape:pageopacity="0.0"
     inkscape:pagecheckerboard="0"
     inkscape:document-units="pt"
     showgrid="false"
     inkscape:zoom="0.855"
     inkscape:cx="466.66667"
     inkscape:cy="467.25146"
     inkscape:window-width="1920"
     inkscape:window-height="991"
     inkscape:window-x="-9"
     inkscape:window-y="-9"
     inkscape:window-maximized="1"
     inkscape:current-layer="svg4" />
  <path
     d="m240.24 329.04c-6.125 3.7812-13.18 5.7969-20.383 5.8242-23.371-2.1719-44.242-15.527-56-35.84-9-13.324-13.977-28.953-14.336-45.027-0.89062-14.438 5.7109-28.316 17.473-36.734 12.199-7.4062 27.355-8 40.098-1.5664 14.754 6.8125 27.266 17.691 36.062 31.359 9.0977 13.441 14.078 29.242 14.336 45.473 0.81641 14.305-5.6797 28.055-17.25 36.512zm206.75 31.359c-9.0781-7.168-16.816-15.891-22.848-25.762-2.9102-6.0469-5.1523-12.098-7.3906-18.145-9.4062-25.09-19.938-53.535-66.754-53.535s-57.344 28.449-66.754 53.535c-2.2383 6.0469-4.4805 12.098-7.3906 18.145-6.0312 9.8711-13.77 18.594-22.848 25.762-21.055 19.266-49.953 45.695-16.801 82.207 18.145 20.16 39.648 13.441 62.496 6.2734 16.465-6 33.781-9.3281 51.297-9.8555 17.516 0.52734 34.832 3.8555 51.297 9.8555 10.711 4.0195 21.957 6.4375 33.375 7.168 11.246 0.18359 21.965-4.7656 29.121-13.441 33.105-36.512 4.2109-62.945-16.848-82.207zm86.016-143.14c-12.199-7.4062-27.355-8-40.098-1.5664-14.754 6.8125-27.266 17.691-36.062 31.359-9.0977 13.441-14.078 29.242-14.336 45.473-0.81641 14.305 5.6797 28.055 17.25 36.512 6.125 3.7812 13.18 5.7969 20.383 5.8242 23.371-2.1719 44.242-15.527 56-35.84 20.34-31.363 18.996-67.426-3.1797-81.738zm-236.1 27.551c2.6602 0.085937 5.3125-0.29297 7.8438-1.1172 24.414-6.2734 35.391-41.887 25.312-80.863s-37.633-64.512-62.047-57.793h-0.003906c-6.6992 2.2578-12.664 6.2812-17.277 11.641-4.6094 5.3594-7.6953 11.859-8.9297 18.82-3.9766 16.617-3.5898 33.98 1.1211 50.402 9.1367 34.941 31.762 58.91 53.938 58.91zm98.336-1.1211v0.003906c2.5352 0.80859 5.1836 1.1875 7.8438 1.1172 12.398-0.84766 23.902-6.7617 31.805-16.352 10.789-12.141 18.406-26.762 22.176-42.559 4.7109-16.422 5.0977-33.785 1.1211-50.402-1.2344-6.9609-4.3203-13.461-8.9297-18.82-4.6133-5.3594-10.578-9.3828-17.277-11.641-24.641-6.7188-51.742 18.816-62.047 57.793-10.305 38.973 0.85156 74.613 25.266 80.863z"
     id="path2" />
  <path
     style="fill:#784421;stroke:none;stroke-width:1.16959"
     d="m 463.03682,377.06963 c -19.37312,-1.35701 -40.48774,7.63208 -48.81441,26.03253 -14.15834,25.74315 -19.16641,56.81745 -41.01791,77.94682 -15.79672,18.14827 -36.27041,32.33438 -49.06342,52.96052 -5.68023,9.95392 -3.38706,22.35167 3.71437,30.92562 7.23044,10.46269 19.16862,20.85392 32.8497,16.61576 30.69449,-5.609 59.53133,-20.09556 91.25362,-20.27575 27.97655,-1.51497 56.34015,0.81086 82.8848,10.26251 16.66752,4.50599 33.74094,12.78183 51.34064,9.84713 12.95553,-4.4804 21.67154,-17.45302 25.82466,-29.95933 3.16538,-16.79567 -11.17285,-28.60953 -21.45468,-39.48282 -15.46162,-16.5825 -33.57593,-31.25437 -45.55007,-50.70587 -12.8635,-23.01274 -17.5932,-50.53742 -34.95752,-70.92471 -11.89423,-11.23074 -28.8134,-14.34789 -44.65231,-13.2531 -0.78582,0.004 -1.57165,0.007 -2.35747,0.0107 z"
     id="path1394"
     transform="scale(0.75)" />
  <path
     style="fill:#784421;stroke:none;stroke-width:1.16959"
     d="m 681.27284,307.51325 c -19.99396,2.15208 -35.81235,17.23501 -47.79559,32.33964 -12.96302,16.93205 -19.57224,39.12136 -17.05272,60.32529 2.76879,12.97056 16.4082,24.7037 30.01644,19.23885 21.85062,-4.42278 39.37626,-20.36266 49.69191,-39.63794 10.40501,-18.02747 17.17989,-41.8653 7.1269,-61.44484 -4.71019,-7.23803 -13.4874,-11.11369 -21.98694,-10.821 z"
     id="path1470"
     transform="scale(0.75)" />
  <path
     style="fill:#784421;stroke:none;stroke-width:1.16959"
     d="m 561.66164,165.36687 c -14.42859,3.21058 -24.10225,16.88142 -31.46326,28.87015 -14.31347,26.01564 -21.20231,58.21648 -12.09592,87.09707 3.06781,10.50802 12.99801,23.21543 25.26148,17.92121 18.00355,-6.69246 28.29229,-25.10125 35.64739,-41.79231 7.5004,-17.79867 10.96613,-37.13186 9.02778,-56.4099 -0.56577,-13.34031 -4.46963,-29.23793 -17.63067,-35.40982 -2.89501,-0.40367 -5.83361,-0.26415 -8.7468,-0.2764 z"
     id="path1546"
     transform="scale(0.75)" />
  <path
     style="fill:#784421;stroke:none;stroke-width:1.16959"
     d="m 366.64611,165.37144 c -7.8232,-0.8277 -12.73638,7.55543 -16.38113,13.0985 -6.78835,16.61303 -6.0688,35.44971 -3.9268,52.94682 5.93056,26.27494 17.47562,54.86102 42.70604,67.85225 11.9132,5.28531 22.38556,-6.25868 25.75841,-16.62784 9.04319,-27.20465 3.36466,-57.45416 -8.69059,-82.86211 -7.26698,-14.253 -17.60983,-29.06967 -33.31188,-34.38706 -2.05077,-0.0456 -4.10299,-0.0495 -6.15405,-0.0206 z"
     id="path1622"
     transform="scale(0.75)" />
  <path
     style="fill:#784421;stroke:none;stroke-width:1.16959"
     d="m 250.06396,307.66402 c -16.71944,-0.23544 -27.59835,17.67902 -24.88215,33.06383 2.65847,35.37929 26.76775,71.56244 62.98522,79.05697 10.07085,2.85008 21.22118,-2.14545 25.4683,-11.82612 6.87741,-12.43165 3.49426,-27.82957 0.25356,-40.91055 -8.68142,-25.84093 -28.5063,-49.58176 -54.89766,-58.24881 -2.90572,-0.78062 -5.91417,-1.22405 -8.92727,-1.13532 z"
     id="path1698"
     transform="scale(0.75)" />
</svg>
